<?xml version="1.0" encoding="UTF-8"?>
<svg id="svg34" width="86px" height="86px" enable-background="new 0 0 86 86" version="1.1" viewBox="0 0 86 86" xml:space="preserve" xmlns="http://www.w3.org/2000/svg"><defs id="defs38">
	<linearGradient id="SVGID_1_" x1="12.806" x2="85.283" y1="73.194" y2=".7171" gradientUnits="userSpaceOnUse">
		<stop id="stop5" stop-color="#26a69a" offset="0"/>
		<stop id="stop7" stop-color="#80cbc4" offset=".9951"/>
	</linearGradient>
	
	
	
</defs>
<path id="path10" d="m85.699 1.723c0-0.786-0.637-1.423-1.423-1.423h-41.276c-23.583 0-42.7 19.117-42.7 42.7 0 23.582 19.117 42.7 42.7 42.7s42.7-19.118 42.7-42.7c0-0.636-1e-3 -41.277-1e-3 -41.277z" fill="url(#SVGID_1_)"/><g id="Layer_2" display="none">
	<rect id="rect2" x="-21" y="-19" width="497" height="300" display="inline" fill="#32332F"/>
</g>

<path id="path979" d="m43 11c-17.673 0-32 14.327-32 32 0 17.673 14.327 32 32 32s32-14.327 32-32-14.327-32-32-32zm-3.2053 6.1161c0.37307-0.03887 0.84679 0.0224 1.2232 0 0.0448 0.17848-0.2709 0.81184-0.69643 1.7411-2.7094 5.9191-2.8628 12.857-0.34821 16.562 0.45504 0.67176 0.86607 1.3097 0.86607 1.3929 0 0.08306-0.48976 0.16965-1.0446 0.16965-1.3026 0-2.535-0.79134-5.0536-2.7857-1.1188-0.88597-2.5704-1.6284-3.1339-1.7411-0.88491-0.17678-1.1231-0.10025-2.2679 1.0446-1.0651 1.0649-1.3929 1.6412-1.3929 2.6161 0 3.697 4.3865 6.6278 12.545 8.3571 11.079 2.3482 13.81 4.4599 14.116 10.286 0.38368 7.3054-3.5079 12.816-12.027 17.08-1.0168 0.50916-1.6627 0.70154-2.0893 0.86607-0.18904-0.01691-0.32938 0.01691-0.51787 0-0.0725-0.22588-0.17856-0.74821-0.17856-1.7411 0-3.8801-1.5258-7.8737-3.8304-10.107-0.61862-0.5996-2.356-1.8675-3.8393-2.7857-1.4832-0.91814-2.979-1.9825-3.3125-2.4375-0.55264-0.75514-0.59424-1.2211-0.16965-2.6161 0.77382-2.5478 1.6916-3.9705 3.4822-5.5804 0.93871-0.84397 1.8813-1.5456 2.0893-1.5625 0.208-0.01691-1.1922-0.44311-3.3036-0.875-2.1112-0.43273-5.2068-1.3417-6.8036-1.9196-2.9198-1.0565-6.8542-3.2698-8.3572-4.875-0.0636-0.06802-0.12333-0.11831-0.17856-0.17856 2.1533-8.5774 8.1945-15.603 16.205-18.991 1.6762-0.70896 3.4081-1.1984 5.2321-1.5714 0.90856-0.18568 1.8476-0.25285 2.7857-0.34821zm26.143 13.071c0.65497 0.40485 3.1244 5.7562 3.8304 8.3661 0.91145 3.3694 0.84549 9.1975 0 12.545-0.32178 1.2739-0.72887 2.4677-0.86607 2.6161-0.13713 0.14834-0.638-0.70398-1.2232-1.7411-0.58528-1.0369-2.4554-3.2447-4.009-4.8839-4.4844-4.732-5.1909-7.1967-3.3125-10.973 0.94733-1.9044 5.0734-6.2414 5.5804-5.9286z" fill="#e3f2fd" opacity=".3" stroke-width="4.5714"/><path id="path982" d="m43 11c0.5287 0 1.0538 0.013713 1.5762 0.039062a32 32 0 0 0-1.5762-0.039062zm0 0a32 32 0 0 0-1.5762 0.039062c0.52242-0.025349 1.0475-0.039062 1.5762-0.039062zm-1.6914 0.044922a32 32 0 0 0-1.5352 0.11719c0.50832-0.050905 1.0201-0.090356 1.5352-0.11719zm3.4219 0.001953c0.47691 0.025425 0.95073 0.06329 1.4219 0.10938a32 32 0 0 0-1.4219-0.10938zm-5.0723 0.12891a32 32 0 0 0-1.332 0.16797c0.44136-0.064613 0.88501-0.12157 1.332-0.16797zm6.7402 0.00586c0.4272 0.045112 0.85142 0.10035 1.2734 0.16211a32 32 0 0 0-1.2734-0.16211zm-8.5195 0.23242a32 32 0 0 0-0.99805 0.17774c0.33096-0.064112 0.66354-0.12391 0.99805-0.17774zm10.264 0.003907c0.3357 0.054255 0.66984 0.11312 1.002 0.17773a32 32 0 0 0-1.002-0.17773zm-11.945 0.31445a32 32 0 0 0-0.83203 0.19141c0.27583-0.067535 0.55345-0.13107 0.83203-0.19141zm13.707 0.023437c0.23841 0.052453 0.47651 0.10633 0.71289 0.16406a32 32 0 0 0-0.71289-0.16406zm1.5566 0.38281c0.19632 0.053704 0.39114 0.11064 0.58594 0.16797a32 32 0 0 0-0.58594-0.16797zm-16.963 0.011719a32 32 0 0 0-0.60156 0.17188c0.19979-0.059202 0.40016-0.11649 0.60156-0.17188zm18.547 0.4668c0.14584 0.048195 0.29065 0.098209 0.43555 0.14844a32 32 0 0 0-0.43555-0.14844zm-21.52 0.50976a32 32 0 0 0-0.55274 0.2207c0.18361-0.074556 0.36745-0.14948 0.55274-0.2207zm22.959 0.003906c0.15636 0.060166 0.31163 0.12301 0.4668 0.18555a32 32 0 0 0-0.4668-0.18555zm-24.408 0.59766a32 32 0 0 0-0.48633 0.21875c0.16121-0.07454 0.32368-0.14683 0.48633-0.21875zm25.861 0.003906c0.18578 0.082248 0.37079 0.16629 0.55469 0.25195a32 32 0 0 0-0.55469-0.25195zm-27.104 0.57422a32 32 0 0 0-0.77148 0.39258c0.25483-0.13478 0.51263-0.26454 0.77148-0.39258zm28.396 0.03125c0.20714 0.10304 0.41263 0.20904 0.61719 0.31641a32 32 0 0 0-0.61719-0.31641zm1.2988 0.68164c0.25302 0.14073 0.5032 0.28626 0.75195 0.43359a32 32 0 0 0-0.75195-0.43359zm-31.158 0.058594a32 32 0 0 0-0.67578 0.38867c0.22329-0.13251 0.44904-0.26148 0.67578-0.38867zm32.395 0.66602c0.32234 0.1987 0.64045 0.40165 0.95508 0.61133a32 32 0 0 0-0.95508-0.61133zm-33.555 0.013671a32 32 0 0 0-0.95898 0.61524c0.3159-0.21099 0.63529-0.41532 0.95898-0.61524zm34.812 0.80078c0.34038 0.23248 0.67704 0.47169 1.0078 0.7168a32 32 0 0 0-1.0078-0.7168zm-36.049 0.001953a32 32 0 0 0-0.99805 0.70898c0.32751-0.24254 0.66112-0.47882 0.99805-0.70898zm15.43 0.54883c-0.21212-0.007659-0.42284-0.013576-0.60938 0.005859-0.9381 0.09536-1.8766 0.16393-2.7852 0.34961-1.824 0.37307-3.5563 0.86135-5.2324 1.5703-8.0109 3.3878-14.052 10.415-16.205 18.992 0.05523 0.060251 0.11413 0.10971 0.17773 0.17773 1.5029 1.6052 5.4376 3.8185 8.3574 4.875 1.5968 0.57791 4.6915 1.4872 6.8027 1.9199 2.1113 0.43189 3.5127 0.85809 3.3047 0.875-0.20795 0.016914-1.1511 0.71853-2.0898 1.5625-1.7906 1.6098-2.7086 3.0323-3.4824 5.5801-0.42459 1.395-0.38272 1.8621 0.16992 2.6172 0.33348 0.45504 1.8293 1.5194 3.3125 2.4375 1.4833 0.91819 3.2212 2.1855 3.8398 2.7852 2.3046 2.2334 3.8301 6.2273 3.8301 10.107 0 0.99286 0.10523 1.5144 0.17773 1.7402 0.18849 0.0169 0.32854-0.0169 0.51758 0 0.4266-0.16453 1.0731-0.35608 2.0898-0.86523 8.5189-4.2645 12.411-9.7747 12.027-17.08-0.3056-5.8258-3.0381-7.939-14.117-10.287-8.1582-1.7293-12.543-4.6604-12.543-8.3574 0-0.97491 0.32747-1.5503 1.3926-2.6152 1.1448-1.1449 1.3827-1.2217 2.2676-1.0449 0.56352 0.11264 2.014 0.85622 3.1328 1.7422 2.5186 1.9944 3.7521 2.7852 5.0547 2.7852 0.55488 0 1.0449-0.086862 1.0449-0.16992 0-0.083108-0.41215-0.72082-0.86719-1.3926-2.5146-3.7051-2.3598-10.643 0.34961-16.562 0.42553-0.92923 0.74011-1.5637 0.69531-1.7422-0.1882 0.0112-0.40117 0.0018-0.61328-0.005859zm21.852 0.33398c0.34636 0.26137 0.68825 0.52781 1.0234 0.80274a32 32 0 0 0-1.0234-0.80274zm-38.529 0.013672a32 32 0 0 0-0.98047 0.76953c0.32147-0.26313 0.64875-0.51884 0.98047-0.76953zm39.721 0.92969c0.35124 0.29211 0.69686 0.58986 1.0352 0.89648a32 32 0 0 0-1.0352-0.89648zm-40.908 0.009765a32 32 0 0 0-1.0371 0.90039c0.3391-0.30775 0.68499-0.60724 1.0371-0.90039zm-1.0781 0.9375a32 32 0 0 0-1.0879 1.0391c0.35444-0.35444 0.71721-0.70149 1.0879-1.0391zm-1.0879 1.0391a32 32 0 0 0-1.0352 1.084c0.3364-0.36926 0.68202-0.73085 1.0352-1.084zm44.17-1.0352c0.36926 0.3364 0.73085 0.68202 1.084 1.0352a32 32 0 0 0-1.084-1.0352zm1.084 1.0352c0.35444 0.35444 0.70149 0.71721 1.0391 1.0879a32 32 0 0 0-1.0391-1.0879zm1.0762 1.1289c0.30775 0.33909 0.60724 0.68499 0.90039 1.0371a32 32 0 0 0-0.90039-1.0371zm-47.42 0.015625a32 32 0 0 0-0.89648 1.0352c0.29211-0.35124 0.58986-0.69686 0.89648-1.0352zm-1.0371 1.2031a32 32 0 0 0-0.80274 1.0234c0.26137-0.34636 0.52781-0.68825 0.80274-1.0234zm49.527 0.025391c0.26313 0.32147 0.51884 0.64875 0.76953 0.98047a32 32 0 0 0-0.76953-0.98047zm-50.498 1.2227a32 32 0 0 0-0.7168 1.0078c0.23248-0.34038 0.47169-0.67704 0.7168-1.0078zm51.455 0.007812c0.24254 0.32751 0.47882 0.66112 0.70898 0.99805a32 32 0 0 0-0.70898-0.99805zm0.89648 1.2754c0.21099 0.3159 0.41532 0.63529 0.61524 0.95898a32 32 0 0 0-0.61524-0.95898zm-53.271 0.027344a32 32 0 0 0-0.60742 0.94726c0.19726-0.31981 0.39935-0.63505 0.60742-0.94726zm54.178 1.416c0.13251 0.22329 0.26148 0.44904 0.38867 0.67578a32 32 0 0 0-0.38867-0.67578zm-55.08 0.023438a32 32 0 0 0-0.43359 0.75195c0.14073-0.25302 0.28626-0.5032 0.43359-0.75195zm55.848 1.3438c0.13478 0.25483 0.26454 0.51263 0.39258 0.77148a32 32 0 0 0-0.39258-0.77148zm-56.646 0.089844a32 32 0 0 0-0.31641 0.61719c0.10304-0.20714 0.20904-0.41263 0.31641-0.61719zm-0.66992 1.3555a32 32 0 0 0-0.25195 0.55469c0.082248-0.18578 0.16629-0.37079 0.25195-0.55469zm58.068 0.082032c0.07454 0.16121 0.14683 0.32368 0.21875 0.48633a32 32 0 0 0-0.21875-0.48633zm-6.252 0.5918c-0.87448 0.22566-4.5552 4.1482-5.4434 5.9336-1.8784 3.7765-1.1719 6.2427 3.3125 10.975 1.5536 1.6393 3.4225 3.8459 4.0078 4.8828 0.58521 1.0371 1.0875 1.8905 1.2246 1.7422 0.1372-0.14834 0.54345-1.3433 0.86523-2.6172 0.84549-3.3471 0.91145-9.1756 0-12.545-0.70594-2.6099-3.1751-7.9604-3.8301-8.3652-0.031683-0.019554-0.07842-0.020904-0.13672-0.005859zm6.8516 0.79102c0.074556 0.18361 0.14948 0.36745 0.2207 0.55274a32 32 0 0 0-0.2207-0.55274zm-59.336 0.076172a32 32 0 0 0-0.18555 0.4668c0.060166-0.15636 0.12301-0.31163 0.18555-0.4668zm-0.55078 1.4707a32 32 0 0 0-0.14844 0.43555c0.048195-0.14584 0.098209-0.29065 0.14844-0.43555zm60.912 1.377c0.059202 0.19979 0.11649 0.40016 0.17188 0.60156a32 32 0 0 0-0.17188-0.60156zm-61.371 0.056641a32 32 0 0 0-0.16797 0.58594c0.053704-0.19632 0.11064-0.39114 0.16797-0.58594zm61.77 1.4121c0.067535 0.27582 0.13107 0.55345 0.19141 0.83203a32 32 0 0 0-0.19141-0.83203zm-62.156 0.017578a32 32 0 0 0-0.16406 0.71289c0.052453-0.23841 0.10633-0.47651 0.16406-0.71289zm-0.32422 1.4727a32 32 0 0 0-0.17773 1.002c0.054255-0.3357 0.11312-0.66984 0.17773-1.002zm62.812 0.02539c0.064112 0.33096 0.12391 0.66354 0.17774 0.99805a32 32 0 0 0-0.17774-0.99805zm0.24805 1.4453c0.064613 0.44136 0.12157 0.88501 0.16797 1.332a32 32 0 0 0-0.16797-1.332zm-63.312 0.001953a32 32 0 0 0-0.16211 1.2734c0.045112-0.4272 0.10035-0.85142 0.16211-1.2734zm63.494 1.4453c0.050905 0.50832 0.090356 1.0201 0.11719 1.5352a32 32 0 0 0-0.11719-1.5352zm-63.682 0.074218a32 32 0 0 0-0.10938 1.4219c0.025425-0.47691 0.06329-0.95073 0.10938-1.4219zm-0.11719 1.5762a32 32 0 0 0-0.039062 1.5762c0-0.5287 0.013713-1.0538 0.039062-1.5762zm-0.039062 1.5762a32 32 0 0 0 0.039062 1.5762c-0.025349-0.52242-0.039062-1.0475-0.039062-1.5762zm63.961-1.5762c0.025349 0.52242 0.039062 1.0475 0.039062 1.5762a32 32 0 0 0-0.039062-1.5762zm0.039062 1.5762c0 0.5287-0.013713 1.0538-0.039062 1.5762a32 32 0 0 0 0.039062-1.5762zm-63.955 1.6914a32 32 0 0 0 0.11719 1.5352c-0.050905-0.50832-0.090356-1.0201-0.11719-1.5352zm63.908 0.039063c-0.025425 0.47691-0.06329 0.95073-0.10938 1.4219a32 32 0 0 0 0.10938-1.4219zm-63.777 1.6113a32 32 0 0 0 0.16797 1.332c-0.064613-0.44136-0.12157-0.88501-0.16797-1.332zm63.643 0.056641c-0.045112 0.4272-0.10035 0.85142-0.16211 1.2734a32 32 0 0 0 0.16211-1.2734zm-63.404 1.7227a32 32 0 0 0 0.17774 0.99805c-0.064112-0.33096-0.12391-0.66354-0.17774-0.99805zm63.168 0.021484c-0.054255 0.3357-0.11312 0.66984-0.17773 1.002a32 32 0 0 0 0.17773-1.002zm-62.85 1.6602a32 32 0 0 0 0.19141 0.83203c-0.067535-0.27582-0.13107-0.55345-0.19141-0.83203zm62.512 0.10156c-0.052453 0.23841-0.10633 0.47651-0.16406 0.71289a32 32 0 0 0 0.16406-0.71289zm-0.38281 1.5566c-0.053704 0.19632-0.11064 0.39114-0.16797 0.58594a32 32 0 0 0 0.16797-0.58594zm-61.711 0.041015a32 32 0 0 0 0.17188 0.60156c-0.059202-0.19979-0.11649-0.40016-0.17188-0.60156zm61.232 1.543c-0.048195 0.14584-0.098209 0.29065-0.14844 0.43555a32 32 0 0 0 0.14844-0.43555zm-60.256 1.4297a32 32 0 0 0 0.2207 0.55274c-0.074556-0.18361-0.14948-0.36745-0.2207-0.55274zm59.742 0.009766c-0.060166 0.15636-0.12301 0.31163-0.18555 0.4668a32 32 0 0 0 0.18555-0.4668zm-59.141 1.4395a32 32 0 0 0 0.21875 0.48633c-0.07454-0.16121-0.14683-0.32368-0.21875-0.48633zm58.539 0.013672c-0.082248 0.18578-0.16629 0.37079-0.25195 0.55469a32 32 0 0 0 0.25195-0.55469zm-57.961 1.2285a32 32 0 0 0 0.39258 0.77148c-0.13478-0.25483-0.26454-0.51263-0.39258-0.77148zm57.355 0.064453c-0.10304 0.20714-0.20904 0.41263-0.31641 0.61719a32 32 0 0 0 0.31641-0.61719zm-0.68164 1.2988c-0.14073 0.25302-0.28626 0.5032-0.43359 0.75195a32 32 0 0 0 0.43359-0.75195zm-55.902 0.099609a32 32 0 0 0 0.38867 0.67578c-0.13251-0.22329-0.26148-0.44904-0.38867-0.67578zm55.174 1.1445c-0.19726 0.31981-0.39935 0.63505-0.60742 0.94726a32 32 0 0 0 0.60742-0.94726zm-54.494 0.015624a32 32 0 0 0 0.61524 0.95898c-0.21099-0.3159-0.41532-0.63529-0.61524-0.95898zm53.684 1.2344c-0.23248 0.34038-0.47169 0.67704-0.7168 1.0078a32 32 0 0 0 0.7168-1.0078zm-52.881 0.001953a32 32 0 0 0 0.70898 0.99805c-0.24254-0.32751-0.47882-0.66112-0.70898-0.99805zm51.996 1.2305c-0.26137 0.34636-0.52781 0.68825-0.80274 1.0234a32 32 0 0 0 0.80274-1.0234zm-51.1 0.017579a32 32 0 0 0 0.76953 0.98047c-0.26313-0.32147-0.51884-0.64875-0.76953-0.98047zm50.156 1.1738c-0.29211 0.35124-0.58986 0.69686-0.89648 1.0352a32 32 0 0 0 0.89648-1.0352zm-49.217 0.013672a32 32 0 0 0 0.90039 1.0371c-0.30775-0.33909-0.60724-0.68499-0.90039-1.0371zm0.9375 1.0781a32 32 0 0 0 1.0391 1.0879c-0.35444-0.35444-0.70149-0.71721-1.0391-1.0879zm1.0391 1.0879a32 32 0 0 0 1.084 1.0352c-0.36926-0.3364-0.73085-0.68202-1.084-1.0352zm46.289-1.084c-0.3364 0.36926-0.68202 0.73085-1.0352 1.084a32 32 0 0 0 1.0352-1.084zm-1.0352 1.084c-0.35444 0.35444-0.71721 0.70149-1.0879 1.0391a32 32 0 0 0 1.0879-1.0391zm-1.1289 1.0762c-0.3391 0.30775-0.68499 0.60724-1.0371 0.90039a32 32 0 0 0 1.0371-0.90039zm-42.98 0.013672a32 32 0 0 0 1.0352 0.89648c-0.35124-0.29211-0.69686-0.58986-1.0352-0.89648zm1.2031 1.0371a32 32 0 0 0 1.0234 0.80274c-0.34636-0.26137-0.68825-0.52781-1.0234-0.80274zm40.533 0.019532c-0.32147 0.26313-0.64875 0.51884-0.98047 0.76953a32 32 0 0 0 0.98047-0.76953zm-39.285 0.95117a32 32 0 0 0 1.0078 0.7168c-0.34038-0.23248-0.67704-0.47169-1.0078-0.7168zm38.055 0.00586c-0.32751 0.24254-0.66112 0.47882-0.99805 0.70898a32 32 0 0 0 0.99805-0.70898zm-1.2754 0.89648c-0.3159 0.21099-0.63529 0.41532-0.95898 0.61524a32 32 0 0 0 0.95898-0.61524zm-35.469 0.017578a32 32 0 0 0 0.95508 0.61133c-0.32234-0.1987-0.64045-0.40165-0.95508-0.61133zm34.025 0.88867c-0.22329 0.13251-0.44904 0.26148-0.67578 0.38867a32 32 0 0 0 0.67578-0.38867zm-32.586 0.013672a32 32 0 0 0 0.75195 0.43359c-0.25302-0.14073-0.5032-0.28626-0.75195-0.43359zm31.219 0.75391c-0.25483 0.13478-0.51263 0.26454-0.77148 0.39258a32 32 0 0 0 0.77148-0.39258zm-29.785 0.044922a32 32 0 0 0 0.61719 0.31641c-0.20714-0.10304-0.41263-0.20904-0.61719-0.31641zm1.3555 0.66992a32 32 0 0 0 0.55469 0.25195c-0.18578-0.082248-0.37079-0.16629-0.55469-0.25195zm26.902 0.037109c-0.16121 0.07454-0.32368 0.14683-0.48633 0.21875a32 32 0 0 0 0.48633-0.21875zm-1.3828 0.59961c-0.18361 0.074555-0.36745 0.14948-0.55274 0.2207a32 32 0 0 0 0.55274-0.2207zm-23.979 0.03125a32 32 0 0 0 0.4668 0.18555c-0.15636-0.060166-0.31163-0.12301-0.4668-0.18555zm1.4707 0.55078a32 32 0 0 0 0.43555 0.14844c-0.14584-0.048195-0.29065-0.098209-0.43555-0.14844zm19.584 0.44336c-0.19979 0.059202-0.40016 0.11649-0.60156 0.17188a32 32 0 0 0 0.60156-0.17188zm-18.15 0.015625a32 32 0 0 0 0.58594 0.16797c-0.19632-0.053704-0.39114-0.11064-0.58594-0.16797zm16.682 0.38281c-0.27583 0.067535-0.55345 0.13107-0.83203 0.19141a32 32 0 0 0 0.83203-0.19141zm-15.252 0.003906a32 32 0 0 0 0.71289 0.16406c-0.23841-0.052453-0.47651-0.10633-0.71289-0.16406zm1.4727 0.32422a32 32 0 0 0 1.002 0.17773c-0.3357-0.054255-0.66984-0.11312-1.002-0.17773zm12.264 0.003906c-0.33096 0.064111-0.66354 0.12391-0.99805 0.17774a32 32 0 0 0 0.99805-0.17774zm-10.791 0.24805a32 32 0 0 0 1.2734 0.16211c-0.4272-0.045112-0.85142-0.10035-1.2734-0.16211zm9.3457 0c-0.44136 0.064613-0.88501 0.12157-1.332 0.16797a32 32 0 0 0 1.332-0.16797zm-1.4473 0.18164c-0.50832 0.050905-1.0201 0.090356-1.5352 0.11719a32 32 0 0 0 1.5352-0.11719zm-6.3789 0.005859a32 32 0 0 0 1.4219 0.10938c-0.47691-0.025425-0.95073-0.063291-1.4219-0.10938zm1.5762 0.11719a32 32 0 0 0 1.5762 0.039062c-0.5287 0-1.0538-0.013713-1.5762-0.039062zm1.5762 0.039062a32 32 0 0 0 1.5762-0.039062c-0.52242 0.025349-1.0475 0.039062-1.5762 0.039062z" fill="#00695c" opacity=".5" stroke-width="1.2168"/><g id="g114" transform="matrix(.09375 0 0 .09375 88.884 19.998)" fill="#fff"><g id="g878" transform="translate(-613.95 228.34)" fill="#fff"><circle id="circle2" cx="124.52" cy="-81.004" r="86.128" opacity=".5"/><path id="path4" d="m124.52 19.13c-55.21 0-100.13-44.917-100.13-100.13s44.916-100.13 100.13-100.13 100.13 44.917 100.13 100.13-44.917 100.13-100.13 100.13zm0-172.24c-39.766 0-72.118 32.352-72.118 72.118s32.352 72.118 72.118 72.118 72.118-32.352 72.118-72.118-32.352-72.118-72.118-72.118z"/><g id="g12" transform="translate(-131.49 -238.99)"><path id="path8-36" d="m345.32 314.88c-2.692 0-5.413-0.774-7.813-2.392-6.414-4.322-8.111-13.026-3.788-19.44 34.334-50.953 51.741-96.567 51.741-135.58 0-71.384-58.076-129.46-129.46-129.46-27.774 0-54.244 8.66-76.551 25.046-6.235 4.578-14.999 3.236-19.577-2.997-4.579-6.233-3.238-14.999 2.997-19.577 27.147-19.941 59.35-30.481 93.131-30.481 86.83 0 157.47 70.641 157.47 157.47 0 44.686-19.017 95.566-56.523 151.23-2.705 4.015-7.126 6.181-11.627 6.181z"/><path id="path10-3" d="m436.73 387.12h-33.002c-9.488-23.514-43.178-41.672-94.118-49.87-0.735-0.118-1.48-0.178-2.225-0.178-6.523 0-10.104 4.201-11.338 5.649-16.215 19.269-30.925 34.506-40.017 43.54-31.296-31.26-129.49-136.7-129.49-228.79 0-20.293 4.557-39.714 13.547-57.726 3.454-6.92 0.643-15.331-6.277-18.784-6.918-3.451-15.331-0.643-18.784 6.277-10.945 21.93-16.495 45.56-16.495 70.233 0 65.612 41.62 134.35 80.748 184.48-37.99 9.464-63.038 25.421-71.003 45.17h-33c-7.735 0-14.005 6.27-14.005 14.005s6.27 14.005 14.005 14.005h33.073c6.084 14.758 21.886 27.663 46.001 37.206 24.002 9.499 54.713 15.255 87.648 16.53v29.127c0 7.735 6.27 14.005 14.005 14.005s14.005-6.27 14.005-14.005v-29.127c32.933-1.274 63.644-7.03 87.646-16.53 24.115-9.543 39.917-22.449 46.001-37.206h33.073c7.735 0 14.005-6.27 14.005-14.005 0-7.734-6.269-14.006-14.004-14.006zm-89.381 39.173c-24.175 9.568-56.615 14.836-91.345 14.836s-67.17-5.269-91.345-14.836c-22.969-9.09-31.12-19.24-31.12-25.168 0-9.621 20.445-26.236 65.654-34.873 24.053 28.013 43.788 46.526 47.044 49.536 0.139 0.127 0.244 0.225 0.288 0.268 1.004 0.923 2.111 1.674 3.278 2.251 0.134 0.066 0.274 0.118 0.412 0.179 0.258 0.116 0.513 0.238 0.776 0.339 0.199 0.077 0.403 0.133 0.605 0.2 0.204 0.067 0.408 0.146 0.615 0.203 0.267 0.076 0.539 0.129 0.809 0.188 0.146 0.032 0.29 0.074 0.436 0.101 0.307 0.056 0.618 0.092 0.927 0.127 0.112 0.013 0.224 0.036 0.336 0.046 0.303 0.028 0.605 0.034 0.909 0.042 0.122 3e-3 0.242 0.017 0.364 0.017h0.013c0.332 0 0.662-0.021 0.993-0.045 0.088-7e-3 0.178-4e-3 0.266-0.013 0.357-0.032 0.713-0.085 1.067-0.144 0.064-0.011 0.13-0.014 0.196-0.027 0.374-0.069 0.745-0.157 1.115-0.256 0.043-0.011 0.088-0.018 0.132-0.029 0.374-0.104 0.744-0.23 1.111-0.366 0.036-0.014 0.074-0.022 0.111-0.036 1.608-0.612 3.127-1.531 4.467-2.757 0.029-0.028 0.083-0.076 0.154-0.141 7e-3 -7e-3 0.018-0.017 0.027-0.024 0.066-0.06 0.141-0.13 0.237-0.218 0.041-0.036 0.091-0.084 0.136-0.126 0.078-0.073 0.155-0.144 0.249-0.232 0.08-0.074 0.174-0.162 0.265-0.248 0.069-0.064 0.132-0.122 0.206-0.192 0.109-0.102 0.23-0.216 0.353-0.33 0.087-0.083 0.171-0.161 0.265-0.249 0.127-0.12 0.267-0.252 0.408-0.385 0.095-0.091 0.189-0.178 0.29-0.275 0.151-0.143 0.31-0.294 0.473-0.45 0.118-0.112 0.234-0.223 0.357-0.34 0.172-0.164 0.352-0.336 0.536-0.513 0.118-0.113 0.235-0.225 0.359-0.345 0.193-0.185 0.391-0.375 0.595-0.571 0.146-0.14 0.293-0.281 0.443-0.427 0.21-0.203 0.426-0.412 0.647-0.626 0.147-0.143 0.298-0.29 0.451-0.438 0.227-0.22 0.455-0.443 0.693-0.675 0.176-0.172 0.359-0.35 0.542-0.529 0.238-0.232 0.476-0.466 0.724-0.71 0.182-0.179 0.37-0.364 0.557-0.549 0.259-0.255 0.517-0.51 0.784-0.774 0.203-0.2 0.413-0.41 0.622-0.616 0.266-0.265 0.531-0.527 0.807-0.801 0.23-0.228 0.468-0.468 0.703-0.703 0.266-0.266 0.528-0.527 0.8-0.801 0.263-0.265 0.536-0.539 0.807-0.812 0.263-0.266 0.522-0.527 0.794-0.8 0.307-0.31 0.623-0.633 0.937-0.952 0.244-0.248 0.483-0.489 0.731-0.742 0.461-0.469 0.934-0.954 1.41-1.442 0.31-0.318 0.625-0.643 0.941-0.968 0.398-0.41 0.795-0.818 1.203-1.241 0.225-0.234 0.459-0.476 0.688-0.714 0.405-0.42 0.808-0.839 1.221-1.27 0.227-0.237 0.461-0.482 0.69-0.723 0.424-0.444 0.849-0.889 1.283-1.346 0.235-0.248 0.476-0.503 0.714-0.755 0.438-0.464 0.879-0.927 1.326-1.403 0.245-0.259 0.493-0.525 0.741-0.788 0.445-0.475 0.892-0.95 1.344-1.435 0.262-0.28 0.527-0.566 0.791-0.85 0.455-0.489 0.913-0.982 1.377-1.482 0.252-0.273 0.507-0.548 0.76-0.823 0.487-0.528 0.978-1.062 1.473-1.602 0.249-0.272 0.499-0.545 0.749-0.819 0.507-0.555 1.018-1.116 1.533-1.682 0.24-0.263 0.479-0.527 0.72-0.793 0.543-0.601 1.091-1.207 1.643-1.819 0.223-0.246 0.444-0.494 0.667-0.742 0.574-0.64 1.154-1.288 1.737-1.942 0.209-0.234 0.416-0.466 0.626-0.703 0.611-0.688 1.225-1.384 1.843-2.085 0.186-0.211 0.371-0.42 0.557-0.633 0.662-0.753 1.329-1.517 2-2.286 0.146-0.167 0.29-0.332 0.436-0.5 0.745-0.857 1.496-1.724 2.251-2.599 0.071-0.084 0.143-0.165 0.216-0.249 0.154-0.179 0.307-0.354 0.462-0.535 45.217 8.635 65.658 25.263 65.658 34.877-7e-3 5.923-8.157 16.071-31.126 25.163z"/></g></g></g></svg>
