<?xml version="1.0" encoding="UTF-8"?>
<svg id="svg106" width="440pt" height="239pt" version="1.0" viewBox="0 0 440 239" xmlns="http://www.w3.org/2000/svg">
 <metadata id="metadata2">Created by potrace 1.7, written by Peter Selinger
  2001-2005</metadata>
 <g id="g84" transform="matrix(.019945 0 0 -.019945 -50.491 279.02)" fill="#fff" stroke-width=".8505">
  <path id="path80" d="m7578 8086c-17-6-28-17-28-28 0-10-6-18-14-18-7 0-25-9-39-20-15-12-40-20-61-20-23 0-39-5-42-15-4-10-14-13-28-9-41 10-96-72-87-128 0-5-4-8-10-8-13 0-39-25-39-37 0-5-13-17-30-26-21-13-27-23-23-35 4-9-13 4-38 30-38 40-101 78-130 78-5 0-9-13-9-28 0-20 7-33 25-42 13-7 27-22 31-32 3-11 10-15 17-11 8 4 7 1-1-9-15-19-7-61 15-80 8-7 20-24 26-38 14-33 19-207 7-215-7-4-6-13 1-26 11-22-5-89-22-89-5 0-9-6-9-13s-16-19-35-27c-25-10-35-20-35-36 0-12-7-24-15-28-11-4-14-13-10-29 6-21 1-26-39-41-44-17-46-20-46-56 0-24-5-40-15-44-8-3-15-17-15-30 0-15-8-30-20-36-11-6-18-15-15-21 13-20 14-89 2-89-7 0 3-13 21-29 17-16 32-34 32-40s5-11 10-11c6 0 10 5 10 12 0 6 2 9 5 6 8-8-6-38-18-38-6 0-28-19-50-42-35-39-38-47-32-83 3-22 12-47 20-56 17-18 20-39 5-39-26 0-5-31 34-51 33-16 51-35 72-73 15-28 37-64 49-81 12-16 36-64 55-105 18-41 41-87 52-102 10-14 18-33 18-40 0-8 9-23 20-33s20-26 20-36 4-20 9-23c21-13 82-118 77-132-9-24 12-63 61-112 47-48 183-134 241-153 17-6 32-14 32-18s16-16 35-27c19-10 35-22 35-27 0-10 26-37 35-37 18 0 51-46 62-88 29-108 51-342 31-342-4 0-8-11-8-25s3-25 8-25c14 0 26-409 12-444-6-16-4-32 7-52 10-21 13-44 8-80-5-39-1-61 15-98 11-26 20-56 20-67 0-10 5-19 10-19 6 0 11-19 10-42 0-24 0-52 1-63 1-21-7-137-16-220-2-27-5-61-5-74 0-17-4-22-16-17-13 5-15 1-9-21 3-16 13-35 21-44 8-8 14-22 14-29s12-33 26-58c18-31 24-52 20-72-9-46 5-127 26-150 10-11 14-20 7-20s-9-10-5-30c3-16 9-45 12-62 11-59 43-77 64-37 9 15 8 24-1 35-6 8-8 14-4 14s2 7-5 15-9 15-4 15c4 0 3 5-4 12-17 17-15 31 4 24 12-5 15-2 10 9-3 9-2 13 4 10s10-13 10-21 5-14 11-14c5 0 8-4 5-8-3-5-1-24 4-43s11-56 15-83c3-28 11-53 17-57 9-6 7-10-7-15-11-4-23-9-26-10-3-2-5 9-3 24 3 27-9 42-34 42-8 0-10-5-5-12 13-22 12-38-3-38-7 0-18-9-24-19-12-24-13-42-1-22 13 21 51-4 51-34 0-14-5-25-11-25-7 0-9-11-6-30 4-19 1-34-8-44-8-8-12-22-9-30 7-19 31-21 36-5 3 9 10 9 26 0 12-7 27-9 32-6 6 3 7-1 4-9-3-9-2-16 4-16 18 0-3-54-26-66-12-6-19-14-14-18 4-4 7-11 7-14 2-20 18-52 26-52 5 0 8-3 7-7-2-14 19-58 35-72 9-7 19-26 22-42 4-16 11-30 16-30 5-1 15-2 22-3 6 0 15-19 18-41s7-35 8-30c1 6 11-5 23-23 16-26 26-32 43-28 14 4 30-2 46-17 13-12 27-21 31-19 5 1 8-3 8-9 0-11-13-9-55 6-13 5-9-3 14-24 24-23 36-29 41-20 11 16 31 2 23-17-3-8-2-14 3-13 17 4 44-13 44-27 0-9 11-14 30-14 23 0 28 4 23 16-3 9-13 14-24 11s-19-1-19 4c0 19 40 8 51-13 7-13 11-25 10-28s5-9 15-15c10-5 24-16 32-23 17-16 32-16 32 1 0 8 3 7 10-3 5-8 13-15 17-16 4 0 21-6 36-12 16-7 32-10 37-7s11 1 15-5 11-8 16-5c5 4 9 2 9-4s20-10 45-9c25 0 52-5 60-12 9-7 19-10 23-6s-2 14-12 21c-16 13-12 14 39 10 47-3 56-2 51 10-3 9 1 15 10 15 8 0 17 7 20 15 4 8 11 15 16 15 6 0 5-6-2-15-10-12-10-15 4-15 9 0 16 8 16 20 0 16-7 20-35 20-52 0-160 57-219 115-29 29-50 57-48 63s-9 18-23 28c-33 22-85 96-85 123 0 14 8 23 25 27 30 7 39 32 25 69-12 31-7 40 47 88 19 17 30 34 26 41-4 6-9 20-10 30-5 31-23 46-54 46-32 0-95 34-108 59-23 41 16 101 66 101 25 0 39 15 22 26-8 5-7 9 2 14 10 7 9 17-4 50l-16 43 30 28c17 16 37 29 45 29 16 0 18 23 4 50-9 16-18 19-54 14l-44-6-24 53c-14 30-21 56-16 57 5 2 27-3 49-12 47-19 79-20 114-4 26 11 34 41 14 54-7 4-8 20-4 41 5 26 2 40-11 54-17 19-17 20 1 13 13-5 16-4 11 4-5 9 6 12 39 12 107 0 245 50 245 88 0 10 4 22 9 27 35 39 30 125-8 125-20 0-31 18-31 54 0 26-24 50-72 74-18 10-35 26-37 37-3 19-3 19 16 3 11-10 34-18 51-18 18 0 32-4 32-9 0-13 47-24 115-26 83-4 120 18 131 74 4 17 9 31 13 31 12 0 38 54 45 91 4 23 19 46 41 66 25 22 33 36 28 49-6 15-7 15-14-5-8-20-35-38-44-29-3 2 6 20 20 38 14 19 25 44 25 55 0 13 6 22 16 22 11 0 14-7 11-23-2-13 2-25 9-28 9-3 17 9 25 37 26 94 32 108 60 138 39 41 52 107 34 160-13 36-17 149-6 146 8-2 91 83 91 93 0 5 14 11 30 15 17 4 30 11 30 17s13 8 35 4 35-3 35 4c0 5-5 10-11 10-5 0-8 4-5 9 11 17 136 52 189 52 51 1 55 3 60 28 4 15 19 33 38 44 25 14 30 22 25 40-5 20 13 67 70 178 9 17 11 43 8 76-5 39-3 53 12 67 17 17 29 99 26 181 0 17-2 75-4 130-4 95 3 125 28 125 11 0 33 31 55 80 35 79 43 92 67 114 31 29 110 139 122 170 23 60 22 132-3 220-14 48-28 90-31 93-4 4-33 10-65 14-64 7-65 8-146 86-30 28-79 66-110 83-50 29-59 31-99 22-32-7-50-5-70 5-15 8-31 11-37 8-5-4-21 0-34 9-30 20-89 31-80 15 5-8 0-9-16-4-29 10-47 27-42 41 2 7-3 19-12 27-8 9-15 20-15 26s-4 11-10 11c-5 0-10-4-10-10 0-11-71 19-82 35-4 6-8 6-8 1s-6-3-14 3c-14 11-39 19-83 26-27 4-62-20-74-52-16-42-19-21-4 22 20 58 19 62-22 68-23 4-43 15-51 27-7 11-18 20-26 20-14 0-14 14 0 72 4 20 0 35-17 57-13 16-29 30-34 30-12 1-35 78-35 119 0 23-39 91-40 70 0-4-25 17-57 47-31 30-61 55-68 55s-26 7-44 16c-36 18-152 28-161 14-11-18-85 11-128 51-24 21-48 39-53 39s-9 10-9 23c-1 12-9 32-19 44-28 34-110 81-130 76-22-6-37 13-24 30 15 20 9 41-14 52-13 5-23 13-23 17 0 5-8 8-18 8s-24 6-30 12c-10 10-15 10-22-2-6-9-10-10-10-3 0 6-3 18-6 27-4 10-1 16 8 16 8 0 23 7 34 15 17 15 11 15-76 11-52-3-98-6-102-6-5 0-8-6-8-13 0-8-11-19-24-26-30-16-96 2-96 26 0 13-12 14-85 8l-85-7v26c0 29-48 66-87 66-17 0-23 6-23 23 0 29-7 37-26 30-8-3-14-19-14-39 0-28-4-35-27-40-16-4-41-16-57-27-25-18-29-18-23-4 3 9 2 17-3 17-6 0-10 9-10 20 0 12 7 20 16 20 18 0 43 27 44 47 0 20-33 31-62 19zm42-236c0-24-16-50-30-50-4 0-13 17-20 39-11 34-10 41 6 60l18 21 13-23c7-12 12-33 13-47zm187-2193c14-16 19-28 13-37-7-12-10-11-16 3-3 9-12 17-19 17s-15 9-18 20c-7 27 13 25 40-3zm1933-647c0-5-2-10-4-10-3 0-8 5-11 10-3 6-1 10 4 10 6 0 11-4 11-10zm-373-652c-3-8-6-5-6 6-1 11 2 17 5 13 3-3 4-12 1-19zm-722-1038c3-5-3-10-14-10-12 0-21 5-21 10 0 6 6 10 14 10s18-4 21-10zm-541-165c-4-8-10-12-15-9-11 6-2 24 11 24 5 0 7-7 4-15zm-19-36c10-30 0-33-13-4-6 14-7 25-2 25s12-9 15-21zm45-33c0-2-7-6-15-10-8-3-15-1-15 4 0 6 7 10 15 10s15-2 15-4zm450-636c0-24 17-34 55-32 29 2 29 1 7-11-12-7-19-17-15-23 5-5-1 0-11 11-14 15-20 17-24 7-2-9-9-4-18 13-16 32-19 69-4 60 6-3 10-15 10-25zm-65 1c-3-6-14-11-23-11-13 0-13 2 4 14 21 15 30 14 19-3z"/>
  <path id="path82" d="m9195 2601c-11-5-27-6-35-3-12 4-13 2-2-9 17-18 15-40-3-33-28 11-15-15 14-31 29-15 30-14 62 23 17 21 28 28 24 17-18-48-18-55 1-55 11 0 41 13 67 29 43 25 46 29 31 42-9 8-38 15-63 16-25 0-53 4-61 6-8 3-24 2-35-2z"/>
 </g>
</svg>
