<?xml version="1.0" encoding="UTF-8"?>
<svg id="svg106" width="440pt" height="239pt" version="1.0" viewBox="0 0 440 239" xmlns="http://www.w3.org/2000/svg">
 <metadata id="metadata2">Created by potrace 1.7, written by Peter Selinger
  2001-2005</metadata>
 <g id="g104" transform="matrix(.019945 0 0 -.019945 -50.491 279.02)" fill="#fff" stroke-width=".8505">
  <path id="path86" d="m11660 13759c-74-4-196-10-270-13s-148-9-165-13c-16-3-41-5-55-4l-25 3 25-21c20-16 22-20 8-21-9 0-20 5-24 11-3 6-15 9-25 6-11-3-26 1-33 9-17 16-30 19-21 4 4-6-9-10-30-10-30 0-36-3-31-16s2-15-16-9c-56 16-92 16-105-1-12-17-13-17-13 1 0 17-8 18-113 12-62-4-142-9-177-12-36-3-59-3-52 1 24 12 11 24-26 24-21 0-43 5-50 12-8 8-110 12-354 13-349 2-462-4-533-28-28-10-51-11-82-5-28 6-61 6-96-2-30-6-90-13-133-15-115-6-184-16-184-26 0-5 9-9 20-9s20-6 20-14c0-7 15-18 33-24 22-7 26-10 12-11-12-1-27-7-34-13-10-11-12-10-9 1 2 8-7 15-21 17-14 3-33 13-43 24-14 15-32 20-68 20-27 0-52-4-55-10-3-5-22-10-41-10s-34-4-34-10c0-5-10-10-22-11-13 0-43-8-68-18-35-15-44-23-44-42-1-19 6-25 29-28 22-2 25-5 13-10-16-6-16-8 2-31 18-24 22-25 152-26 135-1 204-14 164-30-13-5-21-3-24 4-4 12-78 17-105 6-9-3-13-13-9-26 4-18 2-20-16-15-12 3-47-1-77-8s-56-10-59-8c-8 8-46-8-46-18 0-6 5-7 12-3 7 5 8 3 4-5-6-9-12-8-26 4-14 13-29 15-63 10-29-4-47-3-51 4-4 6-18 11-31 11s-26 4-29 9c-6 10-98 2-106-9-3-4-12-10-20-13-12-4-12-6 2-6 17-1 36-46 25-57-2-3-36-7-73-9l-69-5 29 26c26 24 26 28 12 43-13 13-20 13-36 3-24-15-33-15-25-2 9 15-60 12-121-6-34-10-54-21-54-30 0-8-5-12-10-9-6 4-8 10-5 15 8 13-42 40-61 33-24-9-57-43-42-43 6 0 8-3 5-7-13-12 29-32 69-33 34 0 42-3 40-17-1-16 8-18 73-15 55 2 77 7 86 19 8 11 18 14 31 8 13-5 15-9 6-12-10-4-8-9 5-19 11-8 13-13 6-14-18 0-16-20 2-20 8 0 15 4 15 9 0 4 22 6 49 3 44-4 53-1 77 23 22 22 24 29 13 37-11 7-11 11-1 15 6 2 12 11 12 19 0 21 86 19 94-2 4-9 5-18 4-18-2-1-15-7-29-13-24-10-47-51-31-54 31-6 81-9 235-15 128-5 181-3 191 5 11 9 16 9 21 0 8-12 117-6 175 11 32 9 60 32 60 49 0 31-138 38-274 15-44-7-83-11-88-8s-29 7-54 8c-45 3-89 26-48 26 12 0 24 3 28 8 4 4 65 8 134 8 70 1 154 2 187 3s69 2 80 1c20-1 20-1 0-11-14-6-2-8 40-4 44 3 54 2 38-5-30-12-29-20 3-20 17 0 28 6 31 20 3 12 14 20 28 20 37 0 85 21 85 37 0 11-7 14-26 9-17-5-23-3-19 4 3 5 16 10 28 10s36 7 52 16c17 9 53 18 80 20 70 6 92 14 74 25-9 6-3 7 17 3 19-4 34-1 38 5s15 11 25 11 28 11 40 24c23 24 49 31 160 42 30 2 69 12 87 20 18 9 38 17 46 18 209 38 266 51 255 58-6 4 5 5 25 1 21-3 43-1 50 5 14 10 158 36 165 28 2-2-3-11-12-20-11-11-35-16-73-16-76-1-284-42-290-58-2-8 10-12 42-12 25 0 46-4 46-10 0-19-47-33-140-41-146-12-303-36-333-52l-27-14 26-11c14-7 33-12 44-12 10 0 21-4 24-8 2-4-20-7-50-6s-57-2-60-7 6-9 20-9c17 0 24-4 20-13-9-23 70-69 128-75 35-3 49-1 44 6-4 7 3 8 25 2 18-5 35-7 40-4 24 15 170 11 243-7 79-19 104-29 73-29-23 0-11-27 16-34 21-6 21-7 4-20-18-14-18-14 0-19 14-4 13-5-5-6-13 0-21-5-17-11 3-5 13-7 23-4 11 4 9-2-8-17l-25-22 23 6c23 5 23 5 6-14-16-17-16-22-4-29 12-8 10-10-7-10-25 0-31-15-10-24 8-3 3-13-16-28-24-21-26-26-14-43 11-14 22-17 50-12 20 3 39 2 42-4 3-5-1-6-9-3-9 3-16 1-16-5s9-11 21-11c14 0 19 6 17 18-1 9 2 17 7 17s9-6 7-12c-2-8 7-13 20-13 17 0 24-6 25-20 2-21-11-27-22-10-8 13-122 13-129 1-4-5 0-12 6-15 7-3 0-4-15-1-16 3-26 2-23-3s-3-21-14-34l-19-25 32-18c29-15 38-15 86-3 62 15 73 29 35 47-15 6-24 15-20 18 3 4 12 1 18-5 7-7 22-12 34-12 28 0 29-32 2-72-17-25-23-26-66-21-45 5-50 3-74-26-15-17-29-31-33-31-11 0-55-53-55-66 0-8 8-14 18-15 13 0 12-2-5-9-25-10-48-46-34-54 5-3 7-16 3-28-4-17-2-20 13-15 13 5 16 3 11-8-3-8-2-15 3-15s3-17-4-37c-11-33-11-39 2-47 11-6 12-10 4-15-15-9 3-61 20-61 7 0 9-11 6-30-4-16-3-30 2-30 4 0 13-18 20-39 6-21 18-42 26-45s15-15 15-26c0-22 12-25 38-11 24 12 112-15 112-35 0-8 8-17 18-20 9-3 27-10 39-16 28-14 75 2 88 30 5 12 15 22 22 22 6 0 14 9 18 20 3 10 21 34 39 52s36 46 40 61c4 17 17 32 32 37 13 5 37 21 52 35s35 28 45 31c9 3 17 12 17 19 0 8 10 23 21 34 14 13 20 27 16 40-3 11-2 19 2 18 13-4 71 26 65 34-3 5 16 9 41 9 34 0 44 3 39 13-6 9-4 9 7 1 21-16 69-26 69-14 0 5 7 10 15 10s15 5 15 11c0 5 5 7 10 4 6-4 16-3 23 2s37 17 67 27c33 11 75 35 105 62 28 24 62 46 77 50 16 3 32 13 38 22 8 14 11 15 19 3 6-10 21-12 53-7 144 22 293 55 336 76 23 11 45 20 49 20 5 0 39 13 76 29l68 28-58 7c-81 9-153 23-125 25 18 1 23 6 20 24-2 18 2 22 26 22 21 0 30-5 32-18 1-11 5-22 9-25 9-10 114-19 126-11 6 4 13 26 14 50 2 41 0 44-34 61-30 14-32 16-8 11 32-6 66 15 45 28-10 7-8 9 5 9s17 5 12 19c-6 20 16 31 66 31 41 0 66 34 32 43-13 3-11 5 7 7 14 1 29 2 34 1 15-3 90 32 102 48 6 8 18 11 27 8s19-2 22 3c4 6-1 10-10 10s-13 5-10 10c4 6-6 10-23 10-29 0-48-22-36-41 6-10-39-13-49-2-4 3 2 13 13 20 28 20 23 70-8 91-29 19-15 29 32 24 26-3 33-8 29-20-4-9-2-13 4-9 7 5 9 0 6-13-8-31 7-23 18 10 6 17 18 30 26 30s13 7 11 18c-2 12-14 17-41 19-21 0-41 4-45 8-4 5 3 6 14 3 12-3 28-2 35 3 10 6 6 10-13 18-14 5-29 15-33 21-5 8-11 8-21-1-24-20-29 0-5 20 18 16 32 19 64 14 34-4 39-3 34 11-4 11-1 16 11 17 14 0 14 2-3 9-25 10-11 16 54 23 24 3 47 10 50 15 3 6 23 13 43 17 21 4 35 11 32 16s11 9 30 9 37 4 40 8c3 5 37 14 76 21 101 18 77 32-64 39-83 3-120 1-130-7-17-14-60-5-51 10 4 5-1 9-9 9-9 0-15-5-13-12 1-6-6-14-16-16s-16 2-15 9c2 7-6 15-17 17s-17 1-12-4c4-4-14-16-40-26-57-22-63-22-38-5 10 8 15 19 11 26-4 6 0 13 8 16 9 3 23 7 32 10 27 9 13 13-60 20-38 4-86 13-106 20-48 17-361 25-540 14zm-393-74c0-17 0-17-23-8-16 6-16 7 2 14 10 4 19 8 20 8 0 1 1-6 1-14zm963-5c-8-5-24-9-35-9-16 1-16 2 5 9 35 11 48 11 30 0zm-3023-16c-3-3-12-4-19-1-8 3-5 6 6 6 11 1 17-2 13-5zm50-72c-24-2-42-10-50-23-16-26-25-24-20 5 5 27 35 36 83 26 20-4 18-6-13-8zm158 8c3-5-2-10-11-10-16 0-16-1 2-15s17-14-8-4c-22 10-25 15-17 26 14 16 26 17 34 3zm-165-67c0-9-3-12-7-7-5 5-12 12-18 16s-2 8 8 8c9 0 17-7 17-17zm-20-17c0-3-4-8-10-11-5-3-10-1-10 4 0 6 5 11 10 11 6 0 10-2 10-4zm-190-41c-7-8-17-15-23-15s-2 7 9 15c25 19 30 19 14 0zm973-62c-7-2-19-2-25 0-7 3-2 5 12 5s19-2 13-5zm-150-10c-7-2-19-2-25 0-7 3-2 5 12 5s19-2 13-5zm-1648-64c11-17-1-21-15-4-8 9-8 15-2 15s14-5 17-11zm-158-15c-3-3-12-4-19-1-8 3-5 6 6 6 11 1 17-2 13-5zm3958-174c3-5 1-10-4-10-6 0-11 5-11 10 0 6 2 10 4 10 3 0 8-4 11-10zm-22-30c-29-12-30-37-2-45 27-9 20-16-9-8-13 3-22 13-22 24 0 10-8 23-17 28-14 8-8 10 27 10 37 0 41-2 23-9zm90 3c-7-2-21-2-30 0-10 3-4 5 12 5 17 0 24-2 18-5zm4-19c-3-3-12-4-19-1-8 3-5 6 6 6 11 1 17-2 13-5zm-1882-632c-3-3-11 0-18 7-9 10-8 11 6 5 10-3 15-9 12-12z"/>
  <path id="path88" d="m8270 13531c-25-3-45-11-45-18s-9-19-20-27-18-17-15-20 39-7 79-10c40-2 78-9 84-15s28-11 48-11c32 0 40 5 52 30 15 29 15 30-16 44-18 8-43 16-57 19s-34 7-45 10c-11 2-40 2-65-2z"/>
  <path id="path90" d="m7853 13486c-78-12-106-26-52-26 19 0 39-4 45-8 7-4-19-7-57-7-51 0-72-4-79-15-14-23 16-33 82-26 61 6 111 29 86 39-7 3 2 3 21 0 24-4 32-3 27 5s1 12 16 12c13 0 30 5 38 10 13 9 13 11 0 20-18 11-32 11-127-4z"/>
  <path id="path92" d="m7430 13411c-66-6-114-17-226-52-17-5-42-9-56-9s-39-5-57-11c-38-14-43-38-5-31 16 3 29-1 34-9 7-11 13-10 29 5 14 13 21 15 21 6s9-11 32-6c30 6 31 5 13-8-19-15-19-15 7-16 15 0 38 4 52 10 14 5 26 7 26 5 0-3-12-10-27-16-24-9-26-12-11-20 9-5 36-11 60-13 26-2 42-7 40-15-6-28 50-32 172-12 67 11 162 22 211 25 73 4 101 10 143 32 62 32 56 49-14 45l-47-2 16 24c15 24 13 37-5 37-5 0-6-5-2-12s3-8-5-4c-6 4-28 2-49-4-72-22-68-20-52-30 12-8 10-10-7-10-27 0-31-17-5-23 9-3-9-5-41-6-32 0-56 3-53 8 12 19-33 41-95 48-63 6-64 7-34 19 17 7 26 14 20 15-5 1 3 4 19 8 17 3 30 11 30 16 1 13-38 14-134 6zm-21-92 46-8-47 3c-25 2-52 0-60-5-10-7-8-9 7-10 11 0 15-3 9-5-6-3-22 0-35 5-17 7-19 10-6 10 9 1 17 6 17 12 0 7-12 8-32 4-33-6-33-6-8 8 17 9 31 11 44 4 10-5 39-13 65-18zm36 21c-3-5-15-10-26-10s-17 5-14 10c3 6 15 10 26 10s17-4 14-10zm-10-90c4-6-7-10-27-9-31 1-32 1-8 9 14 4 26 8 27 9s5-3 8-9z"/>
  <path id="path94" d="m6827 13213c-17-3-32-14-39-29-6-13-17-24-23-24-7 0-33-11-59-25s-52-25-58-25-19-6-27-14c-9-7-37-21-63-31s-45-21-42-26c2-4 10-6 17-4 19 7 50-22 43-40-9-23 15-28 65-12 24 8 62 15 83 16 22 1 51 10 65 20 34 24 149 62 156 51 3-4-10-11-28-14-17-4-41-13-51-21-19-15-19-15-1-28 17-13 16-15-13-25-37-13-38-15-16-36 13-14 31-15 107-10 103 8 101 8 141 6 16-1 27-5 23-8-3-3-57-7-119-9-150-3-198-12-198-36 0-33 28-49 88-49 43 0 53-3 44-12-7-7-12-19-12-28 0-15 12-16 88-14 48 2 110 8 137 14 28 6 70 13 95 15l45 4-40-8c-82-17-101-30-95-70 1-10-7-12-37-6-41 7-50 12-41 21 4 3 15 1 26-5 24-13 36-3 17 15-11 11-20 12-42 3-56-22-182-31-217-15-14 7-17 6-12-2 5-9-6-12-39-10-53 2-42 14 23 24 52 8 62 22 33 45-16 13-38 18-79 17-31-1-79 6-105 15s-54 17-61 17c-8 0-19 7-26 15-17 20-98 20-138-1-18-8-41-13-52-9-21 7-28 25-10 25 6 0 10-4 10-10 0-5 5-10 11-10 5 0 8 4 5 9s1 11 9 15c8 3 15 10 15 16 0 12-48 3-70-14-14-12-66-36-76-36-2 0-1 18 2 40 5 32 3 41-11 46-9 4-20 2-25-5-10-17-58-41-81-41-13 0-17 5-12 17 5 13 3 15-13 9-10-5-28-10-39-11-68-10-189-36-203-45-13-8-10-9 13-5 26 5 27 5 11-5-14-10-24-9-45 1-28 14-121 19-121 7 0-5-9-8-19-8-11 0-27-8-36-17-29-29-141-12-129 20 3 9-10 13-48 15-69 3-108 11-108 24 0 5-30 9-72 8-40 0-102 4-138 10s-103 14-150 18c-63 5-84 10-82 20 2 11-10 13-53 10-39-2-56 1-60 11-3 7-12 11-20 7-8-3-18 1-23 10-7 12-16 11-67-7-33-11-89-22-125-24s-92-10-125-19c-32-9-73-16-91-16-35 0-111-25-195-64-34-16-91-31-140-37-46-6-97-17-112-25-16-8-37-14-48-14-25 0-24-17 1-25 27-9 46-43 31-58-17-17-13-27 9-27 14 0 18-5 13-17-9-25-43-53-62-52-28 2-77 17-60 18 9 0 22 8 29 16 16 20 5 20-85-1-86-19-134-30-205-44-61-13-82-26-57-36 15-6 15-9-3-34-27-37-16-43 73-42 39 1 76-3 82-8 8-7 24-5 48 5 42 17 71 20 47 5-12-8-12-10-1-10 21 0-35-49-64-56-14-3-41-3-60 0-20 4-35 3-35-3 0-16-62-32-98-25-34 7-60-2-114-38-14-10-33-18-42-18-16 0-87-30-96-41-3-3-18-9-33-13-28-7-53-48-41-67 3-5-6-13-19-18-21-8-25-16-24-45 1-32 4-36 26-36 15 0 43 4 63 9 34 8 37 7 28-9-6-10-19-21-29-25-11-3-26-17-35-30-9-14-24-25-33-25-12 0-14-3-6-11s17-8 33 1c15 8 20 8 16 1-10-15 0-14 34 4 35 18 84 10 76-11-7-19 24-18 38 2 9 11 18 13 36 6 24-9 24-9-20-42-25-18-65-41-90-52s-54-23-65-28-54-20-95-33c-91-30-130-47-130-59 0-5-9-4-19 1-19 11-51 2-166-42-67-26-79-29-117-33-48-5-123-43-110-56 6-6 17-6 30 1 11 6 33 11 49 11 15 0 41 7 58 16 16 8 39 13 50 10s29 2 39 9c10 8 22 12 27 10 4-3 10-1 14 5 11 19 56 11 62-10 6-23 14-25 31-8 8 8 15 8 26-1 12-10 17-8 26 8 9 17 8 21-5 21-8 0-15 7-15 16 0 12 6 15 25 10 16-4 34 0 50 10 13 8 29 13 34 9 12-7 78 21 99 42 8 7 18 11 23 8 5-4 9-1 9 5s12 8 31 5c18-3 28-2 25 4-3 5 12 12 34 16s50 14 62 24c19 14 46 25 118 46 3 1 18 7 33 13 16 7 36 12 45 12s35 11 57 25c22 13 50 25 61 25 30 0 53 28 33 41-11 7-10 9 6 10 11 1 25 1 31 0 7-1 14 5 18 14 3 8 17 15 31 15s25 5 25 10c0 6 8 10 18 10s26 6 37 13c28 19 55 28 55 18 0-4-12-13-26-19-14-7-22-17-19-22 4-6-7-15-24-21s-31-15-31-20c0-16 53-9 123 15 37 13 67 22 67 19s6-1 13 5c15 13 76 17 99 7 11-4 35 2 63 15 41 20 59 40 35 40-5 0-10-4-10-10 0-5-4-10-9-10s-8 8-6 18c1 11 10 16 24 15 11-2 21 2 21 7 0 6 11 10 25 10 29 0 30-22 1-30-11-3-21-11-23-17-3-9 5-9 30-1 24 7 43 7 63 0 28-10 28-11 7-17-13-4-23-12-23-17 0-6 7-7 18-2 9 4 49 9 88 12 54 3 79 0 104-13 20-10 42-14 59-11 17 5 22 4 12-3-11-7-9-13 12-31 14-12 28-33 31-46 4-13 11-24 16-24 16 0-2-74-24-99-14-16-16-22-6-19 11 4 15-1 15-17 0-13-3-21-7-18-5 2-8-3-8-11 0-23 16-20 34 6 9 12 18 19 21 16s-8-17-25-31c-36-31-37-37-7-38h22l-22-9c-19-8-22-16-19-42 3-28 7-33 33-35 20-2 37 4 48 17 17 19 19 19 31 2 12-16 13-15 24 8l10 25-5-27c-3-15-1-30 5-33 5-3 10-12 10-18 0-8-3-7-9 2-7 11-11 10-19-5-6-10-14-16-17-12-10 10-38-19-30-31 3-5 1-12-5-16-15-10-12-22 12-45 12-11 16-20 9-20s-11-9-9-22 9-22 17-20c9 2 7-8-7-32-14-23-17-38-10-42s6-9-2-14c-10-6-5-15 16-36 21-20 24-25 9-19-26 10-44 10-72 1-14-4-23-3-23 3 0 5 10 12 23 14 19 3 19 4-3 3-21-1-25-6-23-28 1-16-3-28-10-28s-1-6 13-13 26-18 26-25c1-7 2-16 3-21 0-5 10-13 21-16 11-4 18-11 15-16-4-5 1-12 9-15 9-3 13-10 10-15s1-9 8-9 21-7 32-15c17-13 17-14-9-12-30 2-34-3-59-81-17-52-74-158-99-184-7-7-24-29-37-48s-42-54-64-78c-55-59-73-89-91-147-8-27-32-72-54-98-34-40-38-51-29-67 9-14 7-26-6-55-15-30-16-42-7-62 7-14 9-33 6-43s-1-21 4-24c5-4 7-22 4-42-4-25-2-39 8-45 12-8 12-10 0-18-13-8-13-18-1-68 8-32 14-74 14-93 1-33 3-35 39-38 24-2 37-8 37-18 0-12 19-19 44-15 5 1 6-5 3-14-4-9-1-15 7-15 25 0 45-35 45-80 0-44 8-165 11-165 1 0 3-24 5-54 3-39 9-57 24-67 11-8 29-30 41-49 21-33 21-37 6-60-16-25-25-29-58-26-10 1-18-1-18-6 0-17 82-103 92-97 12 8 78-61 78-80 0-8-7-27-15-42-8-16-15-36-15-44 0-20 19-40 38-40 23 0 92-80 92-107 0-16 4-23 13-19 6 3 20 9 31 12 15 6 17 14 12 43-3 20-6 44-6 54 0 9-5 17-11 17-5 0-7-6-4-12 4-7-2-2-13 11-19 23-20 23-25 5-3-14-5-12-6 8 0 15 4 30 9 33 15 9 12 25-4 25-15 0-28 58-14 66 4 3 8 10 8 15 0 6-4 7-10 4s-10 5-10 18c0 25-38 109-52 115-12 6-9 57 4 70 6 6 8 15 4 19s-11 1-16-7c-8-12-10-10-10 7 0 12-4 25-10 28-5 3-10 11-10 18 0 6 7 2 16-9 15-18 15-18 9 11-8 37-14 43-24 26-6-9-13-4-28 19-18 28-18 36-7 91 14 70 17 74 41 64 10-5 22-7 26-6 14 3 50-38 45-51-3-7-2-38 2-68 5-39 4-63-6-81-12-25-10-39 7-39 4 0 5 10 2 23s3 8 13-13c10-19 24-41 31-48s13-17 13-22 8-11 19-15c13-4 17-12 13-31-3-20 0-26 17-31 11-3 21-13 21-23s10-20 22-23c20-6 20-7 5-31-10-14-17-31-17-37 0-13 38-49 52-49 5 0 14-12 21-27 6-16 23-39 38-53 14-14 34-41 44-60 9-19 28-49 40-66 22-28 26-50 26-134 0-62-2-70-17-70-21 0-17-44 9-83 12-19 38-43 57-53s39-29 44-41c9-20 67-46 102-46 9 0 30-14 48-32 30-31 133-85 161-85 7 0 20-6 27-12 21-20 74-48 91-48 8 0 27-6 42-14 29-15 59-10 117 18 17 9 39 16 48 16 41 0 91-32 129-83 62-83 92-107 147-116 27-4 58-12 69-18 57-30 96-41 139-38 37 2 44 0 32-9-14-9-11-17 22-53 91-104 109-138 89-171-13-20 2-50 33-66 27-13 31-13 40 2 9 16 9 16 10 0 0-9 15-24 34-33 35-17 52-40 36-50-12-7-1-35 13-35 6 0 21-10 34-22 21-19 23-20 23-4 0 12 5 16 16 12 9-3 24-6 34-6 21 0 35-29 20-44-14-14-12-26 5-26 9 0 12 6 9 15-9 24 22 8 40-21 16-23 17-23 51-7 38 18 42 29 20 59-20 26-19 27 15 42 17 8 30 20 30 27s7 15 15 19c14 5 22 66 9 66-3 0-35-16-70-35-72-40-80-41-106-18-13 11-18 12-18 3 0-10-3-10-14 0-8 6-13 17-10 24s-7 18-21 24-25 18-25 27c0 8-5 15-10 15-6 0-15 12-20 28-6 15-15 37-21 48-8 16-8 27 0 42 6 11 11 32 11 46s5 26 10 26c6 0 10 24 10 53 0 33 7 66 19 88 11 20 17 46 15 57-3 11-1 23 6 27s1 15-17 31c-15 13-35 31-44 39-20 19-139 36-156 23-14-11-97-13-113-3-6 4-17 1-25-5-12-10-18-10-30 0-8 6-20 8-27 4s0 6 15 23c16 17 30 46 34 69 3 21 10 45 16 52 5 6 7 12 4 12s5 11 18 25c14 13 25 31 25 39s5 27 12 43c6 15 12 36 12 45 1 9 4 20 9 24 4 4 7 15 7 24 0 10 7 23 15 30 13 11 14 10 9-4-9-23 9-20 24 4 8 13 8 20 2 20-7 0-7 7 0 21 7 11 9 31 6 44-6 22-10 23-68 20-35-1-93-10-129-19-52-14-69-22-78-42-6-14-11-30-11-35 0-6-11-34-24-62-24-54-68-86-126-93-54-6-130-23-150-34-18-10-25-8-46 13-13 14-37 27-52 30-27 6-43 30-57 92-3 17-14 38-23 48s-17 37-18 60-6 53-11 67c-6 14-9 34-7 45 16 99 54 213 84 255 14 20 22 49 25 91 6 91 28 118 159 196 146 88 198 107 223 82 5-5 33-11 62-11 35-1 51-6 51-15 0-7 6-14 13-15 42-5 73-3 79 6 7 11 40 18 34 8-2-4-1-15 3-25 6-16 8-16 26-2 20 15 20 15-3 33-22 17-22 18-3 34 10 8 20 21 23 28 6 19 216 22 246 4 12-8 22-21 22-28 0-25 33-28 62-6 34 25 58 23 74-8 6-12 18-30 27-40 21-23 21-45 2-81-7-15-13-39-11-52 7-61 19-109 27-109 5 0 9-7 9-15s9-23 20-32c11-10 20-30 20-45 0-21 4-26 16-21 9 3 20 0 25-8 8-12 11-12 18 1 5 8 10 20 11 25 0 6 7 19 14 30 27 44 36 99 25 163-5 35-7 67-4 72 3 4-2 37-11 71-32 126 23 236 151 299 16 8 48 34 71 58 27 28 49 42 67 42 14 0 29 5 32 10 13 20 85 60 109 60 30 0 56 28 37 39-9 6 0 15 28 28 38 19 40 19 30 2-5-11-17-19-27-20-9 0-12-3-5-5 7-3 21 0 32 6 18 9 21 20 21 78 0 38-5 73-10 78-8 8-7 20 1 40 6 16 13 38 15 48 6 34 21 38 19 6-1-17-7-36-13-42-7-7-12-21-12-32 0-19 3-17 24 9 13 16 22 34 19 39-4 5-1 6 5 2 7-4 23 5 38 21 20 22 25 35 21 60-3 18-1 35 4 38 5 4 9-1 9-9 0-23 6-20 54 19 23 19 48 50 55 69 13 31 20 35 70 45 70 15 126 39 96 41-11 1 1 8 28 15 26 7 56 11 66 8s22 0 25 6c4 6 15 11 26 11 21 0 35 29 20 44-7 7-10 5-10-7 0-24-19-21-29 6-7 15-5 25 5 33 8 6 14 18 14 26 0 30 65 74 150 103 47 16 95 35 107 42 12 8 35 15 52 15 29 1 45 17 19 19-18 1 23 16 58 22 16 3 41 10 56 16 16 6 30 7 33 1 3-5-25-24-61-42-58-28-68-37-70-62-2-16 3-35 11-42 16-16 45-19 45-4 0 6 9 10 20 10s20 4 20 9c0 14 78 63 89 56 6-3 16-3 23 1 22 14 172 63 177 59 2-3 10 4 18 15s21 20 30 20c22 0 73 32 73 47 0 7-7 13-15 13-18 0-19 4-3 30 10 15 10 22 0 32-9 9-25-2-72-50-33-34-60-58-60-52s-9 6-22 1c-27-9-111 6-103 19 7 11 55 9 55-2 0-4 9-8 20-8s20 4 20 10c0 5 12 16 28 24 27 15 26 15-28 16-64 0-83 9-74 35 5 13 3 16-7 13-8-3-13-10-12-16 2-6-4-9-12-6-19 8-19-10 0-30 20-20 19-25-5-19-21 6-32 34-27 67 2 11 19 35 38 53l34 34-27-6c-41-10-34 3 12 21 80 32 58 90-33 87-61-2-193-43-253-78-56-33-62-32-22 4 39 33 113 71 141 71 11 0 32 13 47 29 14 17 38 35 54 41 17 6 111 10 238 9 126-1 213 3 217 9 3 5 16 12 29 16 12 4 34 18 50 30 33 27 84 46 126 46h31l-45-44c-72-69-120-123-120-135 0-6-7-11-15-11-9 0-18-7-21-15-4-8-10-12-15-9-9 5-39-18-39-31 0-3 10-4 23 0 12 3 3-6-21-21-70-43-55-54 83-59 255-11 235-8 219-26-17-18-18-39-3-39 5 0 8 4 4 9-3 5-1 13 5 16 6 4 10 3 9-2-5-30 2-40 26-35 38 7 98 102 65 102-5 0-10-4-10-10 0-5-4-10-8-10-5 0-9 7-9 15s4 12 8 10c3-3 12 2 19 10 10 12 9 15-4 15-9 0-24-9-33-20-10-11-22-20-27-20s1 11 13 24c17 18 19 25 9 29-7 3 0 4 17 4 20-2 30 3 33 15 2 12-2 15-17 11-25-6-30 21-6 31 22 8 18 25-7 36-13 5-17 9-10 9 7 1 10 6 6 13-5 7-11 5-21-7-7-11-13-13-13-7 0 7-7 12-15 12s-15-3-15-8c0-4-13-8-29-8-21-1-28 2-24 12 3 8 11 14 19 14 27 0 14 18-18 24l-33 7 34 29c23 19 37 26 42 19 9-16 21 5 13 25-3 9-2 16 4 16 5 0 12 7 16 15 4 11-2 15-22 15-19 0-23-3-14-9 9-5 3-8-17-7-17 1-31 2-31 3 0 2 20 12 45 24 42 20 49 28 61 81 16 64 13 77-18 83-34 8-54 45-32 58 23 13-13 42-48 38-18-1-28 2-26 10 3 14-46 30-70 22-10-3-13-1-7 4 19 15 16 35-9 58-24 22-24 24-7 30 19 6 26 50 10 61-5 3-2 16 7 29 14 22 14 24-4 34-14 7-20 21-20 44 0 19-7 47-15 63-8 17-13 47-10 72 2 23 1 42-3 42-12 0-35-30-29-40 3-5 0-7-8-4s-39-19-72-51c-32-30-64-55-70-55s-30-9-54-21c-36-17-45-18-59-7-36 29-53 50-55 67-1 20 29 87 43 96 6 4 8 11 4 16-3 5-2 8 3 7 4-2 8 1 8 6 0 6-13 11-30 13-16 1-41 5-53 8-20 5-22 8-11 21 10 13 10 17-2 24-29 18-63 46-78 63-9 9-21 17-28 17-17 0-17-20 0-20 6 0 4-5-6-11-18-11-34-9-153 13-58 10-62 10-83-11-12-12-24-33-25-46-3-32-24-55-63-72-40-16-43-26-7-17 24 6 26 5 19-17-5-13-8-30-8-36 0-7-3-13-7-13s-27-16-51-35-48-35-52-35c-10 0-37-26-37-34 0-3 4-6 10-6 18 0 60-43 60-62 0-25-37-102-58-121-38-34-155-89-212-99l-60-10 5-44c3-26 1-44-5-44-5 0-10-11-10-24 0-14-4-27-8-30-4-2-9-19-10-38-2-23-12-40-32-56-17-13-28-28-25-33 4-5 2-9-4-9-5 0-11 6-14 13-3 8-12 5-30-12-27-25-47-21-47 9 0 10-8 25-17 32-10 7-19 20-19 28-1 8-5 23-9 32-6 15-3 16 22 9 57-17 58-17 58 9 0 22-4 25-31 24-26-1-31 1-27 17 3 11 9 22 14 25s9 16 9 30c0 13 4 24 8 24 13 0 43 58 33 64-5 3-44 8-87 11-46 3-84 11-93 19s-35 20-58 28c-24 7-43 19-43 25 0 18-34 50-62 58-12 4-38 13-56 21-25 12-40 13-70 5-20-6-40-11-43-11-8 0 3 52 20 93 15 37 7 47-35 47-19 0-34 3-34 6 0 9 91 124 98 124 4 0 34 20 66 45 33 24 72 47 87 50 15 4 30 12 33 20s21 17 40 21c20 3 36 10 36 15s6 8 13 7c6-2 11 3 9 11-3 13 6 13 53-4 14-5 16-4 6 3s-5 12 21 21c18 6 40 20 48 31s22 20 30 20c9 0 21 5 27 11 7 7 33 13 60 15 54 5 159 53 197 91 22 22 87 63 100 63 3 0-22-26-55-57-32-32-59-62-59-68s-20-17-45-24c-54-16-55-37-1-33 34 3 37 2 31-17-8-28 17-28 68-1 20 11 44 20 52 20s22 9 32 20c21 21 65 18 57-5-8-20 68-29 110-14 29 10 33 16 25 30-5 10-15 16-23 13s-16 4-19 18c-6 21-43 50-90 70-13 6-16 14-11 35 4 16 9 30 11 33 6 7 22-23 17-32-5-7 1-9 39-12 6-1 12 8 13 19 3 60 3 59 23 34 18-22 20-22 26-6 4 9 15 17 24 17s29 7 45 15c15 8 34 15 40 15 7 0 23 11 36 25 18 19 20 27 12 38-14 17 9 41 54 57 16 6 34 22 41 35 10 22 9 25-7 25-35 0-31 19 6 29 28 8 43 7 65-4 16-9 40-12 57-9 37 7 53-13 18-22-30-7-56-34-35-34 9-1 5-8-10-21-13-11-20-23-16-27s10-1 12 6c3 6 11 12 19 12 13 0 18 12 15 33 0 4 4 7 9 7 16 0 90 51 90 62 0 6-8 7-17 3-37-15-53-17-53-6 0 6 11 11 25 11 17 0 29 7 35 23 5 12 9 16 9 10 1-7 8-13 16-13 9 0 12-6 8-17s-3-14 5-9c7 4 12 3 12-1 0-5 12-16 28-25l27-17-28-1c-16 0-26 4-22 9 9 16-15 24-31 11-10-10-11-16-3-26 6-7 7-18 3-25-5-9 2-10 28-5 27 5 35 3 35-9 0-11-11-15-42-15-67 0-140-48-120-80 15-24 145 7 145 35 0 7 6 18 14 24 11 9 14 8 12-6-1-14 8-19 37-21 27-2 37 1 37 12 0 8-10 16-22 18s-24 10-26 18c-4 13-3 13 10 2 13-10 17-10 21 0s6 10 6 1c1-7 10-13 21-13 15 0 19-5 16-22-3-13-5-31-5-40-1-10-9-18-18-18s-24-6-32-13c-9-8-38-22-66-32-62-22-73-31-57-47 17-17 15-27-5-27-10 0-35-4-55-9-23-6-56-6-89 0-43 8-58 6-88-9-53-27-75-51-62-67 17-20 58-25 104-12 23 7 58 11 77 10s45-2 58-3c13 0 20-5 17-11-3-5 1-10 10-10 10 0 15-7 13-17s7-29 19-43c13-14 23-32 23-42 0-24 15-30 44-17 21 10 29 8 52-10 15-11 37-21 50-21s46-9 74-20c27-11 50-18 50-15s9-4 21-16c24-24 50-11 42 21-6 21-33 28-33 9 0-6-6-9-12-6-7 2-12 13-10 23 1 11-8 29-23 42-14 12-25 26-25 31s-9 11-20 14-20 13-20 23c0 16 1 16 20-1 11-10 23-15 27-12 3 4 13-2 21-14 12-17 16-18 30-7 9 7 13 8 9 2-4-7 3-14 17-18 13-3 26-15 29-26 6-22 31-27 43-9 3 6 0 15-7 20-10 6-11 9-1 9 6 0 12 9 12 20 0 12 5 17 14 14 7-3 21 2 30 12 15 14 15 19 2 38-10 16-11 27-4 40 11 20-3 36-33 36-17 0-29 18-35 53-2 10 2 17 11 17 18 0 19 11 3 29-11 11-10 12 0 7 7-4 19-3 25 3 16 13 60-24 65-54 4-23 22-48 30-41 2 3 13 1 23-4 23-13 49-2 59 24 7 18 14 21 44 18 23-3 36 0 36 8 0 15 25 40 42 40 7 0 24 9 37 19l23 18-28 20c-16 11-35 18-43 15s-11 0-7 7c4 6 1 11-7 11-7 0-24 11-37 26-17 17-31 23-47 19-12-3-25 0-29 6-3 6-22 17-40 25-19 8-34 18-34 22 0 13 47 35 59 28 19-12 33 4 19 22-10 12-10 16 0 19 33 12-9 67-63 82-21 6-42 8-47 5-4-3-8 2-8 11s-4 14-9 11-11 3-14 14c-4 16-14 20-49 20-24 0-50-6-58-12-12-11-12-10-1 5 10 12 10 17 2 17-7 0-9 5-6 10 3 6-1 10-9 10-9 0-16 7-16 15s-10 17-22 19c-13 3-32 7-43 9-14 3-12 5 8 6 15 1 27 7 27 14 0 29-35 44-115 50-65 5-83 3-97-10-17-15-18-15-18 0 0 21-49 22-140 2-76-17-95-18-60-3l25 10-25 10c-68 26-260-33-342-106-10-9-21-16-25-16-9-1-47-50-41-54 1-2 28-8 58-13l55-11-59 2c-67 1-79-11-45-43 15-14 30-19 42-15 13 4 17 2 13-5-8-12 1-14 59-13 22 1 33-1 25-5-24-10-40-30-43-55-2-13-10-23-18-23s-30-13-50-28c-37-28-55-35-44-17 3 6 0 10-8 10-17 0-53-38-43-47 3-4-8-13-26-20-25-11-33-11-40-1-13 21-4 42 24 56 58 28 38 94-23 73-28-9-30-9-24 9 5 16 2 20-14 20-23 0-30 35-10 42 9 3 9 10 0 27s-10 26-1 36c15 18 3 55-18 56-9 0 2 8 26 18 24 9 47 22 50 28 4 6 32 13 62 15 68 7 221 75 199 89-8 5-32 9-54 9s-58 3-80 6c-48 6-121-8-118-24 2-6-4-9-13-5-8 3-25-3-37-14s-30-23-41-27c-12-4-17-13-13-25 6-23-23-52-70-71-18-7-33-15-33-19s-9-7-21-8c-28-2-69-30-69-47 0-7-11-19-25-26-17-9-25-21-23-34 2-16-3-22-25-24-17-2-36 3-47 13-15 13-22 14-46 3-16-7-33-18-37-25s-26-16-47-19c-43-7-55-30-18-36 12-2 23-9 26-17 3-9-2-11-17-6-15 4-27-1-43-17-21-22-32-24-136-26-92-1-114 1-119 14-3 9-12 12-24 9-27-9-48 6-23 16 18 7 18 7 0 14-11 5-21 3-26-5-6-9-9-7-12 10-1 13-9 25-17 28s-11 0-8-5-7-8-24-5l-30 4 27 14c19 10 31 11 38 4 13-13 29-13 21 0-3 5 0 7 9 4 8-3 17-11 19-18 3-8 28-13 67-14 35-1 69-7 77-13 11-9 19-7 36 10 13 11 29 21 35 21 14 0 15 6 3 29-7 13-5 17 10 18 10 1 19-5 19-13s3-14 6-14c13 0 64 42 64 53s-42 34-92 50c-24 8-23 24 2 37 11 6 20 17 20 25 0 34 44 81 96 104 30 13 54 27 54 31 0 11-27 20-60 20-35 0-90-21-72-27 6-3 12-9 12-14 0-6-8-6-19 1-39 20-81 12-113-22-17-18-34-43-39-55-5-13-13-23-18-23-11 0-9 19 3 38 5 8 1 21-10 33-21 23-64 26-64 4 0-19-14-19-67 1-34 13-48 14-75 5-26-9-30-9-20 1 17 17 15 28-6 28-10 0-25 11-32 25-16 30-38 38-110 41-30 1-98 5-150 7-52 3-108 3-123 0zm1928-88c-16-9-38-30-49-48l-18-32-10 25c-5 13-5 26-1 27 5 2 24 12 43 23 19 10 42 19 50 19s2-6-15-14zm278-16c5-19 11-21 49-16 37 5 39 5 18-5-14-5-45-11-70-12-44-2-45-1-27 17 10 10 15 22 12 27-4 6-2 10 3 10s12-10 15-21zm-370-56c-9-3-10-10-3-24 11-20-3-28-15-9-9 15 2 40 17 39 10 0 10-2 1-6zm592-13c-3-5-14-10-23-9-14 0-13 2 3 9 27 11 27 11 20 0zm145-80c-8-5-24-9-35-9-16 1-16 2 5 9 35 11 48 11 30 0zm104-42c-5-8-2-9 11-4 11 4 22 2 26-6 6-10-9-16-58-25-78-14-95-11-28 6 25 6 44 15 44 19-2 12 1 22 7 22 3 0 2-5-2-12zm-997-4c-3-3-12-4-19-1-8 3-5 6 6 6 11 1 17-2 13-5zm953-8c0-2-9-6-20-9s-18-1-14 4c5 9 34 13 34 5zm-3373-12c-3-3-12-4-19-1-8 3-5 6 6 6 11 1 17-2 13-5zm2603-4c0-5-10-10-22-10-19 0-20 2-8 10 19 13 30 13 30 0zm148 3c-10-2-26-2-35 0-10 3-2 5 17 5s27-2 18-5zm-2828-13c-8-5-22-9-30-9-10 0-8 3 5 9 27 12 43 12 25 0zm2180 0c0-5-4-10-10-10-5 0-10 5-10 10 0 6 5 10 10 10 6 0 10-4 10-10zm-170-22c0-4-11-15-25-24-31-20-33-38-4-31 12 3 18 2 13-2-11-9-87-36-127-45-17-4-31-16-37-31-7-17-14-23-26-18-16 6-16 7 1 19 10 8 14 18 9 26-4 7-4 10 1 6 10-9 47 10 40 21-2 5 16 14 41 20s42 16 39 21c-4 6-11 7-17 4-6-4-8 1-6 12 2 13 11 18 25 16 12-2 24 1 27 7 7 11 46 11 46-1zm-2230-13c-46-18-72-18-40-1 14 8 36 14 50 14 22 0 20-1-10-13zm3750 7c0-4-16-6-35-4s-35 6-35 8 16 4 35 4 35-4 35-8zm-1316-34c-6-21-25-41-31-34-5 5 22 56 30 56 5 0 5-10 1-22zm781 2c-3-5-11-10-16-10-6 0-7 5-4 10 3 6 11 10 16 10 6 0 7-4 4-10zm-305-10c0-5-5-10-11-10-5 0-7 5-4 10 3 6 8 10 11 10 2 0 4-4 4-10zm367 4c-3-3-12-4-19-1-8 3-5 6 6 6 11 1 17-2 13-5zm-692-63c-3-6-11-11-17-11s-6 6 2 15c14 17 26 13 15-4zm-625-5c0-2-7-6-15-10-8-3-15-1-15 4 0 6 7 10 15 10s15-2 15-4zm1338-3c-10-2-26-2-35 0-10 3-2 5 17 5s27-2 18-5zm-1978-49c0-2-9-4-21-4-11 0-18 4-14 10 5 8 35 3 35-6zm697-10c-3-3-12-4-19-1-8 3-5 6 6 6 11 1 17-2 13-5zm-1392-14c-11-4-35-14-54-21-33-12-33-13-10-22 13-5 47-6 74-2l50 6-32-20c-18-11-48-20-71-19-48 0-84-10-77-23 5-8-16-14-38-10-4 1-24-6-44-14s-38-13-41-10c-8 8 69 37 84 31 7-3 16 0 20 6 12 19-76 0-108-24-24-16-34-18-51-10-18 9-19 11-4 11 9 1 17 6 17 11 0 6 9 10 19 10 11 0 26 7 35 15 8 8 23 14 33 13h37c37 4-4 32-43 30l-36-1 33-4c17-2 32-8 32-14 0-5-1-9-2-9-2 1-28 7-58 14l-55 12 80 13c44 7 109 19 145 26 76 16 93 17 65 5zm2785 1c0-5 12-12 26-15 35-9 20-22-33-29-36-4-41-3-35 12 12 31 42 54 42 32zm514-10c4-5-3-7-14-4-23 6-26 13-6 13 8 0 17-4 20-9zm-5657-17c-3-3-12-4-19-1-8 3-5 6 6 6 11 1 17-2 13-5zm4280-36c0-18-2-27-4-20-3 6-14 12-25 12-12 0-18 3-15 7 4 3 2 12-4 20-9 10-5 13 18 13 27 0 30-3 30-32zm-242-34c20-15 20-16-4-12-14 2-26 9-29 16-5 16 9 15 33-4zm-4250-64c-3-5-12-10-18-10-7 0-6 4 3 10 19 12 23 12 15 0zm5015-11c0-5-7-9-15-9-9 0-12 6-9 15 6 15 24 11 24-6zm125-79c-3-5-10-10-16-10-5 0-9 5-9 10 0 6 7 10 16 10 8 0 12-4 9-10zm-2592-119c17-15 68-9 132 13 11 4-2-5-30-20-27-15-72-31-100-35-27-5-55-15-60-23-13-17-163-31-185-16-13 9-13 10 0 11 8 1 23 0 33-1s30 6 45 16 43 20 62 24c31 5 35 9 38 37 3 30 5 32 25 20 12-7 30-18 40-26zm2904-37c-3-3-12-4-19-1-8 3-5 6 6 6 11 1 17-2 13-5zm-5157-40c0-2-7-4-15-4s-15 4-15 10c0 5 7 7 15 4 8-4 15-8 15-10zm-83-10c-3-3-12-4-19-1-8 3-5 6 6 6 11 1 17-2 13-5zm-42-14c-9-14-45-32-45-23 0 7 24 22 48 32 2 0 0-3-3-9zm-322-97c-7-2-21-2-30 0-10 3-4 5 12 5 17 0 24-2 18-5zm57 3c0-2-9-6-20-9s-18-1-14 4c5 9 34 13 34 5zm1018-81c-3-3-9 2-12 12-6 14-5 15 5 6 7-7 10-15 7-18zm17-25c3-5 2-10-4-10-5 0-13 5-16 10-3 6-2 10 4 10 5 0 13-4 16-10zm-50-20c-4-6-2-17 4-24 8-9 7-13-4-13-8 0-12 4-9 8 2 4-1 11-7 15-8 4-7 9 2 15 18 11 21 11 14-1zm-1285-10c0-5-2-10-4-10-3 0-8 5-11 10-3 6-1 10 4 10 6 0 11-4 11-10zm1370-45c-14-17-46-20-54-6-4 5 2 7 13 4 10-3 22 0 25 6 4 6 12 11 18 11 7 0 6-6-2-15zm-14-37c4-6 3-8-4-4-6 3-15-1-20-10-6-11-11-13-16-5-4 6-2 11 4 11s8 5 5 10c-3 6 1 10 9 10s18-5 22-12zm-66-32c0-2-8-10-17-17-16-13-17-12-4 4s21 21 21 13zm40-41c0-8-2-15-4-15s-6 7-10 15c-3 8-1 15 4 15 6 0 10-7 10-15zm67 9c-3-3-12-4-19-1-8 3-5 6 6 6 11 1 17-2 13-5zm-119-77c-6-12-12-23-13-24-1-2-2 10-2 26 0 20 4 28 13 24 11-4 11-10 2-26zm2098-118c8-14-16-159-27-159-5 0-9 3-9 8 0 4-4 13-9 21-7 11-13 12-24 3-10-9-14-9-14 1 0 6-3 22-7 35-6 17-3 24 16 31l23 10h-22c-30 1-29 7 5 36 29 26 57 32 68 14zm2504 7c0-2-15-9-32-15-30-10-31-9-14 4 18 14 46 20 46 11zm-4580-36c0-5-2-10-4-10-3 0-8 5-11 10-3 6-1 10 4 10 6 0 11-4 11-10zm2050-175c0-2-13-18-30-35-19-19-30-25-30-16 0 8 12 24 26 35 27 21 34 25 34 16zm-1944-121c0-11 11-21 32-28 26-9 30-14 20-24-9-9-9-12 0-12 7 0 12-10 12-22 0-17-3-19-9-9-5 8-14 10-21 6-8-5-11-3-8 6 3 8-7 26-21 40-28 27-37 59-16 59 7 0 12-7 11-16zm2477-90c9-3 12-14 10-29-6-27 25-49 54-38 15 6 16 4 6-9-7-8-10-18-7-21 4-3 3-14-1-24-10-23-12-29-14-48 0-8-6-15-12-15s-9 7-5 15c4 12-3 13-42 8-26-3-55-10-64-15-22-11-65 0-72 18-3 8-13 14-23 14-12 0-7 7 16 21 37 22 35 35-4 25-16-4-23-11-19-18s3-8-4-4c-6 4-26-1-44-10-18-10-46-21-63-25-16-4-41-11-55-15-25-6-25-6-5 10 19 17 18 17-22 13-24-3-43-4-43-2 0 9 111 64 153 75 26 7 50 17 53 21 3 5 10 9 17 9 6 0 2-7-9-15-10-8-14-15-7-15 21 0 63 19 63 29 0 6-6 8-14 5s-17 0-22 7c-4 7-3 10 2 6 5-3 34 3 64 13 57 20 88 24 113 14zm-2448-35c-4-5-21-8-38-8-21 1-25 3-12 6 11 3 24 9 29 14 11 10 28 1 21-12zm3840-29c8-13-5-13-25 0-13 8-13 10 2 10 9 0 20-4 23-10zm105-136c0-2-9-4-21-4-11 0-18 4-14 10 5 8 35 3 35-6zm-1315-19c6-2-11-4-37-4-27-1-48 3-48 7 0 7 62 5 85-3zm-185-11c0-9-63-68-76-72-33-9-44-17-77-56-41-49-57-84-57-123 0-17-15-40-44-69-48-49-75-56-77-21-3 58 41 141 126 235 42 47 51 72 15 40-8-7-4 0 10 15 15 17 31 26 42 24 9-3 25 1 35 8 26 18 103 32 103 19zm170-30c33-14 36-14 52 5 25 31 54 27 67-10 24-69-20-108-56-49-22 38-42 40-35 4 4-21-2-33-26-54-17-14-34-38-37-53-6-22-42-57-59-57-3 0-4 19-3 43 2 37 0 42-18 39-11-2-27-10-36-18-8-8-19-14-24-14-4 0 13 20 39 45s44 50 41 55-1 11 5 15c17 11 11 25-15 37-14 6-25 18-25 26 0 11 9 13 48 7 26-4 63-13 82-21zm24 14c-3-4-9-8-15-8-5 0-9 4-9 8 0 5 7 9 15 9s12-4 9-9zm326-155c-1-33-61-56-125-48-28 4-68 2-88-3-48-13-48 2 1 25 24 12 60 18 105 18 37 0 67 3 67 8 0 4 9 7 20 7s20-3 20-7zm-230-98c0-7-79-46-150-72-97-37-138-45-160-33-26 14-26 30 0 30 11 0 20-6 20-12 0-10 2-10 8-1 4 7 34 26 67 42 48 25 67 29 105 25 32-4 41-3 31 4-11 8-7 11 20 15 19 2 40 5 47 5 6 1 12 0 12-3zm-255-55c-3-5-15-10-26-10-10 0-19 5-19 10 0 6 12 10 26 10s23-4 19-10zm280-361c11-17-1-21-15-4-8 9-8 15-2 15s14-5 17-11zm0-169c3-6-1-7-9-4-18 7-21 14-7 14 6 0 13-4 16-10zm-1180-500c3-5-1-10-10-10s-13 5-10 10c3 6 8 10 10 10s7-4 10-10zm113-1624c10-23 9-24-24-23-29 2-32 4-18 14 16 12 16 13 1 19-10 3-17 15-17 25 0 18 2 18 23 4 13-8 29-26 35-39z"/>
  <path id="path96" d="m8135 13188c-27-5-68-10-90-11-22-2-58-9-79-16-31-11-36-15-23-23 24-13 9-38-24-38-16 0-29 5-29 10 0 13-36 13-61 0-25-14-14-35 32-58 25-12 34-23 33-40-1-27 1-27 124-1 51 10 70 20 107 56 25 23 45 52 45 63s7 20 15 20c16 0 17 6 7 30-6 13-16 14-57 8zm15-69c13-9 13-10-2-6-9 3-18 1-21-6-2-6-6-4-10 6-7 19 10 23 33 6z"/>
  <path id="path98" d="m3703 12016c-28-12-55-25-59-29s-17-7-29-7c-13 0-28-7-35-15s-16-13-20-10c-13 8-70-16-80-34-14-27 3-45 36-36 16 5 36 9 44 11s23 7 35 13c11 6 37 17 58 25 32 13 42 26 39 56 0 3 15 4 34 2 31-4 34-2 34 22 0 14-1 26-2 25-2 0-26-11-55-23z"/>
  <path id="path100" d="m6890 9019c-14-4-46-13-72-20-26-6-55-20-64-30-9-11-24-19-33-19-14 0-14-2-1-10s11-11-7-16c-30-8-29-20 1-26 14-3 34 3 47 13s31 19 40 19 26 9 39 20c16 14 36 20 64 19 23-1 33-3 24-6-10-2-18-8-18-13 0-9 62-30 90-30 8 0 38-11 65-25 30-14 59-22 73-18 18 4 22 1 22-20 0-13 7-30 15-37s15-18 15-25 7-18 15-25c9-7 14-19 11-26-7-17 204-12 249 5l29 12-29 24c-17 13-42 24-56 25-18 0-26 5-25 16s-13 21-42 29c-42 13-102 63-102 87 0 6-3 9-6 5-4-3-13 0-21 8-17 18-47 20-37 3 5-8 2-9-10-5-10 4-24 7-32 7s-13 5-11 12c6 30-172 66-233 47zm365-229c4-6-7-10-24-10s-31 5-31 10c0 6 11 10 24 10 14 0 28-4 31-10z"/>
  <path id="path102" d="m7552 8740c-33-16-34-30 0-30 13 0 18-8 18-28 0-15 5-33 12-40 19-19-18-26-79-15-48 9-55 8-63-8-8-14-4-21 22-33 34-17 52-21 44-8-2 4 22 8 55 7 55 0 63-3 81-28l20-28 25 35c24 36 38 44 45 26 2-6 14-4 31 5 29 15 90 12 95-5 2-5 11-10 20-10 8 0 12 3 9 7-4 3 1 12 11 19 16 12 14 16-20 49-20 19-46 35-57 35-12 0-21 6-21 14 0 20-82 40-136 31-33-5-50-3-62 8-15 12-22 11-50-3z"/>
 </g>
</svg>
