<?xml version="1.0" encoding="UTF-8"?>
<svg id="svg106" width="440pt" height="239pt" version="1.0" viewBox="0 0 440 239" xmlns="http://www.w3.org/2000/svg">
 <metadata id="metadata2">Created by potrace 1.7, written by Peter Selinger
  2001-2005</metadata>
 <g id="g110" transform="matrix(1.1758 0 0 1.1758 -50.491 -1.9908)" fill="#fff" stroke-width=".8505">
  <g id="g8" transform="matrix(.016963 0 0 -.016963 0 239)">
   <path id="path4" d="m13728 10231c-34-19-84-21-109-5-6 4-15 1-19-5-5-9-14-9-35 1-22 10-29 10-33 0-2-6-11-12-21-12-9 0-23-6-29-12-10-10-17-10-32 0-27 16-55 15-190-7-113-19-180-42-180-63 0-5-7-8-15-5-8 4-17 2-20-3-4-6-13-10-21-10s-26-11-40-25-30-25-37-26c-25-2-62 3-70 10-4 4-33 4-65 0-63-9-100 6-109 42-6 20-20 24-39 11-6-4-22-32-35-62-34-81-57-108-119-137-60-29-120-82-120-107 0-9-10-31-22-47-18-24-23-44-23-94 0-38-5-69-12-76s-13-18-13-24c0-5-16-24-36-40-20-17-45-38-56-48-23-21-80-47-103-47-22 0-36-16-62-72-13-27-27-48-31-48-27 0-82-82-82-123 0-24-26-64-66-102-12-11-32-47-45-80-12-33-30-66-40-72-9-7-20-29-24-50-3-21-9-49-12-62-4-17-2-22 8-19 7 2 24-7 36-20 23-25 30-52 14-52-17 0-22-50-6-73 21-30 19-116-5-177-11-28-20-62-20-77 0-30-49-113-67-113-7 0-13-4-13-10 0-5 7-10 15-10 9 0 20-12 26-27 6-16 15-36 20-45 5-10 5-19-1-23-6-3-10-27-10-53 1-39 6-52 30-76 33-32 39-49 14-39-13 5-15 2-9-18 11-35 18-39 40-22 14 11 16 17 8 20-15 5-18 33-4 33 5 0 14-13 20-30 5-16 15-30 20-30 6 0 11-7 11-15s7-15 15-15 15-3 15-8c0-4 23-31 50-61 32-35 50-63 51-80 1-42 7-64 20-71 6-4 8-13 5-19-4-6-3-11 3-11s8-6 6-12c-3-8 12-20 37-31 42-17 77-45 197-153 121-109 151-118 242-74 96 46 247 50 331 9 11-5 28-3 45 6 92 46 161 75 181 75 12 0 25 7 28 14 7 19 88 36 181 38 59 2 75-1 93-17 25-23 60-87 60-109 0-8 10-25 23-36 17-17 30-20 57-15 19 3 53 8 75 10 22 3 54 6 72 8 26 4 33 0 37-19 3-12 15-26 26-29s20-12 20-19c0-8 6-19 14-25 19-16 10-113-15-163-13-25-15-38-7-40 7-3 9-11 3-24-4-10-10-39-12-64-5-43-18-64-35-54-13 8-9-20 6-52 8-16 22-47 32-69s35-56 54-75c71-69 160-201 160-238 0-12 5-24 10-27 6-4 8-10 5-15s5-33 19-62c13-29 32-77 43-106 18-52 18-54-1-67-18-14-18-17 14-97 22-56 32-98 31-128-2-52-18-100-35-100-19-1-65-84-72-131-8-60-34-149-42-149-13 0-7-184 7-217 7-18 17-33 20-33 10 0 53-89 96-195 9-22 28-60 43-85 21-36 27-59 28-115 1-38 6-92 12-120 6-27 18-90 27-139 19-103 33-135 85-192 24-26 45-65 60-110 24-74 57-146 71-155 5-3 12-26 15-52 6-39 4-47-9-47-8 0-17-6-20-12-4-14 12-48 27-59 5-4 7-18 4-32-7-34 8-58 22-37 6 10 10 11 10 3 0-7 6-13 13-13 8 0 22-9 32-20 22-25 42-25 67-3 12 11 34 17 60 16 23-1 51 5 65 14 29 19 101 24 156 11 26-6 43-6 52 2 8 6 24 10 37 8s22 2 21 8c-1 7 17 14 41 16 53 6 154 72 211 136 11 13 37 40 59 60 37 36 106 134 106 151 0 13 67 81 80 81 11 0 29 37 54 115 18 56 22 130 6 120-18-11-10 13 13 40 12 14 54 38 92 54 51 20 76 37 93 61 14 21 19 37 13 43s-6 19 1 36c13 32 11 112-2 125-6 6-10 15-10 20 0 6 5 4 10-4 8-12 10-11 10 8 0 12-5 21-12 20-7-2-12 11-13 32-1 19-7 36-14 38-6 2-11 14-11 26 0 26 90 126 114 126 9 0 16 4 16 8s8 19 18 32c36 49 73 78 129 101 32 12 60 26 63 29 3 4 12 11 21 16 26 14 93 105 107 146 10 29 10 47 2 80-7 24-11 99-10 173 3 167 4 160-23 172-19 9-28 26-40 80-22 87-21 100 3 106 11 3 20 11 20 17 0 7-7 10-15 6-20-7-32 21-18 43 8 13 4 25-18 52-16 18-29 41-29 49 0 21 33 114 43 121s56 113 64 147c3 12 15 27 26 33 31 17 83 73 103 110 43 85 178 230 260 282 54 34 213 208 214 234 0 4 16 33 35 63s35 62 35 72c0 20 61 151 73 156 4 2 7 8 7 14 0 5 11 32 25 60 14 27 25 65 25 85 0 26 5 36 20 40 21 6 27 19 10 25-9 3-14 56-8 92 5 28-37 40-59 17-22-22-108-52-129-44-8 3-26 0-39-7s-34-10-46-7c-13 4-32-2-49-15-20-14-38-19-61-16-22 3-44-1-64-13-52-32-90-19-130 44-10 15-28 30-42 33l-24 6 23 12c38 19 34 48-14 98-24 25-50 55-58 67-8 11-19 21-25 21-5 0-18 14-27 30-10 17-25 33-35 37s-24 13-31 20c-7 6-19 10-26 7-9-3-15 4-18 20-4 18-1 26 9 26 12 0 12 2-1 15-19 20-23 19-30-7-6-23-7-23-21-3-9 11-20 38-25 60-28 115-42 144-91 182-56 44-70 76-73 173-2 38-9 76-15 84-7 9-14 27-15 41 0 14-3 25-6 25s-24 17-48 38c-47 42-75 112-44 112 11 0 8 7-11 24-14 13-38 50-55 82-16 33-39 76-51 97-11 21-21 43-21 50s-8 24-17 37c-10 14-19 33-20 43-2 11-19 37-38 60-19 22-35 51-35 63 0 13-4 25-9 29-6 3-13 37-17 75-3 38-12 77-19 87-26 35-145 23-189-19-12-11-29-17-41-14-11 2-40 10-65 15-25 6-54 15-65 20-36 16-103 29-128 24-19-4-27 0-32 16s-15 21-38 21c-54 0-104 19-110 40-3 12-14 20-25 20-12 0-24 5-27 10-15 24-110 2-155-36-31-27-40-72-21-103 16-26-24-80-60-81-8 0-33 13-55 28-41 30-104 52-145 52-35 0-66 25-74 61-5 20-16 34-33 41-15 6-40 17-56 26-18 9-52 15-82 14-33-1-66 6-93 18-40 20-67 51-54 64 3 3-1 6-10 6s-17-4-17-10c0-17-29-11-40 9-8 16-4 24 20 45 17 14 37 23 45 20 8-4 15-1 15 6 0 6-5 8-10 5-7-4-8 7-4 33 5 34 3 42-15 51-25 14-27 36-5 58 8 9 13 22 10 30s-1 11 4 8c6-3 10-2 10 3 0 19-14 21-32 5s-19-16-24 4c-5 17-29 32-54 33-3 0-22-9-42-19zm1908-3229c8-11 9-21 2-29-5-7-7-16-4-21 6-11-15-62-26-62-5 0-8-5-8-11 0-7-8-18-17-25-17-13-17-15 0-28 25-20 10-26-43-16-27 5-50 4-57-1-19-16-24 6-18 78 10 107 11 110 52 123 21 7 42 16 47 20 11 11 56-6 72-28zm-346-384c0-15 5-30 11-33 6-4 8-14 5-22s-1-24 5-36c9-16 9-22 0-25-20-7-12-42 13-51 24-10 36-30 36-62 0-11 11-42 25-69 31-61 31-62 0-48-16 7-24 17-20 26 3 7-2 23-10 35s-15 28-15 35c0 8-13 30-30 49-16 18-31 41-32 51 0 9-2 31-4 47-2 17-5 66-7 110-3 72-2 77 9 50 7-16 13-42 14-57zm360-458c6-11 12-41 14-65 1-25 8-51 14-57 15-15 16-55 2-63-14-9-6-148 9-153 6-2 11-8 11-13 0-6-4-7-10-4-5 3-10 1-10-4 0-6-5-11-11-11s-8 9-4 20c4 12 2 26-3 33-10 13-25 90-23 122 7 119 5 153-6 175-7 14-13 28-13 33 0 15 20 6 30-13z"/>
   <path id="path6" d="m16760 5958c-8-13-15-38-17-57-3-42-9-48-33-33-16 10-20 10-20-2 0-8 6-17 13-20 6-3 2-3-10 0-23 5-27-1-24-38 1-9-3-19-9-23-5-3-10-15-10-25 0-13-5-17-15-14-9 4-15 0-15-9 0-20-71-70-125-88-22-7-44-17-49-21-6-4-20-8-33-8-18 0-23-5-23-27 0-16-9-41-19-57-20-30-20-54 0-169 12-67 12-69-17-125-16-31-33-60-37-63-35-25-48-116-23-163 8-16 12-44 9-70s-1-46 6-50c6-4 11-15 11-25 0-22 30-51 53-51 9 0 17-4 17-10 0-15 52-11 74 5 11 8 32 15 47 15 30 0 69 40 69 69 0 9 6 25 14 36 7 11 19 45 26 75 8 30 22 71 31 91 10 20 24 58 30 85 7 27 29 92 50 146 21 53 41 114 44 135 12 72 15 83 28 80 12-2 13 7 1 83l-7 45 20-24 20-25 17 32c12 24 14 37 6 51-5 11-10 40-10 64s-5 59-11 78c-14 44-53 128-59 129-3 0-12-10-20-22z"/>
  </g>
  <g id="g46" transform="matrix(.016963 0 0 -.016963 0 239)">
   <path id="path10" d="m17725 13638c-68-17-73-19-50-28 19-8 19-9-2-9-33-1-38-20-12-47 25-26 45-31 52-11 4 10 6 10 6 0 1-7 8-13 16-13s15 6 15 13c0 8 3 8 9-2 5-8 16-11 25-8 9 4 36 0 59-8 46-15 187-35 254-35 45 0 68 18 34 27-12 3-21 13-21 23 0 23-24 31-102 36-79 5-102 12-89 28 8 9-5 15-52 25-98 20-100 20-142 9z"/>
   <path id="path12" d="m18374 13421c-27-12-38-39-23-57 9-12 3-14-34-14-25 0-47-4-49-9-1-5-20-12-41-15-28-4-36-3-31 5 10 17-184 3-201-15-7-7-44-16-81-19-37-4-78-14-91-23-15-9-34-13-49-10-14 4-24 2-24-4 0-5-7-10-15-10s-15-8-16-17c0-11-3-13-6-5-7 18-40 15-47-4-4-9-3-20 0-23 4-3 9 0 11 6 3 9 10 9 28-3 13-8 31-14 41-12 9 2 19-3 21-9 6-16-73-18-82-3-3 6-14 10-23 10-14 0-14-2-3-9 21-13-10-20-108-23l-84-2 29-23c16-13 39-33 50-44 13-13 40-23 68-26 25-3 46-9 46-14 0-4 8-10 18-12 9-3 2-5-16-6-19 0-46 5-60 13-24 13-86 27-188 43-20 3-35-1-43-11-12-14-10-16 10-17 26-1 20-4-25-14-28-6-28-7-9-20 10-7 35-18 54-24 33-11 33-11-14-7-49 4-76 24-77 57 0 18-41 59-58 59-7 0-21 6-32 12-14 9-22 10-31 1-8-8-2-14 21-22 18-6 37-8 43-4 5 3 7 1 3-5-3-6-2-13 4-17 18-11 10-23-20-30-16-4-30-13-30-20s-5-15-12-17c-6-2 14-17 46-33 54-27 56-30 50-61-5-26-2-35 15-46 12-7 21-19 21-27 0-11 15-12 73-8 62 5 67 4 34-5-51-14-57-34-21-63 23-19 27-26 17-36-7-7-13-23-13-35 0-17-8-24-30-29-18-4-30-13-30-22 0-12-7-14-32-9-18 3-37 11-43 17-7 7-5 8 6 4s21 5 34 35c10 22 21 40 25 40 5 0 7 15 6 33-1 28-7 35-43 51-24 10-43 24-43 30s-10 27-22 46-23 43-25 53c-4 25-26 45-58 53-19 5-23 10-16 17 15 15 13 48-3 70-10 13-35 21-83 26-41 5-54 9-33 10 33 2 34 2 16 16-25 19-100 21-94 3 3-7-1-19-9-26-7-7-13-31-13-52 0-34-4-42-30-55-37-19-39-42-5-55 19-7 25-17 25-39 0-32 22-56 43-48 8 3 27-4 43-14 16-11 39-24 52-29 22-9 29-25 15-33-5-3-39 8-78 24-101 41-118 39-72-9 20-21 37-42 37-47-2-35-111-112-212-150-26-10-52-23-58-30-7-8 7-49 46-136 57-126 83-238 84-351 0-60 14-96 51-130 52-48 28-128-39-128-16 0-37-9-47-20-17-18-17-20 6-49 13-16 35-46 49-65 34-48 67-48 109-1 39 45 70 46 95 4 16-26 16-37 6-77-10-43-10-48 9-62 66-49 66-49 53-58-17-12 4-30 55-47 67-23 51-81-20-72-27 4-40 1-44-9-7-18-31-18-49 1-9 8-24 15-35 15-10 0-19 5-19 11 0 8-15 10-48 5-36-5-62-1-107 16-65 23-188 29-208 9-6-6-34-11-61-11-28 0-68-5-89-11-37-10-37-10-31-52 8-53 18-72 61-120 27-30 33-45 31-73-2-29 3-40 25-56 15-11 27-26 27-33 0-18 34-28 70-20 23 5 32 2 45-19 16-23 29-119 15-111-3 2-29 6-57 9-46 4-52 2-62-21-6-13-9-29-6-34 4-5-8-9-25-9-28 0-30-2-20-20 6-11 17-20 25-20s22-13 32-30c9-16 21-30 25-30s8-9 8-21c0-13 4-18 12-13 6 4 16 0 22-8 7-9 23-18 36-20 34-4 39-14 33-59-3-22-2-39 4-39 16 0 45-61 39-83-7-29 16-73 35-69 12 2 14-5 11-30-4-25-2-30 11-25 25 9 44-24 55-93 6-36 13-72 16-80 5-13-8-19-62-33-82-19-120-12-177 33-21 17-48 30-60 30-30 0-55 30-62 75-4 26-2 40 8 45 8 6 13 28 14 57 0 46 1 48 28 48 15-1 27 4 27 10 0 7-14 9-33 7-48-5-251 99-337 173l-65 57-54-6c-48-6-59-3-100 23-25 16-62 32-81 36s-50 15-68 26c-25 14-38 16-59 8l-26-10 23-24c12-13 48-36 79-51 43-21 62-37 75-64 34-70-10-100-149-105-53-2-95 1-95 6s-13 9-29 9c-17 0-33 5-36 10-4 6-15 8-25 5-13-4-22 1-30 15-8 15-17 19-32 14-15-4-26 0-37 13-15 18-23 19-98 13-80-8-140-31-169-66-8-10-28-11-83-5-74 7-104-2-79-27 24-24-14-38-107-40-49-1-91-6-93-11-2-6-10-7-18-4s-14 0-14-6 7-11 15-11c9 0 15-9 15-25 0-23 8-29 37-26 6 1 10-6 8-16-1-10 0-22 4-28 3-5 6-19 8-30 1-11-1-14-3-7-9 20-31 13-29-10 1-15 12-26 36-34 19-7 28-13 21-13-10-1-10-5 0-23 7-13 17-26 22-29 4-4 0-12-10-18-20-11-16-13 31-14 16 0 17-1 3-4-10-3-18-9-18-15 0-5 7-8 15-4 8 3 15 1 15-4 0-6 7-10 15-10s15 5 15 11c0 16 47 2 70-21 15-15 31-20 60-18 39 3 45 10 41 46-4 29 77 3 123-40 30-27 113-17 139 18 21 27 38 30 67 12 15-10 23-9 40 7 25 22 39 13 16-11-12-11-14-20-7-27 6-6 6-18 1-32-5-12-5-26-1-31 12-13 21-80 12-90-13-15-49-125-61-185-12-62-34-90-71-90-13-1-39-3-56-5-29-4-33-9-33-35 0-48 20-115 41-138 10-11 19-27 19-34 0-15 72-97 85-97 3 0 13 7 21 15 9 8 24 15 35 15 10 0 19-7 19-15s5-15 10-15c6 0 10-5 10-10 0-6 8-19 18-30 9-10 26-36 37-57s28-47 38-58c24-26 50-75 43-82-9-9 27-63 41-63 8 0 16-7 19-15 4-8 11-12 17-8 5 3 7 1 4-4-4-6 2-22 13-36s20-32 20-40c0-9 5-19 11-23 7-4 9-21 5-44-4-28-2-41 10-51 8-7 13-21 11-31-4-12 3-24 18-34 14-9 27-23 30-32 2-10 18-26 34-37 16-10 28-22 26-26-3-3 7-11 20-17 19-9 25-19 25-43 0-19 7-37 18-45 9-7 17-17 17-22s17-26 38-46c20-21 37-44 37-52s4-14 9-14 14-14 20-32c11-31 11-31-9-13-11 10-17 22-14 26 3 5-2 6-11 3-10-4-15-2-13 7 2 7-5 15-14 17-13 2-16-1-12-15 5-17 5-17-9 0-8 10-18 14-20 9-7-10 47-94 55-86 9 8 51-37 53-55 0-9 4-21 7-26 8-14 42-127 43-145 3-48 17-68 52-75 20-3 40-2 46 4 5 5 15 7 22 5 7-3 28 9 46 25 22 21 44 31 65 31 34 0 99 24 109 40 3 5 21 10 40 10 24 0 39 7 54 26 13 17 49 36 103 55 97 35 144 61 140 79-6 27 10 48 51 65 78 32 88 35 121 35 37 0 52 13 58 50 2 19 10 26 33 28 37 5 55 19 55 43 0 22 36 49 66 49 19 0 21 5 20 61-1 65 10 82 36 55 13-13 17-12 30 3 15 18 13 45-3 35-17-10-9 15 15 43 29 35 56 87 56 108 0 9-9 15-21 15s-23 8-26 20c-3 11-9 20-14 20s-9 5-9 11c0 21-32 42-78 50-90 17-134 73-134 170 0 62-12 74-33 32-21-40-139-160-153-155-7 2-12 0-12-5s-16-7-35-5-35 8-35 13-4 9-10 9c-5 0-10-6-10-14 0-23-20-29-39-12-10 9-23 16-30 16-8 0-10 7-4 23 11 32 4 120-10 129-24 15-36 7-48-32l-12-40-19 27c-20 32-23 43-8 43 6 0 10-7 10-16 0-8 5-12 10-9 17 11 11 37-10 42-11 3-21 9-21 14-1 5-2 13-3 19 0 5-10 16-21 24s-20 20-20 28c-1 7-6 12-13 11-7-2-12 1-12 6s-9 13-20 16-20 13-20 21-4 14-8 14c-14 0-53 96-46 116 4 12 3 15-3 7s-14-9-23-3c-13 8-13 10 0 10 9 0 23 8 32 18 33 34 44 40 62 30 9-5 24-7 34-4 12 4 24-5 40-27 12-18 22-38 22-44s4-13 9-15c5-1 22-25 37-52 21-35 39-51 64-60 19-7 48-24 64-39s36-27 45-27c13 0 13-2 3-9-10-6-3-10 22-15 20-4 34-11 31-17-4-5-1-9 4-9 6 0 11 5 11 10 0 7 7 7 20 0 11-6 25-8 31-5 5 4 26 9 46 11 40 5 66 21 57 35-8 14 34 10 43-3 4-7 13-31 18-53 13-49 51-70 144-80 75-8 106-13 141-21 43-11 130-13 130-4 0 4 18 6 40 3 24-4 40-2 40 5 0 6 13 7 36 2 20-5 64-4 101 2 74 11 93 7 93-22 0-13 7-20 19-20s21-10 26-27c8-34 33-63 53-63 8 0 28-13 43-30 41-42 82-61 121-54 31 5 32 5 14-10-20-16-36-20-68-17-10 1-18-3-18-10 0-19 138-149 157-149 52 2 127 70 104 93-10 10-3 47 9 47 4 0 5-11 2-25-2-15 0-25 7-25s9-5 6-10c-4-6 1-24 9-42 11-21 14-43 10-66-4-19-2-50 4-70 26-91 45-161 57-214 7-31 30-89 50-130 21-40 46-89 55-108 10-19 25-61 33-94 9-32 31-81 50-110 37-55 87-173 87-203 0-26 54-109 80-123 29-15 65 8 73 48 7 32 42 48 79 36 15-4 19-2 16 7-3 8-11 14-19 14-16 0-16 8-5 48 6 20 15 27 33 27 22 0 24 3 18 29-10 49-9 129 3 143 16 19 17 101 2 178-19 107-14 136 26 126 19-5 25-2 30 19 3 14 12 25 20 25 34 0 64 24 64 52 0 15 4 28 9 28 16 0 116 101 148 150 17 26 48 55 70 65 21 11 48 30 61 42 23 21 25 33 20 82-2 13 4 27 12 31s25 12 38 19c18 9 24 9 28-3 6-15 44-13 98 4 16 6 41 10 55 10 35 1 76 33 68 53-3 9-2 19 2 22 5 2 11-5 14-16 3-12 10-18 15-15 11 7 22-16 22-45 0-24 22-61 67-112 18-20 33-42 33-48s8-9 18-7c20 6 46-17 39-35-2-7 0-20 5-29 6-13 5-18-4-18s-9-3 0-12c10-10 15-10 20-1 12 18 29 2 51-48 17-37 19-58 15-121l-6-75 28-8c56-15 74-14 88 7 8 11 30 31 50 44 23 16 36 33 36 47 1 31 67-108 76-158 3-22 13-52 20-67 8-15 14-38 14-53s6-25 14-25 19-14 25-31c15-42 14-49-4-43-11 5-13 2-9-10 3-9 10-16 15-16 4 0 3-14-3-31-8-23-13-27-19-17-5 7-9 9-9 3 0-19 16-34 35-32 22 2 33-29 16-46-7-7-15-6-26 3-9 8-15 8-15 2s8-15 17-21c19-10 24-78 10-136-10-42 3-129 16-116 20 20 47 13 47-11 0-19 2-20 10-8 7 12 10 12 10 1 0-7 14-30 30-51 27-34 29-40 15-48-15-8-15-10-1-21s16-11 16 5c0 17 1 17 15-2 8-12 13-40 12-63s3-45 9-49 14-26 18-49c3-24 17-54 31-69s25-37 25-49c0-16 19-35 73-71 79-53 97-70 93-87-2-7-1-9 1-4 9 15 35 7 29-9-4-12-2-15 9-10 10 4 15-1 15-14 0-11 5-20 11-20 7 0 9 9 6 21-4 16-3 18 8 9 9-8 15-8 20 0 10 16-4 30-33 31-17 1-21 3-9 6 9 2 17 11 17 19s-3 13-7 11c-5-3-9 6-9 19-1 13-14 40-29 60-24 31-27 44-27 107 1 40-4 86-11 102-11 29-90 115-105 115-4 0-16 14-26 31-13 21-24 29-36 26-31-8-57 20-71 75-6 29-18 58-24 63-15 12-28 75-16 75 10 0 9 26-2 36-4 4-7-3-7-15 0-26-28-40-41-20-13 19-5 103 15 169 10 30 18 82 19 115 2 58 3 60 30 63 25 3 27 1 27-36s1-39 35-40c43-2 75-18 75-38 0-9 7-14 18-12s22-8 34-32c10-19 17-41 18-47 0-16 36-53 51-53 5 0 7 6 3 13s-3 9 2 4c9-9 10-13 13-42 2-24 21-18 21 7 0 19 2 20 18 6 9-8 26-18 37-22 14-5 16-9 7-15-18-11-14-121 5-121 7 0 18 9 25 20 7 12 32 32 55 46 39 22 55 47 58 89 1 6 6 9 13 7 17-3 69 25 101 54 14 13 31 24 38 24 14 0 25 52 19 92-2 15 1 25 5 22 5-3 9 4 9 15s-4 22-9 25c-4 3-11 27-14 53s-13 62-21 78c-9 17-16 37-16 46 0 8-13 28-30 44-16 16-30 34-30 41s-8 15-19 19c-23 7-141 120-141 134 0 6-15 26-34 46-29 29-34 42-34 81 0 29 5 47 13 50 7 3 21 21 30 40s20 32 25 29c4-3 11 2 14 10s11 14 18 13c7-2 12 4 12 13-2 21 66 45 93 34 10-4 29-7 42-6 19 2 22-1 17-14-9-25 25-94 47-95 23 0 31 23 17 50-8 15-8 20-1 16s11 1 11 13 6 22 13 22c6 1 17 2 22 4 6 1 16 3 23 3 7 1 10 7 6 14-4 6-3 8 4 4 6-3 13-2 17 3 4 7 15 7 31 1 36-14 47-12 40 6-3 8-2 12 4 9s10-1 10 5 5 8 11 4c16-9 29 16 24 46-4 24-4 24 7-2s48-40 48-19c0 5 18 19 41 30 22 12 38 17 34 11-3-5-1-10 4-10 6 0 11 5 11 10 0 6 3 9 8 9 35-6 55 4 65 30 6 17 20 32 31 35 12 3 30 19 41 36 11 16 25 30 32 30 16 0 36 37 27 52-4 6-3 9 2 6 11-7 35 17 27 26-4 3 3 6 15 6 13 0 22 6 22 16 0 8-4 13-9 10-13-8-22 36-11 49 6 7 7 15 3 18-3 4-1 7 5 7 7 0 12 9 12 19 0 11 5 23 10 26 6 3 10 17 10 30 0 34 10 55 26 55 8 0 15 6 15 13 5 36 4 54-4 70-5 11-4 16 4 15 7-2 12 18 14 60 1 34-2 62-7 62-4 0-9-4-9-10-1-5-2-14-3-19-2-20-16-23-32-6-11 10-25 14-40 11-34-9-21 19 17 36 30 14 36 23 19 33-6 4-8 10-5 14 2 5-8 11-24 14-32 7-48 32-25 41 7 3 13 0 11-6-1-6 4-13 11-15 6-3 12 2 12 9 0 12-34 42-85 76-5 4-17 19-25 33-40 70-84 116-130 138-45 21-49 26-43 49 3 14 19 38 35 54 29 29 37 44 16 32-7-4 2 7 20 25 22 20 43 31 63 31 24 0 29 4 29 24 0 31-6 34-62 40-25 2-55 9-66 15-21 11-76 5-68-8 2-3-2-15-10-25-12-16-18-18-39-8-14 6-25 20-25 29-1 30-23 50-58 51-46 1-82 26-82 58 0 20 4 25 16 20 30-11 65 5 70 33 3 15 19 36 35 46 16 11 29 26 29 33 0 23 25 40 53 35 40-8 53-28 37-61-19-37-18-45 3-61 17-12 17-15 3-30-15-17-12-31 5-31 5 0 26 19 48 41 32 33 48 42 85 46 25 3 53 2 63-2 10-5 22-7 26-6 4 0 17-3 27-9 17-9 20-21 20-78 0-47 3-63 10-52 5 8 10 11 10 5 0-14 49-35 56-24 3 5 13 5 25-1 10-6 19-8 19-5s11-2 25-11c25-16 34-44 15-44-17 0-11-17 18-48 42-46 51-59 45-66-11-11-10-61 1-68 6-4 11-17 11-30 0-21 4-23 45-20 25 1 47 7 48 12 2 6 12 10 23 10 10 0 19 4 19 10 0 5 6 7 14 4 20-8 56 31 56 59 0 40-59 144-107 189-25 24-55 53-67 66-11 13-38 33-59 45-20 11-44 31-52 44-15 22-14 24 12 40 15 8 40 32 54 53 24 34 25 39 12 64-17 32-14 82 5 79 6-2 12 6 12 18 0 11 4 18 9 15 5-4 14 6 19 21 6 16 11 22 11 14 1-11 5-10 16 5 12 15 14 16 15 3 0-22 70-42 102-30s88 77 88 101c0 27 28 130 39 144 5 6 9 52 9 101 0 50 4 101 10 115 7 20 4 37-15 80-13 30-29 58-36 62-6 4-8 10-4 14s-3 14-14 22c-37 25-76 132-49 132 20 0 98-65 104-85 3-11 21-36 39-55s43-56 55-81 35-58 51-72 34-41 41-61c6-20 15-36 20-36s13-15 19-33c7-19 25-47 42-63l31-29-7 36c-7 36-6 36 21 31 16-3 36-15 46-26 14-17 17-18 18-5 0 19-33 59-48 59-6 0-22 10-35 23-14 12-36 30-50 39-14 10-32 37-40 60-8 24-18 51-22 61-11 26 37 22 85-8 42-27 50-29 50-17 0 4-15 16-32 27-18 10-51 37-74 59-22 23-80 77-128 121s-94 92-102 107c-18 34-58 78-71 78-6 0-21 12-34 28-36 41-55 53-73 46-14-5-11-10 15-26 31-19 31-19 13-39-17-19-17-22-3-32 21-16 53-66 47-73-8-8-58 49-58 66 0 5-28 24-62 41-35 16-76 37-91 45-33 18-121 26-108 10 10-13-4-56-19-56-5 0-10 9-10 20s-7 20-15 20-15 9-15 20-5 20-11 20-9 6-6 14c8 21-28 50-50 41-10-5-23-7-30-6-6 1-14-3-18-9-6-9 22-14 70-12 11 0 14-2 7-5-10-4-9-9 4-24 9-10 12-19 6-19-5 0-8-10-5-22 3-15-2-11-15 12-17 31-25 36-71 41-86 11-87 13-49 61 43 55 59 86 46 90-11 4 31 98 44 98 4 0 3 11-2 25-8 20-6 27 5 31 8 4 15 17 15 30 0 16 8 27 21 32 33 13 176 15 184 3 3-6 15-11 26-11s18 3 15 8c-2 4 32 6 76 5 76-3 80-2 75 18-4 15-1 19 11 15 40-11 88-20 96-17 6 1 21 0 34-4 19-5 21-9 12-20-13-16-2-25 32-25 79 0 98 2 98 11 0 6 11 8 28 4 16-3 42-1 57 5 35 13 24 24-41 41-44 11-50 25-32 71 5 14 10 41 11 59 2 31 5 33 42 37 22 2 49 3 60 3 11-1 32-1 48-2 17 0 27-5 27-14 0-20 38-57 51-50 5 4 18-4 29-17 13-15 19-18 20-9 0 8 3 11 7 7 4-3 12 8 17 26 9 25 17 34 39 36 24 3 40 22 17 22-5 0-21 12-36 27-26 26-26 27-5 34 24 9 54 1 45-12-6-11 47-79 62-79 19 0 11-33-13-55-16-14-21-28-18-44 2-14 0-30-6-38-7-7-9-27-5-43 7-37-8-80-29-80-8 0-15-4-15-10 0-5-10-10-22-10-23 0-23 0 3-24 19-18 25-32 22-49-8-42 44-110 160-210 27-23 68-59 90-81 23-21 62-55 87-75 24-20 55-48 68-63s37-37 52-48l29-21 16 31c18 35 13 81-11 101-18 15-18 45 0 52 8 3 25 3 38 0 19-4 15 3-21 34-35 32-42 44-36 62 6 19 11 21 42 15 30-6 35-4 31 12-2 10-21 30-42 44-61 42-85 103-31 78 14-6 28-8 32-5 9 10-37 57-56 57-22 1-71 45-71 64 0 21-37 39-66 32-36-9-76 33-68 72 5 23 0 35-20 56-25 24-25 31-3 27 4-1 17 4 29 10 11 6 18 7 14 1-3-5 1-12 9-16 16-6 29 9 21 23-13 21 24 17 44-4 25-26 40-25 40 4 0 38 93 41 169 6 58-27 69-27 53 1-7 13-4 23 14 41 13 13 27 35 30 48 3 14 17 28 35 34 16 5 29 15 29 20 0 6 6 11 14 11 7 0 20 7 27 16 13 16 52 15 132-2 23-5 27-3 27 14 0 13-9 23-22 28-13 3-30 12-38 19s-26 16-40 21c-39 14-150 78-150 87 0 4 9 17 19 29 26 27 11 52-41 67-21 7-36 16-33 21 3 6 32-3 63-19 48-24 69-29 127-28 58 0 79-4 120-26 27-15 60-27 72-27 11 0 49-9 82-19 57-18 62-18 72-2 9 14 10 14 5-1-6-20 19-24 44-8 13 8 11 11-7 16-13 4-20 10-17 15s0 9-5 9c-6 0-20 9-30 19-20 20-20 20 6 23 15 2 29 9 31 17 3 10 0 12-11 8-10-4-14-2-11 6 2 7-8 20-24 29-47 28-218 68-290 68-50 0-79 6-117 24-54 27-503 139-650 163-49 8-128 16-175 18-128 6-243 15-265 22-16 4-15 1 8-21 15-14 32-26 37-26s26-10 47-22l38-23-28-3c-16-2-34 1-41 7s-34 14-60 17c-26 4-49 10-51 14-3 5 4 6 15 3s20 0 20 6-3 10-7 10c-5-1-24 0-43 1l-35 3 70 14-32 3c-62 6-68 5-68-10 0-11-11-15-45-14-81 3-265 4-280 2-35-5-120 14-120 28 0 19-47 41-127 60-55 13-99 15-224 10s-162-4-191 8c-19 8-56 17-83 21-69 8-96 16-89 26 16 26-183 52-213 28-9-8-14-9-10-2 11 17-11 21-198 38-203 18-196 18-165 0l25-14-37-1c-29 0-36-3-32-15 4-8 18-15 32-15s22-3 18-7c-3-4 6-13 21-20l28-13-30 6c-16 4-39 6-50 6-11-1-48-2-83-2-34 0-73-5-85-9-14-5-42-5-68 1-24 5-54 10-66 11-11 1-19 5-16 10 2 4-1 7-8 7-6 0-9-8-6-17 21-67 22-63-14-57-52 10-130 48-167 83-18 17-40 31-48 31s-14 6-14 13c0 28-181 79-196 55-3-4-11-5-17-1-7 4-23 9-37 10-14 2-45 8-70 14-32 7-46 7-48 0-2-6-8-9-13-5-5 3-9 0-9-5 0-6 9-16 20-23s20-15 20-18c0-5-85-4-180 4-30 2-64 4-75 5-15 1-17 3-6 10 8 5 9 11 3 15-14 8-256 11-269 3-15-9-83 31-83 49 0 10-13 14-46 14-37 0-47-4-51-19-3-13-11-17-24-14-10 3-26 2-35-1-13-5-14-9-4-20 9-12 5-17-27-25-48-14-96-14-88-1 3 6 17 10 30 10s28 6 32 13c10 15 36 31 95 60 26 12 50 28 53 36 9 23-35 62-65 58-14-2-19-2-12 0 10 4 9 8-5 19-21 16-37 18-28 4 10-16-7-12-27 7-15 13-41 17-141 17-67 1-133-3-146-8-18-6-22-5-19 5 7 20-10 49-28 49-8 0-12-4-9-10 10-15-33-12-59 5-27 18-162 29-192 16zm776-241c11-7 7-10-17-10-18 0-33 5-33 10 0 13 30 13 50 0zm-1574-381c24-27 12-33-16-9-13 11-29 20-36 20s-15 4-18 8c-10 17 53-1 70-19zm6239-139c3-6-1-7-9-4-18 7-21 14-7 14 6 0 13-4 16-10zm-190-170c8-13-15-13-35 0-12 8-11 10 7 10 12 0 25-4 28-10zm-3478-727c40-93 45-112 33-130-10-16-11-16-6 0 3 9 1 17-4 17-6 0-10-9-10-20 0-12 7-20 18-20 10 0 13-3 6-8-6-4-14-16-18-27-3-13-23-27-49-36-36-14-42-19-39-42 3-22-2-27-37-38-30-9-47-9-63-1-22 10-22 11 6 11 28 1 66 25 66 43 0 4 9 17 21 29 11 11 18 27 15 35-3 7 0 17 7 21 33 21 42 100 21 176-9 28 20 20 33-10zm-1923-722c3-5-1-11-9-15-8-3-15-12-15-21 0-8-7-15-15-15-10 0-15-10-15-31 0-27-2-30-15-19-18 15-20 60-3 60 6 0 9 3 6 6-9 9 25 42 44 43 9 1 19-3 22-8zm59 2c-7-2-19-2-25 0-7 3-2 5 12 5s19-2 13-5zm137-13c11-8 7-9-15-4-37 8-45 14-19 14 10 0 26-5 34-10zm60 1c0-6-9-9-20-8s-20 5-20 9 9 8 20 8 20-4 20-9zm-1203-17c-3-3-12-4-19-1-8 3-5 6 6 6 11 1 17-2 13-5zm-77-44c0-5-5-10-11-10-5 0-7-5-4-10 4-6 15-8 26-5 14 5 20 0 25-19 3-14 12-30 20-37 11-9 11-16-2-41-10-20-20-28-30-24-9 3-22 6-30 6-10 0-14 14-14 54 0 30-4 58-10 61-6 4-5 11 3 20 14 17 27 19 27 5zm-35-50c10-33-6-44-21-15-17 34-17 35 0 35 8 0 17-9 21-20zm-30-78c-6-6-25 45-24 66 0 9 7-1 15-22 8-22 12-41 9-44zm-274-224c6-13 25-36 43-51 17-16 25-26 18-22-8 4-20-1-28-11-11-14-17-15-20-6-3 6-15 12-26 12-26 0-47 27-48 62 0 41 42 52 61 16zm-1241-1143c0-8-4-15-10-15-5 0-7 7-4 15 4 8 8 15 10 15s4-7 4-15zm3850-755c0-5-2-10-4-10-3 0-8 5-11 10-3 6-1 10 4 10 6 0 11-4 11-10zm-3246-278c3-5-1-9-9-9s-12 4-9 9c3 4 7 8 9 8s6-4 9-8zm4691-481c3-5 1-12-5-16-5-3-10 1-10 9 0 18 6 21 15 7zm210-91c10-11 13-20 7-20s-16 9-22 20-9 20-7 20 12-9 22-20z"/>
   <path id="path14" d="m20570 13201c0-17 29-33 48-27 13 4 22 1 26-9s-1-15-15-15c-12 0-17-4-13-11 3-6 16-8 29-5 12 3 60 1 105-5 82-10 108-6 80 11-25 16-116 40-152 40-18 0-42 7-52 15-22 16-56 20-56 6z"/>
   <path id="path16" d="m22790 10934c0-8-4-12-10-9-5 3-10 1-10-5 0-7 6-10 14-7 25 10 91-87 80-118-3-7-1-16 5-20 22-13 10-23-18-15-37 10-46 2-25-21 14-16 15-19 2-24-9-4-15-19-15-38 0-18 2-26 4-20 7 19 50-13 57-43 7-27 33-32 42-9 4 8 12 15 20 15 27 0 14 19-26 36-22 10-40 21-40 26 0 11 14 10 27-3 8-8 16-7 31 2 16 10 29 9 75-10 31-13 61-20 68-15 8 4 9 3 5-4s-2-12 4-12c8 0 10 9 6 24-9 38 3 56 38 56 33 1 66 20 66 38 0 6-7 9-16 5-12-5-15 2-13 40 2 32 6 44 16 40 7-3 13-1 13 5 0 5-9 12-20 15-17 4-21-1-26-34-7-41-24-44-24-3 0 29-16 32-25 4-6-19-8-19-78 7-65 23-113 47-127 63-10 12-78 50-89 50-6 0-11-7-11-16z"/>
   <path id="path18" d="m22940 10595c0-9-5-13-11-9-8 5-10-1-5-19 3-15 1-29-5-32-7-5-5-13 6-25 8-9 13-24 9-34-4-11-1-16 10-16 8 0 20-9 26-20 16-31 19-123 4-140-13-15-14-19-14-45 0-9-12-21-27-28-16-6-31-16-35-22-11-14-29 16-22 37 7 22-7 29-28 14-14-10-14-15-2-36 7-14 13-19 14-11 0 8 2 12 5 9 6-6-18-58-27-58-12 0-10-38 2-42 6-2 6-9 0-17-7-12-11-12-24-2-12 10-26 11-65 1-27-6-60-11-73-10-42 4-58 0-58-12 0-17-50-73-72-81-10-3-18-15-18-26s-6-25-12-31c-7-6-23-19-36-29l-23-20 27-30c15-17 31-28 37-24 6 3 7 2 4-4-4-5 6-28 21-49s27-46 27-54 10-16 23-18c12-2 22-9 22-15 0-7 10-1 23 13 19 21 22 35 20 90-1 37-2 70-4 75-4 25 3 24 32-4 33-33 65-42 55-15-8 20 11 54 29 54 8 0 15-4 15-10 0-19 15-10 27 16 6 14 10 31 7 39-3 7-1 16 5 20 6 3 11 0 11-8 0-18 40-54 64-59 15-2 21 5 28 30 5 18 15 32 23 32 22 0 18 28-5 35-11 3-20 10-20 15 0 4 9 6 20 3s20-8 20-12c0-3 20-6 45-6 41 0 45 2 45 25l1 25 15-28c17-32 38-26 31 9-5 28 14 32 37 8 15-14 17-14 32 0 8 9 12 21 9 26-4 6-2 17 4 24 8 10 6 19-9 36-11 13-21 32-21 44-1 12-3 28-4 36s-3 22-4 31c0 9-10 26-21 39s-20 29-20 37c0 10 6 12 20 8 11-4 20-2 20 4s-4 11-10 11c-5 0-10 22-10 49 0 47-3 53-65 117-36 37-65 74-65 81s-6 13-14 13-21 3-30 6c-11 4-16 1-16-11zm50-29c0-2-7-6-15-10-8-3-15-1-15 4 0 6 7 10 15 10s15-2 15-4zm-183-561c8-22 0-27-31-19-21 5-24 9-15 20 15 19 38 18 46-1zm-73-30c-7-17-30-20-39-6-4 8 9 15 37 20 4 0 5-6 2-14zm-87-17c-3-8-6-5-6 6-1 11 2 17 5 13 3-3 4-12 1-19zm29-5c-7-27-31-53-48-53-4 0-7 6-5 13 1 7-11 13-30 15-18 2-33 8-33 14 0 7 17 8 49 4 44-6 50-4 56 14 10 30 18 24 11-7z"/>
   <path id="path20" d="m15534 10095c-10-8-36-15-56-15-21 0-38-4-38-10 0-5-9-10-21-10-30 0-20-32 15-48 25-13 31-12 57 7 15 12 33 21 38 21 6 0 8 6 5 14-3 9 3 20 15 28 21 13 28 28 13 28-5 0-17-7-28-15z"/>
   <path id="path22" d="m22123 8618c-9-14-7-158 2-192 6-19 5-20-8-3-32 39-36 7-10-74 17-52 43-89 63-89 6 0 10 8 10 17s3 13 7 10c3-4 1-18-7-31-14-26-7-61 10-51 5 3 10 1 10-4 0-17-30-13-36 4-4 8-13 15-21 15-10 0-6-11 15-37 16-21 37-52 46-70 21-42 36-50 52-28 17 22 8 64-16 86-18 16-18 17 5 29 25 14 58 4 34-10-10-7-10-12 1-25 13-16 15-16 26 0 11 15 13 15 22-2 6-10 14-14 18-10 5 4 2 17-5 28-23 38-5 29 41-20 42-45 49-61 26-61-4 0-7 3-6 8 3 10-25 52-34 52-14 0-8-31 7-36 10-4 15-20 15-48 0-27 3-36 9-27 7 11 13 11 32-3 35-24 41-20 23 15-9 19-12 34-6 38 5 3 11 18 14 33 4 22 0 29-23 39-31 12-39 29-14 29 8 0 15-4 15-10 0-12 10-13 29-1 10 7 11 13 2 30-14 24-31 28-31 6 0-14-3-14-30 0-17 9-34 13-39 10-5-2-12 2-15 11-5 13-15 15-50 10-34-5-45-4-49 9-6 14 5 19 41 18 6-1 12 2 12 5 0 10-35 31-52 32-20 0-25 14-20 52 3 18 10 28 22 28 25 0 36 84 14 117-8 13-16 42-16 64 0 39-1 39-33 33-19-3-35-1-39 5-10 15-53 14-63-1z"/>
   <path id="path24" d="m22470 8089c0-10 13-28 29-40 17-12 27-27 24-36-4-11-8-10-18 4-19 25-27 11-20-31 4-21 13-36 21-36 9 0 14-11 14-29 0-22 7-31 28-40 16-7 29-17 29-24s3-22 7-33c5-18 3-21-19-21-14 0-25 3-25 8s-4 9-10 9c-5 0-7-13-3-32 5-23 3-29-6-24-8 5-14 0-18-13-7-26-11-26-33 1-15 20-21 21-44 10-14-6-26-18-26-27s-9-15-25-15c-14 0-27-6-29-12-2-7-7-27-13-43-5-17-8-36-5-43 6-18 32-14 32 6 0 9 7 26 15 36 15 19 15 19 15-2 0-23 14-30 25-12 3 5 12 7 20 3 10-3 15 2 15 16 0 18 3 20 19 11 16-8 20-20 19-62-1-45 2-54 27-74 16-13 38-24 50-26s21-12 23-26c4-24 26-25 28-1 0 8 4 22 8 32 5 11 3 29-5 45-18 36-17 45 4 48 10 1 17-4 17-15 0-9 7-26 15-37 13-18 14-17 15 18 0 20 5 40 10 43 6 3 10 15 10 27 0 37-43 178-52 172-6-4-6 10-2 32 6 33 5 36-11 31-12-5-18-1-22 13-6 23-23 27-23 5 0-8-7-15-16-15-12 0-14 4-6 13 5 7 6 21 1 32-13 33-10 37 21 33l29-4-19 31c-11 18-20 43-20 56 0 38-16 53-59 55-34 2-41-1-41-17z"/>
   <path id="path26" d="m22290 8041c0-6 5-13 10-16 7-4 9-30 7-61-4-56 0-63 22-41 10 9 15 9 18 0 2-7 11-9 19-6 21 8 17-20-6-40-17-14-18-20-8-37 7-11 18-20 24-20 7 0 14-7 18-15 9-25 24-17 36 20 6 19 16 35 21 35 6 0 7-4 4-10-7-11 24-13 49-4 24 9 19 39-9 54-20 11-25 21-25 52s-3 38-20 38c-11 0-20-4-20-10 0-5-8-10-19-10-14 0-17 6-13 25 4 21 0 25-19 25-13 1-35 7-49 15-30 17-40 18-40 6zm157-93c-3-8-6-5-6 6-1 11 2 17 5 13 3-3 4-12 1-19zm-7-73c0-5-5-3-10 5s-10 20-10 25c0 6 5 3 10-5s10-19 10-25zm17 3c-3-8-6-5-6 6-1 11 2 17 5 13 3-3 4-12 1-19zm-40-20c-3-8-6-5-6 6-1 11 2 17 5 13 3-3 4-12 1-19z"/>
   <path id="path28" d="m22104 7970c-4-19-15-47-26-62-11-16-16-33-13-38 4-6 3-9-2-8-12 4-90-76-98-101-4-13-2-28 4-34 8-8 11-8 11 0 0 5 23 33 50 61 28 28 50 55 50 61 0 16 43 58 64 62 27 5 31 25 6 32-14 3-20 13-20 32 0 15 4 24 10 20 6-3 10-2 10 4 0 5-9 9-20 8-14-1-22-11-26-37z"/>
   <path id="path30" d="m19114 7858c-4-6-2-14 4-16 7-2 12-12 12-23 0-12-5-16-15-13-8 4-15 1-15-5s5-11 10-11c13 0 13-43 1-55-8-9 10-146 24-183 9-23 48-31 80-15 52 26 65 43 65 86 0 41-40 136-66 158-8 6-14 17-14 23 0 15-52 66-67 66-7 0-15-5-19-12z"/>
   <path id="path32" d="m21953 7652c-5-4-16-24-24-44-7-21-17-38-22-38-4 0-13-13-18-29-6-16-22-37-35-46-20-13-23-19-13-31 9-12 7-14-15-14-15 0-34-7-42-15-9-8-24-15-35-15-13 0-19-7-19-21 0-12-18-43-40-69-33-40-47-49-85-54-24-4-47-11-50-17-4-5-11-7-16-4-8 5-14-32-10-58 1-4-3-17-9-28-9-16-14-18-33-7-12 7-30 11-40 9-9-1-20 5-23 13-9 22-37 4-56-35-17-33-16-70 0-156 14-71 27-92 52-86 17 5 20 1 19-28 0-19 3-55 6-81 8-50 7-49 83-48 35 0 42-3 42-19 0-23 16-36 25-21 4 6 14 8 24 5s27 4 39 15c12 12 22 16 22 10 0-5 7-10 15-10s15-5 15-11c0-7 9-9 21-6 33 9 49-3 49-34 0-35 6-36 61-4l44 24 12-22c11-22 12-22 23 7 6 16 8 37 5 47-4 10 2 35 11 56 12 24 14 38 7 40-19 7-2 47 34 81 19 17 38 32 44 32 5 0 7 22 3 53-7 67 9 92 59 89 54-4 57 16 8 59-34 29-42 41-36 58 4 14-1 31-14 50-18 25-20 33-9 56 8 19 8 29 0 37-14 14 5 34 42 44 36 9 42 22 11 30-30 7-33 24-4 24 25 0 59 17 59 31 0 5-10 14-22 19-29 13-61 33-69 43-3 4-12 7-20 5-9-2-13 4-11 17 1 12-8 30-23 43-13 12-22 28-19 36 6 17-7 28-23 18z"/>
   <path id="path34" d="m20305 7500c-20-32 11-76 128-186 34-32 57-63 57-77 0-7 20-27 45-45 25-17 44-35 43-39-5-21 34-122 50-128 28-9 102-142 108-192 2-24 32-68 77-113 15-15 27-31 27-36 0-4 40-47 89-95 88-87 90-88 121-77 25 8 35 8 46-4 12-12 13-20 3-41-13-28-29-36-29-15 0 15-13 1-16-17-2-11 8-15 36-15 34 0 70-22 62-39-1-3 14-9 35-14 21-4 47-11 58-16 35-16 53-20 59-13 12 12 90 0 127-18 38-20 188-43 214-34 8 4 15 1 15-6 0-6 6-10 13-7 6 2 26-2 44-10 44-18 55-17 48 6-5 16-2 18 15 14 12-3 20-14 20-27 1-21 1-21 15-2 8 11 15 15 15 8 0-6 17-14 38-17 20-4 47-10 58-15 14-5 40-4 70 5 27 7 43 14 35 14-8 1-11 4-8 7 4 4 12 3 19-3 20-15 55-13 69 3 9 11 15 11 25 3 23-19 163-20 224-2 30 9 61 15 68 14 8-1 19 2 26 8 6 5 18 6 25 2 13-8 77 1 88 13 16 16-10 19-102 13-27-2-53 2-58 7-5 7-15 1-28-17-11-15-25-24-31-21-13 8-71 16-131 18-33 0-51-4-57-14-7-11-10-12-10-2 0 9-7 11-19 7-11-3-22-1-26 5-3 5-1 10 5 10s8 5 4 11c-5 8-8 8-13 0-8-12-45-10-57 2-13 13-55 7-61-9-3-8-11-13-19-10-7 3-14 0-17-7-2-8-9-6-21 6-22 22-38 18-51-11-5-12-15-22-22-22-16 0-17 16-2 25 15 10-28 38-46 31-21-8-45 3-45 20 0 15-2 16-70 18-33 1-45 5-48 18-2 13 2 16 17 13 28-5 83 14 78 28-2 6-31 9-74 8-48-2-81 3-101 13-16 8-32 12-36 9-3-4-12 2-20 12-13 18-14 17-30-8-13-19-24-25-44-22-15 1-45 3-67 4-31 1-43 6-50 23-6 12-20 23-33 25s-37 10-55 19c-19 11-32 13-35 6-2-7-14-7-34-1-17 4-35 6-40 3-5-4-7 8-3 28 3 18 7 67 10 108 5 102 12 122 36 109 22-11 59 4 59 24 0 8-3 8-9-2-6-9-11-10-15-2-4 6-5 15-2 20s-3 11-14 14c-20 5-24 11-34 60-8 33-27 34-60 4-27-25-25-37 6-37 10 0 18-5 18-11 0-7-9-9-22-5-13 3-26 6-30 6-5 0-8 5-8 11s-7 17-15 25c-8 9-15 29-15 45 0 24-4 29-23 29-13 0-32 6-42 14-17 12-18 16-5 31 20 24 23 60 6 74-8 7-12 20-9 28 5 12 2 15-10 10-11-4-17-1-17 8 0 8-11 17-25 21-14 3-25 12-25 20 0 13-5 16-40 18-8 1-15 10-15 21 0 12-8 21-20 23-11 2-25 8-31 13-5 4-19 6-31 3-15-4-23 0-28 15-3 12-11 21-16 21s-9 5-9 11c0 13-15 28-60 59-19 13-41 30-48 37s-18 13-23 13-9 7-9 15c0 9-5 21-10 28-6 7-19 23-30 36-16 19-29 23-69 23-35 0-57 6-72 19-24 21-45 24-54 9zm1725-1226c0-2-7-4-15-4s-15 4-15 10c0 5 7 7 15 4 8-4 15-8 15-10z"/>
   <path id="path36" d="m18580 7351c0-17 4-32 10-36 5-3 7-12 4-19-3-8-1-17 5-21 6-3 11-12 11-18 0-7-4-6-11 3-9 12-10 12-5-3 3-10 6-27 6-38 0-23 23-25 40-3 11 13 10 16-8 21-12 3-19 10-16 15 10 16-6 79-18 72-7-5-9 4-6 25 2 17 1 31-4 31-4 0-8-13-8-29zm50-131c0-5-4-10-10-10-5 0-10 5-10 10 0 6 5 10 10 10 6 0 10-4 10-10z"/>
   <path id="path38" d="m22790 7184c-8-14-14-43-15-65 0-21-4-39-10-39-5 0-3-5 5-11 10-7 11-12 4-15s-9-15-6-26c5-21 6-21 13-2 6 16 8 14 8-10 1-24-2-27-19-23-24 6-34-6-25-32 7-25 65-35 65-12 1 13 2 13 11-2 20-34 26-7 8 31-26 52-18 74 22 60s45-6 15 23c-24 23-24 24-5 37 18 13 27 62 11 62-4 0-18-7-30-16-22-15-22-14-22 25 0 47-11 52-30 15z"/>
   <path id="path40" d="m22546 7130c-23-24-45-39-55-36-9 3-51 8-93 12-43 3-78 10-78 14 0 10-36 19-47 11-5-3-12-14-16-24s-12-15-17-12c-14 9-50-32-50-57 0-10-4-18-8-18-5 0-7-13-4-29 2-17-3-39-12-53-9-12-16-37-16-54 0-34-26-94-41-94-5 0-8-12-5-27 2-16 5-35 5-44 1-11 8-15 24-12 20 4 23 0 25-33 2-21-2-60-9-87-14-58-6-69 42-61 32 6 35 9 36 42 2 157 8 202 26 208 27 9 33-3 19-38-11-29-9-34 17-57 21-20 26-31 21-46-8-21 5-45 24-45 6 0 19 9 29 20 9 11 22 20 28 20 8 0 7-6-3-17-25-29-28-60-7-79 18-16 20-16 39 1 12 11 18 25 15 36-3 9-2 20 2 22 4 3 8 22 8 44-1 31-4 37-19 35-22-4-45 25-39 49 3 10-9 41-26 70-25 40-29 54-20 65 6 8 18 14 25 14s24 14 36 31c17 23 28 29 45 24 18-4 23-1 23 15 0 27-25 36-56 20-13-7-40-14-60-14-25-1-42-9-55-25-18-22-49-23-49-1 0 5-9 19-21 31-16 16-20 28-15 52 10 51 19 54 146 45 170-11 200-10 200 13 0 6 11 25 25 43 15 20 23 40 19 50-9 23-14 21-58-24z"/>
   <path id="path42" d="m22855 6772c-16-2-33-9-37-15-6-9-8-9-8 0s-7 7-20-4c-24-20-26-38-5-29 11 4 15-1 15-18 0-23 2-24 35-13 19 6 35 17 35 24 0 11 4 11 20 3 12-6 29-8 39-5 11 3 34-3 53-15 42-26 48-25 48 3 0 51-75 80-175 69z"/>
   <path id="path44" d="m22699 6296c-2-2-31-7-64-11-42-4-65-12-75-25-8-11-36-28-62-40-29-13-49-29-54-43-3-12-13-29-21-39-11-12-11-18-3-23 21-13 87 17 123 54 20 21 54 43 79 51 56 18 120 58 113 70-6 10-28 13-36 6z"/>
  </g>
  <g id="g54" transform="matrix(.016963 0 0 -.016963 0 239)">
   <path id="path48" d="m23110 6970c-19-11-40-24-47-29-8-7-14-7-18-1-7 11-45 14-45 4 0-17 44-64 60-64 28 0 50-11 50-25 0-29 34-43 93-39 42 3 57 2 52-6-4-7-17-9-30-6-14 4-28 0-35-9s-21-13-30-10c-20 6-50-3-50-16 0-5 11-14 25-19s25-16 25-25c0-8 5-15 11-15 5 0 7-5 4-10-9-15 5-51 16-44 6 3 17 0 25-7 8-6 18-9 21-5 4 4 2 10-4 14-7 5-9 13-3 21 7 12 14 11 45-3 20-10 45-25 55-33 10-9 32-18 48-19 39-5 187-76 186-89-1-5 5-19 12-30 8-11 14-27 14-37s3-18 8-18c4 0 7-16 8-35 0-27-3-35-17-35-19 0-69-64-69-88 0-14 90-14 101 1 3 4 21 10 40 12 32 4 38 1 72-44 37-48 38-49 92-49 31 1 58-2 62-5 3-4 14-2 24 3 15 8 17 7 14-10-2-11-7-25-10-30-3-6-2-10 3-10 12 0 22 24 22 51 0 10 5 19 10 19 6 0 10 7 10 16 0 8 4 13 9 10s9 5 9 18c0 40 73 92 96 68 4-4 24-12 44-17 22-6 41-19 47-33 5-12 13-22 17-22 5 0 8-8 8-19 0-10 7-24 15-31s12-16 9-21 2-9 10-9c9 0 18-11 22-24 4-18 17-27 52-37 26-7 61-12 77-11 17 0 40-6 52-14 26-16 99-19 108-4 4 6 3 10-2 9-4-1-15-1-23 0-12 1-12 3-2 9 9 6 0 13-28 22-36 12-55 30-30 30 23 0 8 19-17 22-23 2-27 7-25 27 3 22 1 23-26 18-27-6-30-3-43 36-8 23-31 58-51 78-21 20-38 46-38 57 0 18 6 22 35 22 27 0 35 4 35 18 0 21-33 55-56 58-9 1-23 9-32 17-10 8-29 17-43 21-22 5-25 10-21 31 2 14 8 25 13 25s9 7 9 16c0 14-3 14-15 4-13-11-19-9-35 8-11 12-20 26-20 32s-4 9-9 5c-5-3-16 2-24 10-9 8-24 15-35 15s-25 7-32 15c-6 8-37 21-68 30-32 9-75 27-97 39-22 13-46 21-52 19-7-3-13 0-13 5s-19 12-41 16c-23 4-72 23-109 43-63 33-70 35-98 22-17-7-33-21-35-31-3-11-15-18-31-18-14 0-26-4-26-8 0-5-8-18-17-30-10-11-25-30-33-41-8-12-24-21-36-21-17 0-24 9-34 48-7 26-15 41-17 34-7-18-23-4-23 21 0 18 2 20 11 7 9-12 10-11 4 5-4 11-8 37-10 58-5 46-13 60-30 53-7-2-29 4-49 15-44 23-61 23-106-1z"/>
   <path id="path50" d="m23852 6078c-5-7-13-24-17-38s-16-40-28-58c-11-19-21-52-23-74s-8-46-14-53c-5-7-12-41-15-76-6-76-40-186-66-215-11-11-19-25-19-31 0-20-31-43-56-43-16 0-39 15-64 40-22 22-48 40-58 40s-25 11-32 25-19 25-26 25c-8 0-16 11-20 25-7 27-24 34-24 10 0-10-18 2-49 31l-49 47 20 21c11 12 24 31 29 44s14 20 20 17c6-4 8-13 5-20-5-13 31-28 46-19 8 5 4 52-6 62-3 3-12-1-21-8-13-11-15-9-15 14 0 14 5 25 11 24 6-2 22 17 36 42 20 37 21 46 10 55-8 5-12 16-10 23 3 6 0 12-6 12s-11-4-11-9-9-11-21-14c-15-4-19-2-15 9 7 19 0 18-34-8-23-17-33-19-42-10-7 7-22 12-34 12-13 0-29 6-36 13-7 8-19 12-26 9-6-2-12 5-12 15 0 15-2 16-10 3-9-13-12-13-21 3-6 9-14 15-20 12-5-4-9 3-9 14 0 18-3 19-25 11-14-5-25-6-25-3 0 4-5 2-12-5-14-14 7-43 26-36s29-25 14-43c-9-12-26-14-65-10-30 3-53 1-53-4s-5-9-12-9c-18 0-67-60-62-75 3-8-4-18-15-25-12-6-21-16-21-22 0-7-10-22-22-35-18-19-20-26-9-32 23-15 2-30-35-25-20 2-43-1-50-7-12-10-13-9-8 5 4 10 0 18-10 22-9 3-16 12-16 19 0 8-14 24-31 36-29 20-33 21-44 6-7-9-14-15-16-12-11 10-69 15-69 5 0-5 5-10 10-10 6 0 10-10 10-22-1-22-1-23-15-4-14 18-15 18-15 2 0-13-5-16-20-11-17 5-20 2-20-21 0-15-3-25-6-22-11 11-58-44-60-70-1-15-3-31-3-36-1-4-17-5-37-1-23 4-34 3-30-4 4-5 2-12-4-16-7-4-7-12 0-26 7-11 7-19 1-19-5 0-11-8-14-17-2-10-8 1-12 25-4 23-11 42-14 42-4 0-24-17-44-38-29-29-37-46-37-73s-9-45-32-71c-18-20-41-47-51-62-25-36-73-59-129-61-28-1-55-8-66-18-10-9-30-17-44-17s-31-7-38-15c-9-11-25-14-51-11-22 2-41 0-45-5-3-5-12-9-20-9s-29-13-47-29c-17-17-48-37-68-46-20-10-42-29-50-44l-12-26-6 30c-5 24-8 27-16 15-25-38-35-65-35-92 0-16-11-46-25-66-30-44-30-53-7-129 23-75 18-113-8-57l-18 39-20-50-11 25c-10 22-11 19-6-19 3-24 13-57 21-73 9-17 17-53 19-82 2-28 7-64 10-81 4-16 7-43 6-60 0-16-2-84-3-149-2-85-7-121-15-123-7-3-13-15-13-27 0-30-27-66-51-66-12 0-23-10-29-26-14-36-13-44 9-44 11 0 22-8 25-18 8-24 40-39 98-46 45-5 98 8 98 24 0 8 32 21 61 25 9 1 25 11 36 22 25 25 97 35 215 29l86-5 44 45c23 24 51 44 60 44s19 4 22 9 18 12 33 16c16 3 36 13 45 22 12 11 27 13 50 9 33-6 171 25 193 44 6 5 52 12 103 16 87 7 94 6 117-16 13-12 30-20 37-18 7 3 30-6 50-19 21-12 43-23 50-23 9 0 9-3 0-12-17-17-15-48 2-48 23 0 34-91 13-104-14-9-12-14 16-39 32-28 32-28 35-6 4 25 68 89 89 89 8 0 35 20 60 45s48 43 52 39c3-4 0-9-6-11-7-3-13-13-13-23s-12-25-26-35c-14-9-32-32-40-51s-25-39-37-43c-13-5-29-17-37-27-14-16-13-17 10-11 14 4 33 7 43 7s27 16 38 35c12 19 25 35 30 35 20 0 7-50-21-78-33-33-30-44 10-36 23 5 29 1 40-27 12-29 12-36-6-68-17-31-19-41-9-70 7-19 22-38 34-42 11-5 21-12 21-17s18-9 41-9 44-5 48-10c3-6 16-15 28-22 19-10 30-8 70 13 26 14 50 22 53 18s22-16 43-26c20-11 37-26 37-34 0-12 4-12 21 4 58 52 164 104 216 104 64 0 122 32 123 67 0 7 11 24 25 39s25 32 25 39c0 6 20 30 45 53s67 68 92 100c61 76 110 123 156 147 20 11 37 25 37 31s12 24 28 41c45 49 62 73 62 85 0 7 10 28 23 47 57 87 89 146 93 175 3 17 12 48 20 70 16 41 11 65-5 25-5-13-10-19-10-14-1 11 17 82 26 105 3 8 5 19 4 23-1 5 8 23 19 42 11 18 20 41 19 51 0 14-2 15-6 4-15-41-53-48-53-9 0 10-4 19-9 19s-11 14-14 30c-4 17-13 30-21 30s-16 10-18 23c-2 12-9 21-16 19-11-2-12 10-6 54 6 54 6 57-14 52-13-4-23 0-26 9-5 13-9 13-22 2s-15-7-13 28c2 25-4 51-14 67-21 31-21 36-2 36 10 0 14 8 11 23-2 12-9 21-16 19-17-4-79 39-86 60-3 10-11 15-20 11-7-3-14 0-14 7 0 6-4 9-9 6-15-10-34 23-29 49 3 14 1 28-4 31-4 3-5 10-2 16 12 19 4 101-11 118-15 16-17 123-2 146 4 7-4 19-20 29-24 16-25 19-10 30 12 9 14 14 5 23-7 7-19 12-27 11-11 0-10-3 4-9 20-9 20-9 0-10-11-2-23-2-27-1-5 0-8-3-8-9 0-5-7-10-16-10-12 0-14 10-12 50 2 37 7 49 16 45 10-4 13 5 12 33-1 20-1 39 0 42 7 21 7 40-1 40-10 0-13-20-10-69 2-20-1-31-7-27-6 3-9 14-7 24 1 9-2 22-7 28-10 14-7 35 7 47 6 5 3 7-7 3-17-5-43 25-32 37 3 3 3 19-1 36-7 32-25 40-43 19zm-2362-1343c0-8-2-15-4-15s-6 7-10 15c-3 8-1 15 4 15 6 0 10-7 10-15zm1900-1020c-7-9-15-13-17-11-7 7 7 26 19 26 6 0 6-6-2-15z"/>
   <path id="path52" d="m23246 3492c-14-21-28-57-30-80-3-22-10-50-16-61-6-12-10-39-8-60 2-35 5-40 31-45 31-6 97 19 97 36 0 7 5 7 13 0 10-8 20-4 40 18 15 15 27 35 27 44s8 16 19 16c12 0 23 9 27 23 4 12 17 38 30 58 31 49 18 60-49 41-88-24-91-24-112-5-11 11-24 21-30 24-5 2-9 10-7 17 5 21-4 13-32-26z"/>
  </g>
  <g id="g78" transform="matrix(.016963 0 0 -.016963 0 239)">
   <path id="path56" d="m16006 13671c-4-5-25-12-49-16-42-7-127-43-138-59-4-5-12-5-18-2-6 4-11 2-11-3 0-6 6-12 13-12 6-1 23-3 35-4 14-1 33 7 44 19 12 11 18 16 15 10-4-7 3-14 16-18 31-8 39-7 32 4-3 6 1 7 9 4 9-3 13-11 9-17-4-7 20-8 78-4 50 3 76 2 64-3-16-7-11-9 21-9 29-1 44 4 48 14 3 8 14 15 25 15 26 0 51 10 51 21 0 5-9 9-19 9-11 0-21 4-23 10-3 8-68 18-132 20-15 0-16 3-6 15 11 13 7 15-23 15-20 0-38-4-41-9zm119-51c-10-11-30-20-44-19l-26 1 25 8c14 4 18 9 10 10s-4 6 10 10c40 13 44 11 25-10zm-255-14c0-3-4-8-10-11-5-3-10-1-10 4 0 6 5 11 10 11 6 0 10-2 10-4z"/>
   <path id="path58" d="m15662 13626c-18-6-30-15-26-19s2-7-4-7c-7 0-12 5-12 10 0 12-72 12-145 0-50-7-36-13 32-13 18 0 30-4 27-9-3-4-4-8-2-9 53-9 119-9 114 0-5 7 2 11 16 11 16 0 19-3 10-9-16-9 30-21 82-21 24 0 28 3 16 10-8 6-28 7-45 4-27-6-28-5-16 10 7 9 22 16 33 16 10 0 16 5 13 10-3 6-15 10-26 10-10 0-19 5-19 10 0 12-6 12-48-4z"/>
   <path id="path60" d="m14170 13582c-9-10-25-12-52-8-30 5-40 3-45-10-3-9 0-20 8-25s9-9 3-9-17 7-25 16c-7 9-22 14-36 11-13-2-25-1-28 3-2 4-30 5-62 4-32-2-70-3-85-4-22 0-26-4-21-17 4-10 18-29 32-42l26-24-27 16c-16 10-29 13-33 7-3-5 13-18 37-30 50-24 54-25 38-5-24 29 51-18 78-47 13-16 31-28 40-28 10-1 35-9 57-20 59-29 82-26 90 10 4 17 13 30 20 30 15 0 73 50 59 50-5 0-1 5 9 11 20 12 52 4 85-22 21-16 22-18 5-28-20-12-13-14 33-11 18 1 35-3 39-9 7-12 53-5 70 10 5 5 17 9 28 9 10 0 15 5 12 10-3 6-19 10-35 10s-30 7-34 16c-4 11-14 15-31 12-14-3-25-1-25 3 0 14-91 51-108 44-13-5-14-3-5 6 8 8 31 9 75 5 107-12 199-6 206 14 2 6 12 10 22 10 26 0 34 17 13 28-29 15-151 21-158 8-3-8-7-7-11 2-9 18-54 15-54-4 0-13-3-14-15-4-21 18-178 19-195 2zm88-50c3-9-2-13-14-10-9 1-19 9-22 16-3 9 2 13 14 10 9-1 19-9 22-16zm-198-67c0-3-8-5-18-5s-19 7-19 14c0 11 5 13 19 5 10-5 18-12 18-14zm-70-25c0-5-4-10-10-10-5 0-10 5-10 10 0 6 5 10 10 10 6 0 10-4 10-10z"/>
   <path id="path62" d="m16641 13383c-14-3-35-12-48-20-16-11-65-18-149-24-120-8-163-15-174-28-11-14-86-44-103-42-13 2-18-3-16-16 5-32-11-59-44-75l-32-16 25-10c15-7 19-11 9-11-9-1-29-12-45-26-23-19-25-25-11-25 25 0 21-19-8-30-14-5-25-16-25-24 0-21 27-39 50-33 11 3 18 1 14-4-3-5 7-14 22-19 21-8 29-8 36 2 6 10 8 9 8-3 0-22 21-29 100-36 120-9 133-9 138 6 3 10 0 12-12 8-9-4-15-3-12 2 3 4-13 14-34 21-22 7-40 16-40 19 0 4-12 14-28 23-27 16-44 68-22 68 6 0 10 5 10 10 0 14 105 120 119 120 6 0 19 8 29 18 23 23 66 36 197 62 174 35 209 57 127 80-38 10-41 10-81 3zm-514-219c-3-3-12-4-19-1-8 3-5 6 6 6 11 1 17-2 13-5z"/>
   <path id="path64" d="m14635 12979c-4-6-14-8-23-4-8 3-26-4-40-17s-22-17-18-10c5 8-2 12-26 12-43 0-79-10-73-20s-43-24-74-21c-17 2-21-1-16-11 6-10 5-11-6 0-24 22-89 12-89-14 0-15-1-15-37-19-41-4-55-14-50-35 3-11 0-23-5-27-7-4-8-1-3 7 6 10 2 11-20 6-25-6-27-5-16 8 19 22 0 21-53-5-33-15-43-25-39-36s2-14-5-9c-14 8-82-19-82-33s4-14 45 3c19 8 35 13 35 11s14 0 30 5c18 5 30 5 30-1 0-5-7-9-15-9s-15-9-15-19c0-11-20-34-50-55-27-20-50-40-50-45s-9-11-20-14c-14-3-20-14-20-31 0-34-33-66-67-66-23 0-25-2-13-11s13-11 1-16c-7-3-31-23-52-44-35-35-41-38-60-27-17 11-22 10-32-3-7-9-18-14-26-11-10 3-12 0-8-11s-2-17-24-22c-16-4-29-11-29-16s-11-11-25-15c-14-3-25-10-25-16 0-5-4-7-8-4-5 3-22-3-39-14-30-18-31-21-32-94-1-63 2-74 14-70 16 6 21-11 7-20-12-7-13-66-1-66 5 0 9-9 9-20 0-12 15-29 40-45 52-33 106-33 151 0 19 13 53 34 77 46 23 12 42 29 43 38 0 13 2 14 6 1 3-8 12-19 19-23 8-4 14-20 14-35s9-38 20-52 20-29 20-33c0-5 16-25 35-45s30-38 25-40c-6-2-10-10-10-18s-3-13-7-13c-16 3-73-14-73-21 0-10-59-24-67-17-2 3 0 14 6 24 10 17 10 17 11 0 0-10 5-15 10-12 6 4 8 10 5 15s-1 11 5 15c18 11 11 35-10 35-20 0-28 24-11 35 12 7 11 65-1 65-4 0-8-4-8-10 0-5-6-10-14-10-7 0-19-7-26-15s-25-15-41-15c-54 0-91-107-51-148 14-16 15-29 2-37-5-3-7-12-3-21 4-11 9-12 19-3 11 9 14 8 14-5 0-9-5-16-11-16-8 0-8-5 1-15 22-26-5-46-51-39-26 5-46 2-61-8-14-9-36-13-54-11-47 7-90-19-98-60-10-53-76-113-151-138-44-14-51-20-58-52-8-32-14-38-48-47-22-6-45-20-52-30-14-23-49-26-69-7-7 8-26 17-42 21-26 6-28 5-21-16 21-68 19-73-22-73-21 0-43 4-50 8-13 8-89-1-113-14-19-9-21-59-3-59 7 0 13-4 13-10 0-5 6-7 13-4 23 9 67-14 61-31-3-8-1-15 6-15 6 0 8 5 5 10-11 18 25 10 47-10 13-11 16-20 9-20-9 0-8-5 3-16 9-8 16-20 16-25s7-9 16-9c8 0 12-4 9-10-3-5-2-10 3-10s9-6 9-12c0-7 2-17 4-23 4-14-10-114-22-153-12-36-40-56-69-47-17 5-151 15-277 19-29 1-55 5-59 9-14 14-51 7-69-13-10-11-26-20-35-20-28 0-42-24-31-53 5-13 11-55 12-93 3-73-20-157-50-181-8-7-12-13-9-13 4 0 3-13-2-30-5-18-5-30 1-30 5 0 9-7 9-15s6-14 13-12c13 2 15-49 3-93-7-24-5-25 36-24 24 0 53 4 66 8 36 12 62-3 79-45 17-44 55-62 76-36 22 27 81 46 142 47 33 0 68 0 78 1 9 0 24 14 32 30 11 20 26 32 46 36 23 4 34 15 46 44 8 22 21 39 28 39s18 7 25 15c11 13 10 18-2 28-24 19-27 42-10 69 36 53 97 118 111 118 8 0 38 12 67 27 54 27 84 67 64 87-5 5-10 20-10 32 0 49 106 67 167 28 33-21 56-17 92 15 19 17 46 33 62 36 16 4 34 15 39 25s16 20 24 23c21 8 106-31 106-49 0-8 6-23 13-35 10-17 9-22-6-34-13-9-15-15-6-20 6-4 15-2 19 6 7 10 11 10 24 0 9-8 16-20 16-27 0-8 9-14 20-14s20-3 20-8c0-15 100-86 123-87 13 0 35-12 49-27 14-16 33-28 42-28s16-7 16-16 13-21 30-27c22-8 33-22 45-57 10-28 12-46 5-48-5-2-10-12-10-21 0-23-92-44-164-37-59 5-76 0-76-24 0-17 90-70 118-70 6 0 15-6 19-13 4-8 18-16 31-20 25-6 46 21 36 47-3 9-3 28 0 42 5 20 11 24 27 19 25-8 69 29 69 58 0 10 9 21 20 24 28 7 26 45-5 63-22 14-23 18-12 40 10 20 19 24 42 22 17-2 32-8 33-13 2-5 11-17 20-25 15-15 17-15 26 5 13 30-17 60-104 102-59 28-67 36-59 51 5 10 6 18 2 19-4 0-27 1-50 3-34 2-50 10-78 39-19 20-35 44-35 54-1 25-18 45-62 71-41 25-56 55-38 77 7 9 8 15 0 20-20 12-10 31 23 43 40 14 69 16 49 4-9-6-10-16-3-34 12-33 31-45 42-27 6 11 9 8 9-8 0-12 5-25 10-28 6-3 10 3 10 14s5 23 12 27c8 5 9 2 5-10-4-10-1-24 9-33 11-12 12-18 4-23-13-8 34-50 56-50 8 0 22-9 31-20 10-11 29-20 43-21l25-1-25-8c-24-8-24-8 7-9 17-1 35-5 38-11 3-5 14-10 24-10 9 0 40-17 68-37l52-38-6-62c-5-58-4-62 22-79 16-10 22-20 15-24-14-9-2-40 15-40 8 0 21-7 29-16 16-15 16-33 1-68-4-10-4-21 2-25 5-3 12-14 16-23 7-20 27-24 27-6 0 25 38-25 45-59 6-31 9-34 31-29 17 5 24 2 24-9 0-8 5-15 10-15 6 0 10 5 10 10 0 6 5 10 10 10 6 0 10-11 10-25s5-25 10-25c19 0 15 51-7 95-11 21-11 26-2 18 7-7 21-13 32-13 14 0 17 5 12 21-6 17-3 20 17 17 18-2 22 1 20 16-3 17-2 18 12 7 9-8 16-10 16-6s7 2 15-5 15-21 15-32c0-18 1-18 16-4 14 14 13 18-5 38-12 12-21 18-21 14 0-15-32 18-41 41-5 14-17 23-29 23-14 0-24 10-31 30-6 17-15 30-20 30-11 0-41 58-37 72 2 6 18-1 35-16 31-26 49-34 38-16-4 6 1 7 11 3 14-5 16-3 10 13-6 15-5 17 5 7 24-24 33-13 10 11s-23 24-3 35c15 8 23 8 28-1 4-7 3-8-4-4s-12 2-12-3c0-19 27-12 33 8 4 18 8 18 38 7 19-6 44-17 57-24 31-17 63-12 84 14 13 16 28 21 54 20 19-1 40 4 46 12 12 14 12 14-23 29-31 13-74 92-59 107 6 6 10 20 10 32 0 13 8 24 19 27 16 4 20 15 23 53 3 42 7 51 31 62 19 9 27 21 27 38 0 14 13 39 30 57 16 18 30 38 30 45 0 6 11 12 25 12 15 0 25-6 25-15 0-15 52-29 107-28 18 1 30-3 27-8s-10-9-15-9c-13 0-55-40-43-41 13-2 26-5 52-14 18-6 22-14 20-34-3-22 1-26 26-29 19-2 32 2 38 12 5 9 20 16 33 16s27 5 30 10c3 6 22 10 41 10 24 0 34 5 34 15 0 17 5 14 51-27 10-10 25-18 32-18s22-7 33-15c10-8 25-15 33-15s22-7 32-16c15-13 24-14 49-6 25 9 36 8 63-7 17-11 48-22 67-26s56-20 81-36c41-26 52-29 100-23l54 6 65-57c110-95 375-216 357-162-2 6-11 12-20 12-10 0-60 47-112 104-82 88-95 108-95 137 0 33-29 74-63 88-8 3-9 7-2 13 6 4 15 21 20 37 10 31 61 66 83 58 6-2 12 2 12 10 0 20 25 41 90 74 30 16 57 30 60 32s-8 14-25 27c-24 20-29 31-27 59s-5 43-31 73c-43 48-53 67-61 120-6 42-6 42 31 52 21 6 61 11 89 11 27 0 55 5 61 11 20 20 143 14 208-9 45-17 71-21 107-16 33 5 48 3 48-5 0-6 9-11 19-11 11 0 26-7 35-15 18-19 42-19 49-1 4 10 17 13 44 9 71-9 87 49 20 72-51 17-72 35-55 47 13 9 6 16-52 58-20 14-21 18-10 62 10 41 10 50-6 77-25 42-56 41-95-4-42-47-75-47-109 1-14 19-36 49-49 65-23 29-23 31-6 49 10 11 31 20 47 20 67 0 91 80 39 128-37 34-51 70-51 130-1 113-27 225-84 351-39 87-53 128-46 136 6 7 32 20 58 30 102 38 210 115 212 150 0 6-19 29-42 52-49 47-110 68-228 78-106 10-111 11-169 36-39 16-55 19-63 11-9-9-6-17 10-32 12-12 26-19 31-16 10 6 88-30 108-49 19-19 16-25-12-25-18 0-23-4-19-15 5-11 2-13-10-9-8 3-15 9-15 12 3 20-15 51-32 55-21 6-27-9-6-16 6-2-6-8-28-12s-44-11-50-15c-5-4-31-7-58-7-26-1-54-6-62-13-7-6-24-10-37-8-28 4-36 34-11 41 10 3 0 5-22 6-22 0-50-6-62-14-11-8-36-16-54-17-19-1-52-13-74-25-22-13-49-23-60-23-31-1-61-23-60-45 0-11-7-23-15-27-27-12-77-8-90 7-7 8-19 15-27 15-28 0-6 24 32 34l38 11-34 26c-27 21-49 27-107 31-74 5-106-5-52-17 28-6 30-10 30-49 0-36 4-45 25-54 26-12 31-27 16-51-6-10-13-11-29-2-11 6-30 11-41 11-12 0-21 7-21 16 0 10-10 6-32-15-18-17-40-31-48-31s-28-11-44-23l-29-23 23-22c37-34 15-46-53-28-30 8-65 20-78 26-16 9-27 9-44 0-24-13-23-40 1-40 8 0 14-4 14-10 0-5 13-10 29-10s31-6 35-15c9-26-51-22-103 6-20 10-44 19-53 19-10 0-18 6-18 13 0 8-9 22-20 32-15 14-17 22-9 37 12 23-8 43-53 53-14 3-28 12-31 19-4 9 14 8 77-4 208-43 266-43 328 1 32 23 35 45 10 76-17 21-91 57-100 49-2-3-19 2-36 11s-33 16-36 16c-8-1-31 8-80 29-25 11-87 24-137 30-61 7-93 15-93 23 0 14-69 28-84 17-6-4-31-5-56-2l-45 5 33 12c19 7 31 16 28 21-8 13-124 44-136 37-6-3-10-1-10 4 0 6-15 11-34 11-23 0-38-7-49-22-11-16-16-18-17-8 0 8-12 21-27 28-33 15-40 15-48 1zm45-19c0-5-5-10-11-10-5 0-7 5-4 10 3 6 8 10 11 10 2 0 4-4 4-10zm110 6c0-9-30-14-35-6-4 6 3 10 14 10 12 0 21-2 21-4zm-460-96c0-5-7-7-15-4-8 4-15 8-15 10s7 4 15 4 15-4 15-10zm-100-20c0-5-8-10-17-10-15 0-16 2-3 10 19 12 20 12 20 0zm-106-66c3-8 2-12-4-9s-10 10-10 16c0 14 7 11 14-7zm79 9c-7-2-19-2-25 0-7 3-2 5 12 5s19-2 13-5zm446-219c21-4 31-12 31-24 0-14-5-17-21-13s-20 2-17-8c6-16-56-79-78-79-8 0-14-4-14-8 0-14-58-42-73-36-8 3-18 1-22-5-3-6 1-14 9-17 14-5 14-8 1-20-11-11-12-20-5-34 6-11 14-28 18-37 5-10 7-41 6-69-2-43 0-51 14-50 9 0 16-4 15-10-1-7 13-15 32-18 18-4 35-11 37-17 2-7 30-3 77 9 41 11 81 18 88 15 8-3 18-1 22 5 3 6 38 13 76 16 58 4 74 2 95-14 28-21 25-29-13-32-15-1-27-8-27-16 0-13-50-12-150 1-47 6-164-47-132-60 17-7 15-24-3-17-8 4-15 12-15 20s-6 14-12 13c-19-1-55-17-40-18 18-1 15-21-4-21-13 0-15-6-9-27 8-33 16-42 22-25 3 6 13 12 24 12 10 0 19 4 19 9 0 12 39 21 46 10 3-5 13-9 22-9 34 0 24-99-9-100-3 0-22 15-43 34-34 30-41 32-66 23-39-15-64-75-57-137 6-51-11-80-46-80-9 0-17-7-17-15 0-9-11-20-24-27-27-12-61-4-51 12 18 29-124 16-150-15-5-6-38-17-72-25-65-13-93-6-93 25 0 28-28 24-124-19-21-9-41-14-45-11-8 9 39 46 49 40 4-3 10 2 14 10 3 8 13 15 21 15 9 0 13 5 10 10-4 6-12 7-18 3-8-5-8-2 0 9 7 8 10 18 6 21-3 4-1 7 5 7 7 0 12 8 13 18 1 11 4 8 8-8 6-22 13-25 51-25 37 0 45 4 49 20 5 29 31 44 74 45 28 0 37 4 37 18s2 15 10 2c5-8 11-12 13-10 12 13 36 84 31 89-4 3-9 0-11-6-8-23-24-14-18 10 5 18 11 54 14 88 1 4 11 10 24 14 12 4 24 8 27 9s15 5 28 10c12 4 22 14 22 23s7 21 15 27c12 9 12 15 2 35-12 25-20 30-72 53-31 14-42 37-29 66 4 9 7 29 7 43 0 17 9 32 28 45 16 10 29 24 29 29 0 10 70 45 91 45 5 0 26 16 47 36 27 26 33 37 23 43-11 7-9 15 9 39 13 17 27 29 32 26 4-3 8 0 8 5 0 12 79 15 129 5zm-779-96c0-14-48-58-63-58-5 0-4 7 3 15s9 15 5 15c-5 0 2 9 15 20 26 23 40 25 40 8zm-183-114c-3-3-12-4-19-1-8 3-5 6 6 6 11 1 17-2 13-5zm213-624c0-4-7-11-16-14-8-3-12-2-9 4s1 10-4 10c-6 0-11 4-11 9s9 7 20 4 20-9 20-13zm602-2c-7-7-12-8-12-2 0 14 12 26 19 19 2-3-1-11-7-17zm-652-17c0 5 6 4 14-3 21-19-9-34-40-19-33 15-32 33 1 21 16-6 25-6 25 1zm-345-180c-3-6-11-11-16-11s-4 6 3 14c14 16 24 13 13-3zm2225-480c-19-10-38-17-42-14-5 2-8-2-8-10s10-18 23-21c19-6 20-8 6-16-9-5-20-21-23-36-7-25-9-26-66-21-32 2-63 0-68-5-6-6-18 1-30 17l-21 27 27 29c15 16 41 30 57 33 17 2 38 7 49 11 26 11 77 23 106 24 22 1 21-1-10-18zm-1130-734c5 2 7-4 4-12-4-8-10-15-15-15s-12-1-16-2c-4-2-8 13-10 32-3 34-3 34 13 15 8-11 19-19 24-18zm190 23c13-8 13-10-2-10-9 0-20 5-23 10-8 13 5 13 25 0zm-63-36c-3-3-12-4-19-1-8 3-5 6 6 6 11 1 17-2 13-5zm20-36c-3-8-6-5-6 6-1 11 2 17 5 13 3-3 4-12 1-19z"/>
   <path id="path66" d="m11906 12634c-9-8-25-16-36-17s-20-7-20-14-4-13-8-13c-5 0-17-7-28-15-17-15-14-15 44-12 79 5 87-18 9-29-47-7-59-13-52-24 3-5 11-10 16-10 6 0 8 4 5 8-7 12 68 1 76-12 15-22 8-36-17-36-15 0-25-6-25-14 0-10 12-13 48-11 27 2 61-3 79-12 39-18 127-21 168-6 56 21 100 35 146 48 63 18 129 61 129 84 0 11-12 23-30 31-16 7-27 16-24 21s-1 9-8 9c-8 1-5 7 7 16 19 15 18 16-17 10-21-4-39-2-43 4-10 16-45 12-45-5 0-9-9-15-22-15h-85c-48 0-64-4-72-18-9-16-10-16-16 1-10 24-35 21-35-4 0-14-5-19-15-16-8 4-17 2-20-3-11-17-23-11-18 9 3 13-6 24-32 40-43 25-40 25-59 5z"/>
   <path id="path68" d="m12767 12323c-11-10-8-35 2-28 5 3 13 0 17-6 3-6 1-15-5-19-9-5-7-11 5-21 16-12 17-12 11 3-3 10-2 20 4 23 5 4 7 10 4 15s-1 11 5 15c5 3 10 12 10 18 0 8-3 8-9-2-6-9-11-10-15-2-8 12-19 14-29 4z"/>
   <path id="path70" d="m12981 12077c-6-6-11-17-11-24 0-15-42-27-75-21-18 4-29-1-40-19-26-39-55-64-66-58-5 4-16 1-25-5-11-10-12-16-2-28 7-8 12-17 11-19-2-1-3-6-3-10 0-5 4-2 9 6s11 9 15 3c3-6-9-16-29-22-19-6-35-16-35-21 0-6 8-5 20 1 16 8 20 8 20-4 0-8 8-16 18-19 13-3 11-6-10-15-16-6-28-16-28-21 0-16 20-23 34-12s26 5 26-13c0-6-5-4-10 4-8 13-10 12-10-3s5-17 30-12 29 4 24-9c-3-9-10-16-15-16-6 0-5-10 2-21 6-12 14-18 18-13 10 14 81 14 75 0-2-6 4-21 14-31 18-21 18-55-2-67-6-4-28-5-48-2-23 2-38 0-38-6s5-8 10-5c18 11 11-4-12-25l-23-22 25 4c44 6 37-27-10-46-56-22-52-49 9-52 48-2 84-24 40-24-24 0-69-32-69-49 0-4-16-16-35-26-19-11-32-21-29-24 11-11 38-9 61 6 14 9 34 13 51 10 21-4 33 0 45 13 13 16 27 18 86 15 39-2 71 0 71 5 0 4 19 7 43 6 44-3 127 26 127 43 0 6-7 11-15 11-19 0-20 26-1 33 28 11 48 54 37 76-14 25-66 37-89 19-15-11-16-11-4 3 10 13 10 22 0 45-6 16-12 34-12 39-1 13-29 40-55 55-11 6-24 23-27 38-10 38-36 71-56 72-24 0-23 32 2 50 11 8 20 20 20 26 0 7 7 20 16 28 24 25 7 36-56 36-32 0-62 5-65 10-3 6-1 10 5 10 7 0 23 9 37 20s22 20 18 20c-5 0 1 10 12 23 11 12 23 27 26 33 9 15-38 15-52 1zm-191-137c0-5-5-10-11-10-5 0-7 5-4 10 3 6 8 10 11 10 2 0 4-4 4-10z"/>
   <path id="path72" d="m12653 11762c-24-8-71-62-53-62 6 0 8-5 5-10-3-6-26-8-51-6-35 4-46 1-54-14-7-13-6-20 3-23 9-4 9-7 0-18-19-19-16-26 12-33 35-9 31-26-15-60-37-28-54-66-29-66 5 0 7-5 3-12-5-8-2-9 9-5 10 3 17 2 17-4 0-17 77 0 128 27 25 13 59 24 77 24 28 0 33 4 43 39 7 21 12 56 12 78 0 33 4 42 25 51 29 13 32 38 7 68-20 23-99 38-139 26z"/>
   <path id="path74" d="m13756 10728c-4-9-18-19-31-22s-25-14-27-24c-6-26 9-73 28-87 16-11 15-14-10-30-21-14-29-16-35-6-6 9-10 7-13-6-3-11 1-28 8-38 8-10 12-28 9-39-15-79-15-85 7-97 18-9 24-8 34 6 7 10 20 15 28 12 19-8 25 11 28 96 3 57 0 71-15 82-16 12-17 18-7 52 13 42 10 130-4 101z"/>
   <path id="path76" d="m14777 10103c-4-3-7-14-7-23 0-13 12-19 42-24 23-4 45-11 48-17 4-6 27-6 60-2 51 8 70 21 41 31-9 3-11 0-6-9 6-10 2-9-11 2-10 9-41 17-69 18-27 2-52 7-53 12-2 5-8 6-14 3-6-4-13-1-17 5s-10 8-14 4z"/>
  </g>
  <g id="g84" transform="matrix(.016963 0 0 -.016963 0 239)">
   <path id="path80" d="m7578 8086c-17-6-28-17-28-28 0-10-6-18-14-18-7 0-25-9-39-20-15-12-40-20-61-20-23 0-39-5-42-15-4-10-14-13-28-9-41 10-96-72-87-128 0-5-4-8-10-8-13 0-39-25-39-37 0-5-13-17-30-26-21-13-27-23-23-35 4-9-13 4-38 30-38 40-101 78-130 78-5 0-9-13-9-28 0-20 7-33 25-42 13-7 27-22 31-32 3-11 10-15 17-11 8 4 7 1-1-9-15-19-7-61 15-80 8-7 20-24 26-38 14-33 19-207 7-215-7-4-6-13 1-26 11-22-5-89-22-89-5 0-9-6-9-13s-16-19-35-27c-25-10-35-20-35-36 0-12-7-24-15-28-11-4-14-13-10-29 6-21 1-26-39-41-44-17-46-20-46-56 0-24-5-40-15-44-8-3-15-17-15-30 0-15-8-30-20-36-11-6-18-15-15-21 13-20 14-89 2-89-7 0 3-13 21-29 17-16 32-34 32-40s5-11 10-11c6 0 10 5 10 12 0 6 2 9 5 6 8-8-6-38-18-38-6 0-28-19-50-42-35-39-38-47-32-83 3-22 12-47 20-56 17-18 20-39 5-39-26 0-5-31 34-51 33-16 51-35 72-73 15-28 37-64 49-81 12-16 36-64 55-105 18-41 41-87 52-102 10-14 18-33 18-40 0-8 9-23 20-33s20-26 20-36 4-20 9-23c21-13 82-118 77-132-9-24 12-63 61-112 47-48 183-134 241-153 17-6 32-14 32-18s16-16 35-27c19-10 35-22 35-27 0-10 26-37 35-37 18 0 51-46 62-88 29-108 51-342 31-342-4 0-8-11-8-25s3-25 8-25c14 0 26-409 12-444-6-16-4-32 7-52 10-21 13-44 8-80-5-39-1-61 15-98 11-26 20-56 20-67 0-10 5-19 10-19 6 0 11-19 10-42 0-24 0-52 1-63 1-21-7-137-16-220-2-27-5-61-5-74 0-17-4-22-16-17-13 5-15 1-9-21 3-16 13-35 21-44 8-8 14-22 14-29s12-33 26-58c18-31 24-52 20-72-9-46 5-127 26-150 10-11 14-20 7-20s-9-10-5-30c3-16 9-45 12-62 11-59 43-77 64-37 9 15 8 24-1 35-6 8-8 14-4 14s2 7-5 15-9 15-4 15c4 0 3 5-4 12-17 17-15 31 4 24 12-5 15-2 10 9-3 9-2 13 4 10s10-13 10-21 5-14 11-14c5 0 8-4 5-8-3-5-1-24 4-43s11-56 15-83c3-28 11-53 17-57 9-6 7-10-7-15-11-4-23-9-26-10-3-2-5 9-3 24 3 27-9 42-34 42-8 0-10-5-5-12 13-22 12-38-3-38-7 0-18-9-24-19-12-24-13-42-1-22 13 21 51-4 51-34 0-14-5-25-11-25-7 0-9-11-6-30 4-19 1-34-8-44-8-8-12-22-9-30 7-19 31-21 36-5 3 9 10 9 26 0 12-7 27-9 32-6 6 3 7-1 4-9-3-9-2-16 4-16 18 0-3-54-26-66-12-6-19-14-14-18 4-4 7-11 7-14 2-20 18-52 26-52 5 0 8-3 7-7-2-14 19-58 35-72 9-7 19-26 22-42 4-16 11-30 16-30 5-1 15-2 22-3 6 0 15-19 18-41s7-35 8-30c1 6 11-5 23-23 16-26 26-32 43-28 14 4 30-2 46-17 13-12 27-21 31-19 5 1 8-3 8-9 0-11-13-9-55 6-13 5-9-3 14-24 24-23 36-29 41-20 11 16 31 2 23-17-3-8-2-14 3-13 17 4 44-13 44-27 0-9 11-14 30-14 23 0 28 4 23 16-3 9-13 14-24 11s-19-1-19 4c0 19 40 8 51-13 7-13 11-25 10-28s5-9 15-15c10-5 24-16 32-23 17-16 32-16 32 1 0 8 3 7 10-3 5-8 13-15 17-16 4 0 21-6 36-12 16-7 32-10 37-7s11 1 15-5 11-8 16-5c5 4 9 2 9-4s20-10 45-9c25 0 52-5 60-12 9-7 19-10 23-6s-2 14-12 21c-16 13-12 14 39 10 47-3 56-2 51 10-3 9 1 15 10 15 8 0 17 7 20 15 4 8 11 15 16 15 6 0 5-6-2-15-10-12-10-15 4-15 9 0 16 8 16 20 0 16-7 20-35 20-52 0-160 57-219 115-29 29-50 57-48 63s-9 18-23 28c-33 22-85 96-85 123 0 14 8 23 25 27 30 7 39 32 25 69-12 31-7 40 47 88 19 17 30 34 26 41-4 6-9 20-10 30-5 31-23 46-54 46-32 0-95 34-108 59-23 41 16 101 66 101 25 0 39 15 22 26-8 5-7 9 2 14 10 7 9 17-4 50l-16 43 30 28c17 16 37 29 45 29 16 0 18 23 4 50-9 16-18 19-54 14l-44-6-24 53c-14 30-21 56-16 57 5 2 27-3 49-12 47-19 79-20 114-4 26 11 34 41 14 54-7 4-8 20-4 41 5 26 2 40-11 54-17 19-17 20 1 13 13-5 16-4 11 4-5 9 6 12 39 12 107 0 245 50 245 88 0 10 4 22 9 27 35 39 30 125-8 125-20 0-31 18-31 54 0 26-24 50-72 74-18 10-35 26-37 37-3 19-3 19 16 3 11-10 34-18 51-18 18 0 32-4 32-9 0-13 47-24 115-26 83-4 120 18 131 74 4 17 9 31 13 31 12 0 38 54 45 91 4 23 19 46 41 66 25 22 33 36 28 49-6 15-7 15-14-5-8-20-35-38-44-29-3 2 6 20 20 38 14 19 25 44 25 55 0 13 6 22 16 22 11 0 14-7 11-23-2-13 2-25 9-28 9-3 17 9 25 37 26 94 32 108 60 138 39 41 52 107 34 160-13 36-17 149-6 146 8-2 91 83 91 93 0 5 14 11 30 15 17 4 30 11 30 17s13 8 35 4 35-3 35 4c0 5-5 10-11 10-5 0-8 4-5 9 11 17 136 52 189 52 51 1 55 3 60 28 4 15 19 33 38 44 25 14 30 22 25 40-5 20 13 67 70 178 9 17 11 43 8 76-5 39-3 53 12 67 17 17 29 99 26 181 0 17-2 75-4 130-4 95 3 125 28 125 11 0 33 31 55 80 35 79 43 92 67 114 31 29 110 139 122 170 23 60 22 132-3 220-14 48-28 90-31 93-4 4-33 10-65 14-64 7-65 8-146 86-30 28-79 66-110 83-50 29-59 31-99 22-32-7-50-5-70 5-15 8-31 11-37 8-5-4-21 0-34 9-30 20-89 31-80 15 5-8 0-9-16-4-29 10-47 27-42 41 2 7-3 19-12 27-8 9-15 20-15 26s-4 11-10 11c-5 0-10-4-10-10 0-11-71 19-82 35-4 6-8 6-8 1s-6-3-14 3c-14 11-39 19-83 26-27 4-62-20-74-52-16-42-19-21-4 22 20 58 19 62-22 68-23 4-43 15-51 27-7 11-18 20-26 20-14 0-14 14 0 72 4 20 0 35-17 57-13 16-29 30-34 30-12 1-35 78-35 119 0 23-39 91-40 70 0-4-25 17-57 47-31 30-61 55-68 55s-26 7-44 16c-36 18-152 28-161 14-11-18-85 11-128 51-24 21-48 39-53 39s-9 10-9 23c-1 12-9 32-19 44-28 34-110 81-130 76-22-6-37 13-24 30 15 20 9 41-14 52-13 5-23 13-23 17 0 5-8 8-18 8s-24 6-30 12c-10 10-15 10-22-2-6-9-10-10-10-3 0 6-3 18-6 27-4 10-1 16 8 16 8 0 23 7 34 15 17 15 11 15-76 11-52-3-98-6-102-6-5 0-8-6-8-13 0-8-11-19-24-26-30-16-96 2-96 26 0 13-12 14-85 8l-85-7v26c0 29-48 66-87 66-17 0-23 6-23 23 0 29-7 37-26 30-8-3-14-19-14-39 0-28-4-35-27-40-16-4-41-16-57-27-25-18-29-18-23-4 3 9 2 17-3 17-6 0-10 9-10 20 0 12 7 20 16 20 18 0 43 27 44 47 0 20-33 31-62 19zm42-236c0-24-16-50-30-50-4 0-13 17-20 39-11 34-10 41 6 60l18 21 13-23c7-12 12-33 13-47zm187-2193c14-16 19-28 13-37-7-12-10-11-16 3-3 9-12 17-19 17s-15 9-18 20c-7 27 13 25 40-3zm1933-647c0-5-2-10-4-10-3 0-8 5-11 10-3 6-1 10 4 10 6 0 11-4 11-10zm-373-652c-3-8-6-5-6 6-1 11 2 17 5 13 3-3 4-12 1-19zm-722-1038c3-5-3-10-14-10-12 0-21 5-21 10 0 6 6 10 14 10s18-4 21-10zm-541-165c-4-8-10-12-15-9-11 6-2 24 11 24 5 0 7-7 4-15zm-19-36c10-30 0-33-13-4-6 14-7 25-2 25s12-9 15-21zm45-33c0-2-7-6-15-10-8-3-15-1-15 4 0 6 7 10 15 10s15-2 15-4zm450-636c0-24 17-34 55-32 29 2 29 1 7-11-12-7-19-17-15-23 5-5-1 0-11 11-14 15-20 17-24 7-2-9-9-4-18 13-16 32-19 69-4 60 6-3 10-15 10-25zm-65 1c-3-6-14-11-23-11-13 0-13 2 4 14 21 15 30 14 19-3z"/>
   <path id="path82" d="m9195 2601c-11-5-27-6-35-3-12 4-13 2-2-9 17-18 15-40-3-33-28 11-15-15 14-31 29-15 30-14 62 23 17 21 28 28 24 17-18-48-18-55 1-55 11 0 41 13 67 29 43 25 46 29 31 42-9 8-38 15-63 16-25 0-53 4-61 6-8 3-24 2-35-2z"/>
  </g>
  <g id="g104" transform="matrix(.016963 0 0 -.016963 0 239)">
   <path id="path86" d="m11660 13759c-74-4-196-10-270-13s-148-9-165-13c-16-3-41-5-55-4l-25 3 25-21c20-16 22-20 8-21-9 0-20 5-24 11-3 6-15 9-25 6-11-3-26 1-33 9-17 16-30 19-21 4 4-6-9-10-30-10-30 0-36-3-31-16s2-15-16-9c-56 16-92 16-105-1-12-17-13-17-13 1 0 17-8 18-113 12-62-4-142-9-177-12-36-3-59-3-52 1 24 12 11 24-26 24-21 0-43 5-50 12-8 8-110 12-354 13-349 2-462-4-533-28-28-10-51-11-82-5-28 6-61 6-96-2-30-6-90-13-133-15-115-6-184-16-184-26 0-5 9-9 20-9s20-6 20-14c0-7 15-18 33-24 22-7 26-10 12-11-12-1-27-7-34-13-10-11-12-10-9 1 2 8-7 15-21 17-14 3-33 13-43 24-14 15-32 20-68 20-27 0-52-4-55-10-3-5-22-10-41-10s-34-4-34-10c0-5-10-10-22-11-13 0-43-8-68-18-35-15-44-23-44-42-1-19 6-25 29-28 22-2 25-5 13-10-16-6-16-8 2-31 18-24 22-25 152-26 135-1 204-14 164-30-13-5-21-3-24 4-4 12-78 17-105 6-9-3-13-13-9-26 4-18 2-20-16-15-12 3-47-1-77-8s-56-10-59-8c-8 8-46-8-46-18 0-6 5-7 12-3 7 5 8 3 4-5-6-9-12-8-26 4-14 13-29 15-63 10-29-4-47-3-51 4-4 6-18 11-31 11s-26 4-29 9c-6 10-98 2-106-9-3-4-12-10-20-13-12-4-12-6 2-6 17-1 36-46 25-57-2-3-36-7-73-9l-69-5 29 26c26 24 26 28 12 43-13 13-20 13-36 3-24-15-33-15-25-2 9 15-60 12-121-6-34-10-54-21-54-30 0-8-5-12-10-9-6 4-8 10-5 15 8 13-42 40-61 33-24-9-57-43-42-43 6 0 8-3 5-7-13-12 29-32 69-33 34 0 42-3 40-17-1-16 8-18 73-15 55 2 77 7 86 19 8 11 18 14 31 8 13-5 15-9 6-12-10-4-8-9 5-19 11-8 13-13 6-14-18 0-16-20 2-20 8 0 15 4 15 9 0 4 22 6 49 3 44-4 53-1 77 23 22 22 24 29 13 37-11 7-11 11-1 15 6 2 12 11 12 19 0 21 86 19 94-2 4-9 5-18 4-18-2-1-15-7-29-13-24-10-47-51-31-54 31-6 81-9 235-15 128-5 181-3 191 5 11 9 16 9 21 0 8-12 117-6 175 11 32 9 60 32 60 49 0 31-138 38-274 15-44-7-83-11-88-8s-29 7-54 8c-45 3-89 26-48 26 12 0 24 3 28 8 4 4 65 8 134 8 70 1 154 2 187 3s69 2 80 1c20-1 20-1 0-11-14-6-2-8 40-4 44 3 54 2 38-5-30-12-29-20 3-20 17 0 28 6 31 20 3 12 14 20 28 20 37 0 85 21 85 37 0 11-7 14-26 9-17-5-23-3-19 4 3 5 16 10 28 10s36 7 52 16c17 9 53 18 80 20 70 6 92 14 74 25-9 6-3 7 17 3 19-4 34-1 38 5s15 11 25 11 28 11 40 24c23 24 49 31 160 42 30 2 69 12 87 20 18 9 38 17 46 18 209 38 266 51 255 58-6 4 5 5 25 1 21-3 43-1 50 5 14 10 158 36 165 28 2-2-3-11-12-20-11-11-35-16-73-16-76-1-284-42-290-58-2-8 10-12 42-12 25 0 46-4 46-10 0-19-47-33-140-41-146-12-303-36-333-52l-27-14 26-11c14-7 33-12 44-12 10 0 21-4 24-8 2-4-20-7-50-6s-57-2-60-7 6-9 20-9c17 0 24-4 20-13-9-23 70-69 128-75 35-3 49-1 44 6-4 7 3 8 25 2 18-5 35-7 40-4 24 15 170 11 243-7 79-19 104-29 73-29-23 0-11-27 16-34 21-6 21-7 4-20-18-14-18-14 0-19 14-4 13-5-5-6-13 0-21-5-17-11 3-5 13-7 23-4 11 4 9-2-8-17l-25-22 23 6c23 5 23 5 6-14-16-17-16-22-4-29 12-8 10-10-7-10-25 0-31-15-10-24 8-3 3-13-16-28-24-21-26-26-14-43 11-14 22-17 50-12 20 3 39 2 42-4 3-5-1-6-9-3-9 3-16 1-16-5s9-11 21-11c14 0 19 6 17 18-1 9 2 17 7 17s9-6 7-12c-2-8 7-13 20-13 17 0 24-6 25-20 2-21-11-27-22-10-8 13-122 13-129 1-4-5 0-12 6-15 7-3 0-4-15-1-16 3-26 2-23-3s-3-21-14-34l-19-25 32-18c29-15 38-15 86-3 62 15 73 29 35 47-15 6-24 15-20 18 3 4 12 1 18-5 7-7 22-12 34-12 28 0 29-32 2-72-17-25-23-26-66-21-45 5-50 3-74-26-15-17-29-31-33-31-11 0-55-53-55-66 0-8 8-14 18-15 13 0 12-2-5-9-25-10-48-46-34-54 5-3 7-16 3-28-4-17-2-20 13-15 13 5 16 3 11-8-3-8-2-15 3-15s3-17-4-37c-11-33-11-39 2-47 11-6 12-10 4-15-15-9 3-61 20-61 7 0 9-11 6-30-4-16-3-30 2-30 4 0 13-18 20-39 6-21 18-42 26-45s15-15 15-26c0-22 12-25 38-11 24 12 112-15 112-35 0-8 8-17 18-20 9-3 27-10 39-16 28-14 75 2 88 30 5 12 15 22 22 22 6 0 14 9 18 20 3 10 21 34 39 52s36 46 40 61c4 17 17 32 32 37 13 5 37 21 52 35s35 28 45 31c9 3 17 12 17 19 0 8 10 23 21 34 14 13 20 27 16 40-3 11-2 19 2 18 13-4 71 26 65 34-3 5 16 9 41 9 34 0 44 3 39 13-6 9-4 9 7 1 21-16 69-26 69-14 0 5 7 10 15 10s15 5 15 11c0 5 5 7 10 4 6-4 16-3 23 2s37 17 67 27c33 11 75 35 105 62 28 24 62 46 77 50 16 3 32 13 38 22 8 14 11 15 19 3 6-10 21-12 53-7 144 22 293 55 336 76 23 11 45 20 49 20 5 0 39 13 76 29l68 28-58 7c-81 9-153 23-125 25 18 1 23 6 20 24-2 18 2 22 26 22 21 0 30-5 32-18 1-11 5-22 9-25 9-10 114-19 126-11 6 4 13 26 14 50 2 41 0 44-34 61-30 14-32 16-8 11 32-6 66 15 45 28-10 7-8 9 5 9s17 5 12 19c-6 20 16 31 66 31 41 0 66 34 32 43-13 3-11 5 7 7 14 1 29 2 34 1 15-3 90 32 102 48 6 8 18 11 27 8s19-2 22 3c4 6-1 10-10 10s-13 5-10 10c4 6-6 10-23 10-29 0-48-22-36-41 6-10-39-13-49-2-4 3 2 13 13 20 28 20 23 70-8 91-29 19-15 29 32 24 26-3 33-8 29-20-4-9-2-13 4-9 7 5 9 0 6-13-8-31 7-23 18 10 6 17 18 30 26 30s13 7 11 18c-2 12-14 17-41 19-21 0-41 4-45 8-4 5 3 6 14 3 12-3 28-2 35 3 10 6 6 10-13 18-14 5-29 15-33 21-5 8-11 8-21-1-24-20-29 0-5 20 18 16 32 19 64 14 34-4 39-3 34 11-4 11-1 16 11 17 14 0 14 2-3 9-25 10-11 16 54 23 24 3 47 10 50 15 3 6 23 13 43 17 21 4 35 11 32 16s11 9 30 9 37 4 40 8c3 5 37 14 76 21 101 18 77 32-64 39-83 3-120 1-130-7-17-14-60-5-51 10 4 5-1 9-9 9-9 0-15-5-13-12 1-6-6-14-16-16s-16 2-15 9c2 7-6 15-17 17s-17 1-12-4c4-4-14-16-40-26-57-22-63-22-38-5 10 8 15 19 11 26-4 6 0 13 8 16 9 3 23 7 32 10 27 9 13 13-60 20-38 4-86 13-106 20-48 17-361 25-540 14zm-393-74c0-17 0-17-23-8-16 6-16 7 2 14 10 4 19 8 20 8 0 1 1-6 1-14zm963-5c-8-5-24-9-35-9-16 1-16 2 5 9 35 11 48 11 30 0zm-3023-16c-3-3-12-4-19-1-8 3-5 6 6 6 11 1 17-2 13-5zm50-72c-24-2-42-10-50-23-16-26-25-24-20 5 5 27 35 36 83 26 20-4 18-6-13-8zm158 8c3-5-2-10-11-10-16 0-16-1 2-15s17-14-8-4c-22 10-25 15-17 26 14 16 26 17 34 3zm-165-67c0-9-3-12-7-7-5 5-12 12-18 16s-2 8 8 8c9 0 17-7 17-17zm-20-17c0-3-4-8-10-11-5-3-10-1-10 4 0 6 5 11 10 11 6 0 10-2 10-4zm-190-41c-7-8-17-15-23-15s-2 7 9 15c25 19 30 19 14 0zm973-62c-7-2-19-2-25 0-7 3-2 5 12 5s19-2 13-5zm-150-10c-7-2-19-2-25 0-7 3-2 5 12 5s19-2 13-5zm-1648-64c11-17-1-21-15-4-8 9-8 15-2 15s14-5 17-11zm-158-15c-3-3-12-4-19-1-8 3-5 6 6 6 11 1 17-2 13-5zm3958-174c3-5 1-10-4-10-6 0-11 5-11 10 0 6 2 10 4 10 3 0 8-4 11-10zm-22-30c-29-12-30-37-2-45 27-9 20-16-9-8-13 3-22 13-22 24 0 10-8 23-17 28-14 8-8 10 27 10 37 0 41-2 23-9zm90 3c-7-2-21-2-30 0-10 3-4 5 12 5 17 0 24-2 18-5zm4-19c-3-3-12-4-19-1-8 3-5 6 6 6 11 1 17-2 13-5zm-1882-632c-3-3-11 0-18 7-9 10-8 11 6 5 10-3 15-9 12-12z"/>
   <path id="path88" d="m8270 13531c-25-3-45-11-45-18s-9-19-20-27-18-17-15-20 39-7 79-10c40-2 78-9 84-15s28-11 48-11c32 0 40 5 52 30 15 29 15 30-16 44-18 8-43 16-57 19s-34 7-45 10c-11 2-40 2-65-2z"/>
   <path id="path90" d="m7853 13486c-78-12-106-26-52-26 19 0 39-4 45-8 7-4-19-7-57-7-51 0-72-4-79-15-14-23 16-33 82-26 61 6 111 29 86 39-7 3 2 3 21 0 24-4 32-3 27 5s1 12 16 12c13 0 30 5 38 10 13 9 13 11 0 20-18 11-32 11-127-4z"/>
   <path id="path92" d="m7430 13411c-66-6-114-17-226-52-17-5-42-9-56-9s-39-5-57-11c-38-14-43-38-5-31 16 3 29-1 34-9 7-11 13-10 29 5 14 13 21 15 21 6s9-11 32-6c30 6 31 5 13-8-19-15-19-15 7-16 15 0 38 4 52 10 14 5 26 7 26 5 0-3-12-10-27-16-24-9-26-12-11-20 9-5 36-11 60-13 26-2 42-7 40-15-6-28 50-32 172-12 67 11 162 22 211 25 73 4 101 10 143 32 62 32 56 49-14 45l-47-2 16 24c15 24 13 37-5 37-5 0-6-5-2-12s3-8-5-4c-6 4-28 2-49-4-72-22-68-20-52-30 12-8 10-10-7-10-27 0-31-17-5-23 9-3-9-5-41-6-32 0-56 3-53 8 12 19-33 41-95 48-63 6-64 7-34 19 17 7 26 14 20 15-5 1 3 4 19 8 17 3 30 11 30 16 1 13-38 14-134 6zm-21-92 46-8-47 3c-25 2-52 0-60-5-10-7-8-9 7-10 11 0 15-3 9-5-6-3-22 0-35 5-17 7-19 10-6 10 9 1 17 6 17 12 0 7-12 8-32 4-33-6-33-6-8 8 17 9 31 11 44 4 10-5 39-13 65-18zm36 21c-3-5-15-10-26-10s-17 5-14 10c3 6 15 10 26 10s17-4 14-10zm-10-90c4-6-7-10-27-9-31 1-32 1-8 9 14 4 26 8 27 9s5-3 8-9z"/>
   <path id="path94" d="m6827 13213c-17-3-32-14-39-29-6-13-17-24-23-24-7 0-33-11-59-25s-52-25-58-25-19-6-27-14c-9-7-37-21-63-31s-45-21-42-26c2-4 10-6 17-4 19 7 50-22 43-40-9-23 15-28 65-12 24 8 62 15 83 16 22 1 51 10 65 20 34 24 149 62 156 51 3-4-10-11-28-14-17-4-41-13-51-21-19-15-19-15-1-28 17-13 16-15-13-25-37-13-38-15-16-36 13-14 31-15 107-10 103 8 101 8 141 6 16-1 27-5 23-8-3-3-57-7-119-9-150-3-198-12-198-36 0-33 28-49 88-49 43 0 53-3 44-12-7-7-12-19-12-28 0-15 12-16 88-14 48 2 110 8 137 14 28 6 70 13 95 15l45 4-40-8c-82-17-101-30-95-70 1-10-7-12-37-6-41 7-50 12-41 21 4 3 15 1 26-5 24-13 36-3 17 15-11 11-20 12-42 3-56-22-182-31-217-15-14 7-17 6-12-2 5-9-6-12-39-10-53 2-42 14 23 24 52 8 62 22 33 45-16 13-38 18-79 17-31-1-79 6-105 15s-54 17-61 17c-8 0-19 7-26 15-17 20-98 20-138-1-18-8-41-13-52-9-21 7-28 25-10 25 6 0 10-4 10-10 0-5 5-10 11-10 5 0 8 4 5 9s1 11 9 15c8 3 15 10 15 16 0 12-48 3-70-14-14-12-66-36-76-36-2 0-1 18 2 40 5 32 3 41-11 46-9 4-20 2-25-5-10-17-58-41-81-41-13 0-17 5-12 17 5 13 3 15-13 9-10-5-28-10-39-11-68-10-189-36-203-45-13-8-10-9 13-5 26 5 27 5 11-5-14-10-24-9-45 1-28 14-121 19-121 7 0-5-9-8-19-8-11 0-27-8-36-17-29-29-141-12-129 20 3 9-10 13-48 15-69 3-108 11-108 24 0 5-30 9-72 8-40 0-102 4-138 10s-103 14-150 18c-63 5-84 10-82 20 2 11-10 13-53 10-39-2-56 1-60 11-3 7-12 11-20 7-8-3-18 1-23 10-7 12-16 11-67-7-33-11-89-22-125-24s-92-10-125-19c-32-9-73-16-91-16-35 0-111-25-195-64-34-16-91-31-140-37-46-6-97-17-112-25-16-8-37-14-48-14-25 0-24-17 1-25 27-9 46-43 31-58-17-17-13-27 9-27 14 0 18-5 13-17-9-25-43-53-62-52-28 2-77 17-60 18 9 0 22 8 29 16 16 20 5 20-85-1-86-19-134-30-205-44-61-13-82-26-57-36 15-6 15-9-3-34-27-37-16-43 73-42 39 1 76-3 82-8 8-7 24-5 48 5 42 17 71 20 47 5-12-8-12-10-1-10 21 0-35-49-64-56-14-3-41-3-60 0-20 4-35 3-35-3 0-16-62-32-98-25-34 7-60-2-114-38-14-10-33-18-42-18-16 0-87-30-96-41-3-3-18-9-33-13-28-7-53-48-41-67 3-5-6-13-19-18-21-8-25-16-24-45 1-32 4-36 26-36 15 0 43 4 63 9 34 8 37 7 28-9-6-10-19-21-29-25-11-3-26-17-35-30-9-14-24-25-33-25-12 0-14-3-6-11s17-8 33 1c15 8 20 8 16 1-10-15 0-14 34 4 35 18 84 10 76-11-7-19 24-18 38 2 9 11 18 13 36 6 24-9 24-9-20-42-25-18-65-41-90-52s-54-23-65-28-54-20-95-33c-91-30-130-47-130-59 0-5-9-4-19 1-19 11-51 2-166-42-67-26-79-29-117-33-48-5-123-43-110-56 6-6 17-6 30 1 11 6 33 11 49 11 15 0 41 7 58 16 16 8 39 13 50 10s29 2 39 9c10 8 22 12 27 10 4-3 10-1 14 5 11 19 56 11 62-10 6-23 14-25 31-8 8 8 15 8 26-1 12-10 17-8 26 8 9 17 8 21-5 21-8 0-15 7-15 16 0 12 6 15 25 10 16-4 34 0 50 10 13 8 29 13 34 9 12-7 78 21 99 42 8 7 18 11 23 8 5-4 9-1 9 5s12 8 31 5c18-3 28-2 25 4-3 5 12 12 34 16s50 14 62 24c19 14 46 25 118 46 3 1 18 7 33 13 16 7 36 12 45 12s35 11 57 25c22 13 50 25 61 25 30 0 53 28 33 41-11 7-10 9 6 10 11 1 25 1 31 0 7-1 14 5 18 14 3 8 17 15 31 15s25 5 25 10c0 6 8 10 18 10s26 6 37 13c28 19 55 28 55 18 0-4-12-13-26-19-14-7-22-17-19-22 4-6-7-15-24-21s-31-15-31-20c0-16 53-9 123 15 37 13 67 22 67 19s6-1 13 5c15 13 76 17 99 7 11-4 35 2 63 15 41 20 59 40 35 40-5 0-10-4-10-10 0-5-4-10-9-10s-8 8-6 18c1 11 10 16 24 15 11-2 21 2 21 7 0 6 11 10 25 10 29 0 30-22 1-30-11-3-21-11-23-17-3-9 5-9 30-1 24 7 43 7 63 0 28-10 28-11 7-17-13-4-23-12-23-17 0-6 7-7 18-2 9 4 49 9 88 12 54 3 79 0 104-13 20-10 42-14 59-11 17 5 22 4 12-3-11-7-9-13 12-31 14-12 28-33 31-46 4-13 11-24 16-24 16 0-2-74-24-99-14-16-16-22-6-19 11 4 15-1 15-17 0-13-3-21-7-18-5 2-8-3-8-11 0-23 16-20 34 6 9 12 18 19 21 16s-8-17-25-31c-36-31-37-37-7-38h22l-22-9c-19-8-22-16-19-42 3-28 7-33 33-35 20-2 37 4 48 17 17 19 19 19 31 2 12-16 13-15 24 8l10 25-5-27c-3-15-1-30 5-33 5-3 10-12 10-18 0-8-3-7-9 2-7 11-11 10-19-5-6-10-14-16-17-12-10 10-38-19-30-31 3-5 1-12-5-16-15-10-12-22 12-45 12-11 16-20 9-20s-11-9-9-22 9-22 17-20c9 2 7-8-7-32-14-23-17-38-10-42s6-9-2-14c-10-6-5-15 16-36 21-20 24-25 9-19-26 10-44 10-72 1-14-4-23-3-23 3 0 5 10 12 23 14 19 3 19 4-3 3-21-1-25-6-23-28 1-16-3-28-10-28s-1-6 13-13 26-18 26-25c1-7 2-16 3-21 0-5 10-13 21-16 11-4 18-11 15-16-4-5 1-12 9-15 9-3 13-10 10-15s1-9 8-9 21-7 32-15c17-13 17-14-9-12-30 2-34-3-59-81-17-52-74-158-99-184-7-7-24-29-37-48s-42-54-64-78c-55-59-73-89-91-147-8-27-32-72-54-98-34-40-38-51-29-67 9-14 7-26-6-55-15-30-16-42-7-62 7-14 9-33 6-43s-1-21 4-24c5-4 7-22 4-42-4-25-2-39 8-45 12-8 12-10 0-18-13-8-13-18-1-68 8-32 14-74 14-93 1-33 3-35 39-38 24-2 37-8 37-18 0-12 19-19 44-15 5 1 6-5 3-14-4-9-1-15 7-15 25 0 45-35 45-80 0-44 8-165 11-165 1 0 3-24 5-54 3-39 9-57 24-67 11-8 29-30 41-49 21-33 21-37 6-60-16-25-25-29-58-26-10 1-18-1-18-6 0-17 82-103 92-97 12 8 78-61 78-80 0-8-7-27-15-42-8-16-15-36-15-44 0-20 19-40 38-40 23 0 92-80 92-107 0-16 4-23 13-19 6 3 20 9 31 12 15 6 17 14 12 43-3 20-6 44-6 54 0 9-5 17-11 17-5 0-7-6-4-12 4-7-2-2-13 11-19 23-20 23-25 5-3-14-5-12-6 8 0 15 4 30 9 33 15 9 12 25-4 25-15 0-28 58-14 66 4 3 8 10 8 15 0 6-4 7-10 4s-10 5-10 18c0 25-38 109-52 115-12 6-9 57 4 70 6 6 8 15 4 19s-11 1-16-7c-8-12-10-10-10 7 0 12-4 25-10 28-5 3-10 11-10 18 0 6 7 2 16-9 15-18 15-18 9 11-8 37-14 43-24 26-6-9-13-4-28 19-18 28-18 36-7 91 14 70 17 74 41 64 10-5 22-7 26-6 14 3 50-38 45-51-3-7-2-38 2-68 5-39 4-63-6-81-12-25-10-39 7-39 4 0 5 10 2 23s3 8 13-13c10-19 24-41 31-48s13-17 13-22 8-11 19-15c13-4 17-12 13-31-3-20 0-26 17-31 11-3 21-13 21-23s10-20 22-23c20-6 20-7 5-31-10-14-17-31-17-37 0-13 38-49 52-49 5 0 14-12 21-27 6-16 23-39 38-53 14-14 34-41 44-60 9-19 28-49 40-66 22-28 26-50 26-134 0-62-2-70-17-70-21 0-17-44 9-83 12-19 38-43 57-53s39-29 44-41c9-20 67-46 102-46 9 0 30-14 48-32 30-31 133-85 161-85 7 0 20-6 27-12 21-20 74-48 91-48 8 0 27-6 42-14 29-15 59-10 117 18 17 9 39 16 48 16 41 0 91-32 129-83 62-83 92-107 147-116 27-4 58-12 69-18 57-30 96-41 139-38 37 2 44 0 32-9-14-9-11-17 22-53 91-104 109-138 89-171-13-20 2-50 33-66 27-13 31-13 40 2 9 16 9 16 10 0 0-9 15-24 34-33 35-17 52-40 36-50-12-7-1-35 13-35 6 0 21-10 34-22 21-19 23-20 23-4 0 12 5 16 16 12 9-3 24-6 34-6 21 0 35-29 20-44-14-14-12-26 5-26 9 0 12 6 9 15-9 24 22 8 40-21 16-23 17-23 51-7 38 18 42 29 20 59-20 26-19 27 15 42 17 8 30 20 30 27s7 15 15 19c14 5 22 66 9 66-3 0-35-16-70-35-72-40-80-41-106-18-13 11-18 12-18 3 0-10-3-10-14 0-8 6-13 17-10 24s-7 18-21 24-25 18-25 27c0 8-5 15-10 15-6 0-15 12-20 28-6 15-15 37-21 48-8 16-8 27 0 42 6 11 11 32 11 46s5 26 10 26c6 0 10 24 10 53 0 33 7 66 19 88 11 20 17 46 15 57-3 11-1 23 6 27s1 15-17 31c-15 13-35 31-44 39-20 19-139 36-156 23-14-11-97-13-113-3-6 4-17 1-25-5-12-10-18-10-30 0-8 6-20 8-27 4s0 6 15 23c16 17 30 46 34 69 3 21 10 45 16 52 5 6 7 12 4 12s5 11 18 25c14 13 25 31 25 39s5 27 12 43c6 15 12 36 12 45 1 9 4 20 9 24 4 4 7 15 7 24 0 10 7 23 15 30 13 11 14 10 9-4-9-23 9-20 24 4 8 13 8 20 2 20-7 0-7 7 0 21 7 11 9 31 6 44-6 22-10 23-68 20-35-1-93-10-129-19-52-14-69-22-78-42-6-14-11-30-11-35 0-6-11-34-24-62-24-54-68-86-126-93-54-6-130-23-150-34-18-10-25-8-46 13-13 14-37 27-52 30-27 6-43 30-57 92-3 17-14 38-23 48s-17 37-18 60-6 53-11 67c-6 14-9 34-7 45 16 99 54 213 84 255 14 20 22 49 25 91 6 91 28 118 159 196 146 88 198 107 223 82 5-5 33-11 62-11 35-1 51-6 51-15 0-7 6-14 13-15 42-5 73-3 79 6 7 11 40 18 34 8-2-4-1-15 3-25 6-16 8-16 26-2 20 15 20 15-3 33-22 17-22 18-3 34 10 8 20 21 23 28 6 19 216 22 246 4 12-8 22-21 22-28 0-25 33-28 62-6 34 25 58 23 74-8 6-12 18-30 27-40 21-23 21-45 2-81-7-15-13-39-11-52 7-61 19-109 27-109 5 0 9-7 9-15s9-23 20-32c11-10 20-30 20-45 0-21 4-26 16-21 9 3 20 0 25-8 8-12 11-12 18 1 5 8 10 20 11 25 0 6 7 19 14 30 27 44 36 99 25 163-5 35-7 67-4 72 3 4-2 37-11 71-32 126 23 236 151 299 16 8 48 34 71 58 27 28 49 42 67 42 14 0 29 5 32 10 13 20 85 60 109 60 30 0 56 28 37 39-9 6 0 15 28 28 38 19 40 19 30 2-5-11-17-19-27-20-9 0-12-3-5-5 7-3 21 0 32 6 18 9 21 20 21 78 0 38-5 73-10 78-8 8-7 20 1 40 6 16 13 38 15 48 6 34 21 38 19 6-1-17-7-36-13-42-7-7-12-21-12-32 0-19 3-17 24 9 13 16 22 34 19 39-4 5-1 6 5 2 7-4 23 5 38 21 20 22 25 35 21 60-3 18-1 35 4 38 5 4 9-1 9-9 0-23 6-20 54 19 23 19 48 50 55 69 13 31 20 35 70 45 70 15 126 39 96 41-11 1 1 8 28 15 26 7 56 11 66 8s22 0 25 6c4 6 15 11 26 11 21 0 35 29 20 44-7 7-10 5-10-7 0-24-19-21-29 6-7 15-5 25 5 33 8 6 14 18 14 26 0 30 65 74 150 103 47 16 95 35 107 42 12 8 35 15 52 15 29 1 45 17 19 19-18 1 23 16 58 22 16 3 41 10 56 16 16 6 30 7 33 1 3-5-25-24-61-42-58-28-68-37-70-62-2-16 3-35 11-42 16-16 45-19 45-4 0 6 9 10 20 10s20 4 20 9c0 14 78 63 89 56 6-3 16-3 23 1 22 14 172 63 177 59 2-3 10 4 18 15s21 20 30 20c22 0 73 32 73 47 0 7-7 13-15 13-18 0-19 4-3 30 10 15 10 22 0 32-9 9-25-2-72-50-33-34-60-58-60-52s-9 6-22 1c-27-9-111 6-103 19 7 11 55 9 55-2 0-4 9-8 20-8s20 4 20 10c0 5 12 16 28 24 27 15 26 15-28 16-64 0-83 9-74 35 5 13 3 16-7 13-8-3-13-10-12-16 2-6-4-9-12-6-19 8-19-10 0-30 20-20 19-25-5-19-21 6-32 34-27 67 2 11 19 35 38 53l34 34-27-6c-41-10-34 3 12 21 80 32 58 90-33 87-61-2-193-43-253-78-56-33-62-32-22 4 39 33 113 71 141 71 11 0 32 13 47 29 14 17 38 35 54 41 17 6 111 10 238 9 126-1 213 3 217 9 3 5 16 12 29 16 12 4 34 18 50 30 33 27 84 46 126 46h31l-45-44c-72-69-120-123-120-135 0-6-7-11-15-11-9 0-18-7-21-15-4-8-10-12-15-9-9 5-39-18-39-31 0-3 10-4 23 0 12 3 3-6-21-21-70-43-55-54 83-59 255-11 235-8 219-26-17-18-18-39-3-39 5 0 8 4 4 9-3 5-1 13 5 16 6 4 10 3 9-2-5-30 2-40 26-35 38 7 98 102 65 102-5 0-10-4-10-10 0-5-4-10-8-10-5 0-9 7-9 15s4 12 8 10c3-3 12 2 19 10 10 12 9 15-4 15-9 0-24-9-33-20-10-11-22-20-27-20s1 11 13 24c17 18 19 25 9 29-7 3 0 4 17 4 20-2 30 3 33 15 2 12-2 15-17 11-25-6-30 21-6 31 22 8 18 25-7 36-13 5-17 9-10 9 7 1 10 6 6 13-5 7-11 5-21-7-7-11-13-13-13-7 0 7-7 12-15 12s-15-3-15-8c0-4-13-8-29-8-21-1-28 2-24 12 3 8 11 14 19 14 27 0 14 18-18 24l-33 7 34 29c23 19 37 26 42 19 9-16 21 5 13 25-3 9-2 16 4 16 5 0 12 7 16 15 4 11-2 15-22 15-19 0-23-3-14-9 9-5 3-8-17-7-17 1-31 2-31 3 0 2 20 12 45 24 42 20 49 28 61 81 16 64 13 77-18 83-34 8-54 45-32 58 23 13-13 42-48 38-18-1-28 2-26 10 3 14-46 30-70 22-10-3-13-1-7 4 19 15 16 35-9 58-24 22-24 24-7 30 19 6 26 50 10 61-5 3-2 16 7 29 14 22 14 24-4 34-14 7-20 21-20 44 0 19-7 47-15 63-8 17-13 47-10 72 2 23 1 42-3 42-12 0-35-30-29-40 3-5 0-7-8-4s-39-19-72-51c-32-30-64-55-70-55s-30-9-54-21c-36-17-45-18-59-7-36 29-53 50-55 67-1 20 29 87 43 96 6 4 8 11 4 16-3 5-2 8 3 7 4-2 8 1 8 6 0 6-13 11-30 13-16 1-41 5-53 8-20 5-22 8-11 21 10 13 10 17-2 24-29 18-63 46-78 63-9 9-21 17-28 17-17 0-17-20 0-20 6 0 4-5-6-11-18-11-34-9-153 13-58 10-62 10-83-11-12-12-24-33-25-46-3-32-24-55-63-72-40-16-43-26-7-17 24 6 26 5 19-17-5-13-8-30-8-36 0-7-3-13-7-13s-27-16-51-35-48-35-52-35c-10 0-37-26-37-34 0-3 4-6 10-6 18 0 60-43 60-62 0-25-37-102-58-121-38-34-155-89-212-99l-60-10 5-44c3-26 1-44-5-44-5 0-10-11-10-24 0-14-4-27-8-30-4-2-9-19-10-38-2-23-12-40-32-56-17-13-28-28-25-33 4-5 2-9-4-9-5 0-11 6-14 13-3 8-12 5-30-12-27-25-47-21-47 9 0 10-8 25-17 32-10 7-19 20-19 28-1 8-5 23-9 32-6 15-3 16 22 9 57-17 58-17 58 9 0 22-4 25-31 24-26-1-31 1-27 17 3 11 9 22 14 25s9 16 9 30c0 13 4 24 8 24 13 0 43 58 33 64-5 3-44 8-87 11-46 3-84 11-93 19s-35 20-58 28c-24 7-43 19-43 25 0 18-34 50-62 58-12 4-38 13-56 21-25 12-40 13-70 5-20-6-40-11-43-11-8 0 3 52 20 93 15 37 7 47-35 47-19 0-34 3-34 6 0 9 91 124 98 124 4 0 34 20 66 45 33 24 72 47 87 50 15 4 30 12 33 20s21 17 40 21c20 3 36 10 36 15s6 8 13 7c6-2 11 3 9 11-3 13 6 13 53-4 14-5 16-4 6 3s-5 12 21 21c18 6 40 20 48 31s22 20 30 20c9 0 21 5 27 11 7 7 33 13 60 15 54 5 159 53 197 91 22 22 87 63 100 63 3 0-22-26-55-57-32-32-59-62-59-68s-20-17-45-24c-54-16-55-37-1-33 34 3 37 2 31-17-8-28 17-28 68-1 20 11 44 20 52 20s22 9 32 20c21 21 65 18 57-5-8-20 68-29 110-14 29 10 33 16 25 30-5 10-15 16-23 13s-16 4-19 18c-6 21-43 50-90 70-13 6-16 14-11 35 4 16 9 30 11 33 6 7 22-23 17-32-5-7 1-9 39-12 6-1 12 8 13 19 3 60 3 59 23 34 18-22 20-22 26-6 4 9 15 17 24 17s29 7 45 15c15 8 34 15 40 15 7 0 23 11 36 25 18 19 20 27 12 38-14 17 9 41 54 57 16 6 34 22 41 35 10 22 9 25-7 25-35 0-31 19 6 29 28 8 43 7 65-4 16-9 40-12 57-9 37 7 53-13 18-22-30-7-56-34-35-34 9-1 5-8-10-21-13-11-20-23-16-27s10-1 12 6c3 6 11 12 19 12 13 0 18 12 15 33 0 4 4 7 9 7 16 0 90 51 90 62 0 6-8 7-17 3-37-15-53-17-53-6 0 6 11 11 25 11 17 0 29 7 35 23 5 12 9 16 9 10 1-7 8-13 16-13 9 0 12-6 8-17s-3-14 5-9c7 4 12 3 12-1 0-5 12-16 28-25l27-17-28-1c-16 0-26 4-22 9 9 16-15 24-31 11-10-10-11-16-3-26 6-7 7-18 3-25-5-9 2-10 28-5 27 5 35 3 35-9 0-11-11-15-42-15-67 0-140-48-120-80 15-24 145 7 145 35 0 7 6 18 14 24 11 9 14 8 12-6-1-14 8-19 37-21 27-2 37 1 37 12 0 8-10 16-22 18s-24 10-26 18c-4 13-3 13 10 2 13-10 17-10 21 0s6 10 6 1c1-7 10-13 21-13 15 0 19-5 16-22-3-13-5-31-5-40-1-10-9-18-18-18s-24-6-32-13c-9-8-38-22-66-32-62-22-73-31-57-47 17-17 15-27-5-27-10 0-35-4-55-9-23-6-56-6-89 0-43 8-58 6-88-9-53-27-75-51-62-67 17-20 58-25 104-12 23 7 58 11 77 10s45-2 58-3c13 0 20-5 17-11-3-5 1-10 10-10 10 0 15-7 13-17s7-29 19-43c13-14 23-32 23-42 0-24 15-30 44-17 21 10 29 8 52-10 15-11 37-21 50-21s46-9 74-20c27-11 50-18 50-15s9-4 21-16c24-24 50-11 42 21-6 21-33 28-33 9 0-6-6-9-12-6-7 2-12 13-10 23 1 11-8 29-23 42-14 12-25 26-25 31s-9 11-20 14-20 13-20 23c0 16 1 16 20-1 11-10 23-15 27-12 3 4 13-2 21-14 12-17 16-18 30-7 9 7 13 8 9 2-4-7 3-14 17-18 13-3 26-15 29-26 6-22 31-27 43-9 3 6 0 15-7 20-10 6-11 9-1 9 6 0 12 9 12 20 0 12 5 17 14 14 7-3 21 2 30 12 15 14 15 19 2 38-10 16-11 27-4 40 11 20-3 36-33 36-17 0-29 18-35 53-2 10 2 17 11 17 18 0 19 11 3 29-11 11-10 12 0 7 7-4 19-3 25 3 16 13 60-24 65-54 4-23 22-48 30-41 2 3 13 1 23-4 23-13 49-2 59 24 7 18 14 21 44 18 23-3 36 0 36 8 0 15 25 40 42 40 7 0 24 9 37 19l23 18-28 20c-16 11-35 18-43 15s-11 0-7 7c4 6 1 11-7 11-7 0-24 11-37 26-17 17-31 23-47 19-12-3-25 0-29 6-3 6-22 17-40 25-19 8-34 18-34 22 0 13 47 35 59 28 19-12 33 4 19 22-10 12-10 16 0 19 33 12-9 67-63 82-21 6-42 8-47 5-4-3-8 2-8 11s-4 14-9 11-11 3-14 14c-4 16-14 20-49 20-24 0-50-6-58-12-12-11-12-10-1 5 10 12 10 17 2 17-7 0-9 5-6 10 3 6-1 10-9 10-9 0-16 7-16 15s-10 17-22 19c-13 3-32 7-43 9-14 3-12 5 8 6 15 1 27 7 27 14 0 29-35 44-115 50-65 5-83 3-97-10-17-15-18-15-18 0 0 21-49 22-140 2-76-17-95-18-60-3l25 10-25 10c-68 26-260-33-342-106-10-9-21-16-25-16-9-1-47-50-41-54 1-2 28-8 58-13l55-11-59 2c-67 1-79-11-45-43 15-14 30-19 42-15 13 4 17 2 13-5-8-12 1-14 59-13 22 1 33-1 25-5-24-10-40-30-43-55-2-13-10-23-18-23s-30-13-50-28c-37-28-55-35-44-17 3 6 0 10-8 10-17 0-53-38-43-47 3-4-8-13-26-20-25-11-33-11-40-1-13 21-4 42 24 56 58 28 38 94-23 73-28-9-30-9-24 9 5 16 2 20-14 20-23 0-30 35-10 42 9 3 9 10 0 27s-10 26-1 36c15 18 3 55-18 56-9 0 2 8 26 18 24 9 47 22 50 28 4 6 32 13 62 15 68 7 221 75 199 89-8 5-32 9-54 9s-58 3-80 6c-48 6-121-8-118-24 2-6-4-9-13-5-8 3-25-3-37-14s-30-23-41-27c-12-4-17-13-13-25 6-23-23-52-70-71-18-7-33-15-33-19s-9-7-21-8c-28-2-69-30-69-47 0-7-11-19-25-26-17-9-25-21-23-34 2-16-3-22-25-24-17-2-36 3-47 13-15 13-22 14-46 3-16-7-33-18-37-25s-26-16-47-19c-43-7-55-30-18-36 12-2 23-9 26-17 3-9-2-11-17-6-15 4-27-1-43-17-21-22-32-24-136-26-92-1-114 1-119 14-3 9-12 12-24 9-27-9-48 6-23 16 18 7 18 7 0 14-11 5-21 3-26-5-6-9-9-7-12 10-1 13-9 25-17 28s-11 0-8-5-7-8-24-5l-30 4 27 14c19 10 31 11 38 4 13-13 29-13 21 0-3 5 0 7 9 4 8-3 17-11 19-18 3-8 28-13 67-14 35-1 69-7 77-13 11-9 19-7 36 10 13 11 29 21 35 21 14 0 15 6 3 29-7 13-5 17 10 18 10 1 19-5 19-13s3-14 6-14c13 0 64 42 64 53s-42 34-92 50c-24 8-23 24 2 37 11 6 20 17 20 25 0 34 44 81 96 104 30 13 54 27 54 31 0 11-27 20-60 20-35 0-90-21-72-27 6-3 12-9 12-14 0-6-8-6-19 1-39 20-81 12-113-22-17-18-34-43-39-55-5-13-13-23-18-23-11 0-9 19 3 38 5 8 1 21-10 33-21 23-64 26-64 4 0-19-14-19-67 1-34 13-48 14-75 5-26-9-30-9-20 1 17 17 15 28-6 28-10 0-25 11-32 25-16 30-38 38-110 41-30 1-98 5-150 7-52 3-108 3-123 0zm1928-88c-16-9-38-30-49-48l-18-32-10 25c-5 13-5 26-1 27 5 2 24 12 43 23 19 10 42 19 50 19s2-6-15-14zm278-16c5-19 11-21 49-16 37 5 39 5 18-5-14-5-45-11-70-12-44-2-45-1-27 17 10 10 15 22 12 27-4 6-2 10 3 10s12-10 15-21zm-370-56c-9-3-10-10-3-24 11-20-3-28-15-9-9 15 2 40 17 39 10 0 10-2 1-6zm592-13c-3-5-14-10-23-9-14 0-13 2 3 9 27 11 27 11 20 0zm145-80c-8-5-24-9-35-9-16 1-16 2 5 9 35 11 48 11 30 0zm104-42c-5-8-2-9 11-4 11 4 22 2 26-6 6-10-9-16-58-25-78-14-95-11-28 6 25 6 44 15 44 19-2 12 1 22 7 22 3 0 2-5-2-12zm-997-4c-3-3-12-4-19-1-8 3-5 6 6 6 11 1 17-2 13-5zm953-8c0-2-9-6-20-9s-18-1-14 4c5 9 34 13 34 5zm-3373-12c-3-3-12-4-19-1-8 3-5 6 6 6 11 1 17-2 13-5zm2603-4c0-5-10-10-22-10-19 0-20 2-8 10 19 13 30 13 30 0zm148 3c-10-2-26-2-35 0-10 3-2 5 17 5s27-2 18-5zm-2828-13c-8-5-22-9-30-9-10 0-8 3 5 9 27 12 43 12 25 0zm2180 0c0-5-4-10-10-10-5 0-10 5-10 10 0 6 5 10 10 10 6 0 10-4 10-10zm-170-22c0-4-11-15-25-24-31-20-33-38-4-31 12 3 18 2 13-2-11-9-87-36-127-45-17-4-31-16-37-31-7-17-14-23-26-18-16 6-16 7 1 19 10 8 14 18 9 26-4 7-4 10 1 6 10-9 47 10 40 21-2 5 16 14 41 20s42 16 39 21c-4 6-11 7-17 4-6-4-8 1-6 12 2 13 11 18 25 16 12-2 24 1 27 7 7 11 46 11 46-1zm-2230-13c-46-18-72-18-40-1 14 8 36 14 50 14 22 0 20-1-10-13zm3750 7c0-4-16-6-35-4s-35 6-35 8 16 4 35 4 35-4 35-8zm-1316-34c-6-21-25-41-31-34-5 5 22 56 30 56 5 0 5-10 1-22zm781 2c-3-5-11-10-16-10-6 0-7 5-4 10 3 6 11 10 16 10 6 0 7-4 4-10zm-305-10c0-5-5-10-11-10-5 0-7 5-4 10 3 6 8 10 11 10 2 0 4-4 4-10zm367 4c-3-3-12-4-19-1-8 3-5 6 6 6 11 1 17-2 13-5zm-692-63c-3-6-11-11-17-11s-6 6 2 15c14 17 26 13 15-4zm-625-5c0-2-7-6-15-10-8-3-15-1-15 4 0 6 7 10 15 10s15-2 15-4zm1338-3c-10-2-26-2-35 0-10 3-2 5 17 5s27-2 18-5zm-1978-49c0-2-9-4-21-4-11 0-18 4-14 10 5 8 35 3 35-6zm697-10c-3-3-12-4-19-1-8 3-5 6 6 6 11 1 17-2 13-5zm-1392-14c-11-4-35-14-54-21-33-12-33-13-10-22 13-5 47-6 74-2l50 6-32-20c-18-11-48-20-71-19-48 0-84-10-77-23 5-8-16-14-38-10-4 1-24-6-44-14s-38-13-41-10c-8 8 69 37 84 31 7-3 16 0 20 6 12 19-76 0-108-24-24-16-34-18-51-10-18 9-19 11-4 11 9 1 17 6 17 11 0 6 9 10 19 10 11 0 26 7 35 15 8 8 23 14 33 13h37c37 4-4 32-43 30l-36-1 33-4c17-2 32-8 32-14 0-5-1-9-2-9-2 1-28 7-58 14l-55 12 80 13c44 7 109 19 145 26 76 16 93 17 65 5zm2785 1c0-5 12-12 26-15 35-9 20-22-33-29-36-4-41-3-35 12 12 31 42 54 42 32zm514-10c4-5-3-7-14-4-23 6-26 13-6 13 8 0 17-4 20-9zm-5657-17c-3-3-12-4-19-1-8 3-5 6 6 6 11 1 17-2 13-5zm4280-36c0-18-2-27-4-20-3 6-14 12-25 12-12 0-18 3-15 7 4 3 2 12-4 20-9 10-5 13 18 13 27 0 30-3 30-32zm-242-34c20-15 20-16-4-12-14 2-26 9-29 16-5 16 9 15 33-4zm-4250-64c-3-5-12-10-18-10-7 0-6 4 3 10 19 12 23 12 15 0zm5015-11c0-5-7-9-15-9-9 0-12 6-9 15 6 15 24 11 24-6zm125-79c-3-5-10-10-16-10-5 0-9 5-9 10 0 6 7 10 16 10 8 0 12-4 9-10zm-2592-119c17-15 68-9 132 13 11 4-2-5-30-20-27-15-72-31-100-35-27-5-55-15-60-23-13-17-163-31-185-16-13 9-13 10 0 11 8 1 23 0 33-1s30 6 45 16 43 20 62 24c31 5 35 9 38 37 3 30 5 32 25 20 12-7 30-18 40-26zm2904-37c-3-3-12-4-19-1-8 3-5 6 6 6 11 1 17-2 13-5zm-5157-40c0-2-7-4-15-4s-15 4-15 10c0 5 7 7 15 4 8-4 15-8 15-10zm-83-10c-3-3-12-4-19-1-8 3-5 6 6 6 11 1 17-2 13-5zm-42-14c-9-14-45-32-45-23 0 7 24 22 48 32 2 0 0-3-3-9zm-322-97c-7-2-21-2-30 0-10 3-4 5 12 5 17 0 24-2 18-5zm57 3c0-2-9-6-20-9s-18-1-14 4c5 9 34 13 34 5zm1018-81c-3-3-9 2-12 12-6 14-5 15 5 6 7-7 10-15 7-18zm17-25c3-5 2-10-4-10-5 0-13 5-16 10-3 6-2 10 4 10 5 0 13-4 16-10zm-50-20c-4-6-2-17 4-24 8-9 7-13-4-13-8 0-12 4-9 8 2 4-1 11-7 15-8 4-7 9 2 15 18 11 21 11 14-1zm-1285-10c0-5-2-10-4-10-3 0-8 5-11 10-3 6-1 10 4 10 6 0 11-4 11-10zm1370-45c-14-17-46-20-54-6-4 5 2 7 13 4 10-3 22 0 25 6 4 6 12 11 18 11 7 0 6-6-2-15zm-14-37c4-6 3-8-4-4-6 3-15-1-20-10-6-11-11-13-16-5-4 6-2 11 4 11s8 5 5 10c-3 6 1 10 9 10s18-5 22-12zm-66-32c0-2-8-10-17-17-16-13-17-12-4 4s21 21 21 13zm40-41c0-8-2-15-4-15s-6 7-10 15c-3 8-1 15 4 15 6 0 10-7 10-15zm67 9c-3-3-12-4-19-1-8 3-5 6 6 6 11 1 17-2 13-5zm-119-77c-6-12-12-23-13-24-1-2-2 10-2 26 0 20 4 28 13 24 11-4 11-10 2-26zm2098-118c8-14-16-159-27-159-5 0-9 3-9 8 0 4-4 13-9 21-7 11-13 12-24 3-10-9-14-9-14 1 0 6-3 22-7 35-6 17-3 24 16 31l23 10h-22c-30 1-29 7 5 36 29 26 57 32 68 14zm2504 7c0-2-15-9-32-15-30-10-31-9-14 4 18 14 46 20 46 11zm-4580-36c0-5-2-10-4-10-3 0-8 5-11 10-3 6-1 10 4 10 6 0 11-4 11-10zm2050-175c0-2-13-18-30-35-19-19-30-25-30-16 0 8 12 24 26 35 27 21 34 25 34 16zm-1944-121c0-11 11-21 32-28 26-9 30-14 20-24-9-9-9-12 0-12 7 0 12-10 12-22 0-17-3-19-9-9-5 8-14 10-21 6-8-5-11-3-8 6 3 8-7 26-21 40-28 27-37 59-16 59 7 0 12-7 11-16zm2477-90c9-3 12-14 10-29-6-27 25-49 54-38 15 6 16 4 6-9-7-8-10-18-7-21 4-3 3-14-1-24-10-23-12-29-14-48 0-8-6-15-12-15s-9 7-5 15c4 12-3 13-42 8-26-3-55-10-64-15-22-11-65 0-72 18-3 8-13 14-23 14-12 0-7 7 16 21 37 22 35 35-4 25-16-4-23-11-19-18s3-8-4-4c-6 4-26-1-44-10-18-10-46-21-63-25-16-4-41-11-55-15-25-6-25-6-5 10 19 17 18 17-22 13-24-3-43-4-43-2 0 9 111 64 153 75 26 7 50 17 53 21 3 5 10 9 17 9 6 0 2-7-9-15-10-8-14-15-7-15 21 0 63 19 63 29 0 6-6 8-14 5s-17 0-22 7c-4 7-3 10 2 6 5-3 34 3 64 13 57 20 88 24 113 14zm-2448-35c-4-5-21-8-38-8-21 1-25 3-12 6 11 3 24 9 29 14 11 10 28 1 21-12zm3840-29c8-13-5-13-25 0-13 8-13 10 2 10 9 0 20-4 23-10zm105-136c0-2-9-4-21-4-11 0-18 4-14 10 5 8 35 3 35-6zm-1315-19c6-2-11-4-37-4-27-1-48 3-48 7 0 7 62 5 85-3zm-185-11c0-9-63-68-76-72-33-9-44-17-77-56-41-49-57-84-57-123 0-17-15-40-44-69-48-49-75-56-77-21-3 58 41 141 126 235 42 47 51 72 15 40-8-7-4 0 10 15 15 17 31 26 42 24 9-3 25 1 35 8 26 18 103 32 103 19zm170-30c33-14 36-14 52 5 25 31 54 27 67-10 24-69-20-108-56-49-22 38-42 40-35 4 4-21-2-33-26-54-17-14-34-38-37-53-6-22-42-57-59-57-3 0-4 19-3 43 2 37 0 42-18 39-11-2-27-10-36-18-8-8-19-14-24-14-4 0 13 20 39 45s44 50 41 55-1 11 5 15c17 11 11 25-15 37-14 6-25 18-25 26 0 11 9 13 48 7 26-4 63-13 82-21zm24 14c-3-4-9-8-15-8-5 0-9 4-9 8 0 5 7 9 15 9s12-4 9-9zm326-155c-1-33-61-56-125-48-28 4-68 2-88-3-48-13-48 2 1 25 24 12 60 18 105 18 37 0 67 3 67 8 0 4 9 7 20 7s20-3 20-7zm-230-98c0-7-79-46-150-72-97-37-138-45-160-33-26 14-26 30 0 30 11 0 20-6 20-12 0-10 2-10 8-1 4 7 34 26 67 42 48 25 67 29 105 25 32-4 41-3 31 4-11 8-7 11 20 15 19 2 40 5 47 5 6 1 12 0 12-3zm-255-55c-3-5-15-10-26-10-10 0-19 5-19 10 0 6 12 10 26 10s23-4 19-10zm280-361c11-17-1-21-15-4-8 9-8 15-2 15s14-5 17-11zm0-169c3-6-1-7-9-4-18 7-21 14-7 14 6 0 13-4 16-10zm-1180-500c3-5-1-10-10-10s-13 5-10 10c3 6 8 10 10 10s7-4 10-10zm113-1624c10-23 9-24-24-23-29 2-32 4-18 14 16 12 16 13 1 19-10 3-17 15-17 25 0 18 2 18 23 4 13-8 29-26 35-39z"/>
   <path id="path96" d="m8135 13188c-27-5-68-10-90-11-22-2-58-9-79-16-31-11-36-15-23-23 24-13 9-38-24-38-16 0-29 5-29 10 0 13-36 13-61 0-25-14-14-35 32-58 25-12 34-23 33-40-1-27 1-27 124-1 51 10 70 20 107 56 25 23 45 52 45 63s7 20 15 20c16 0 17 6 7 30-6 13-16 14-57 8zm15-69c13-9 13-10-2-6-9 3-18 1-21-6-2-6-6-4-10 6-7 19 10 23 33 6z"/>
   <path id="path98" d="m3703 12016c-28-12-55-25-59-29s-17-7-29-7c-13 0-28-7-35-15s-16-13-20-10c-13 8-70-16-80-34-14-27 3-45 36-36 16 5 36 9 44 11s23 7 35 13c11 6 37 17 58 25 32 13 42 26 39 56 0 3 15 4 34 2 31-4 34-2 34 22 0 14-1 26-2 25-2 0-26-11-55-23z"/>
   <path id="path100" d="m6890 9019c-14-4-46-13-72-20-26-6-55-20-64-30-9-11-24-19-33-19-14 0-14-2-1-10s11-11-7-16c-30-8-29-20 1-26 14-3 34 3 47 13s31 19 40 19 26 9 39 20c16 14 36 20 64 19 23-1 33-3 24-6-10-2-18-8-18-13 0-9 62-30 90-30 8 0 38-11 65-25 30-14 59-22 73-18 18 4 22 1 22-20 0-13 7-30 15-37s15-18 15-25 7-18 15-25c9-7 14-19 11-26-7-17 204-12 249 5l29 12-29 24c-17 13-42 24-56 25-18 0-26 5-25 16s-13 21-42 29c-42 13-102 63-102 87 0 6-3 9-6 5-4-3-13 0-21 8-17 18-47 20-37 3 5-8 2-9-10-5-10 4-24 7-32 7s-13 5-11 12c6 30-172 66-233 47zm365-229c4-6-7-10-24-10s-31 5-31 10c0 6 11 10 24 10 14 0 28-4 31-10z"/>
   <path id="path102" d="m7552 8740c-33-16-34-30 0-30 13 0 18-8 18-28 0-15 5-33 12-40 19-19-18-26-79-15-48 9-55 8-63-8-8-14-4-21 22-33 34-17 52-21 44-8-2 4 22 8 55 7 55 0 63-3 81-28l20-28 25 35c24 36 38 44 45 26 2-6 14-4 31 5 29 15 90 12 95-5 2-5 11-10 20-10 8 0 12 3 9 7-4 3 1 12 11 19 16 12 14 16-20 49-20 19-46 35-57 35-12 0-21 6-21 14 0 20-82 40-136 31-33-5-50-3-62 8-15 12-22 11-50-3z"/>
  </g>
 </g>
</svg>
